solid OpenSCAD_Model
  facet normal 0 0 -1
    outer loop
      vertex 32.5 10.5 0
      vertex 47.5 25.5 0
      vertex 47.5 10.5 0
    endloop
  endfacet
  facet normal -0 0 -1
    outer loop
      vertex 47.5 25.5 0
      vertex 32.5 10.5 0
      vertex 32.5 25.5 0
    endloop
  endfacet
  facet normal -1 0 0
    outer loop
      vertex 32.5 25.5 0
      vertex 32.5 20.3 10
      vertex 32.5 25.5 19.42
    endloop
  endfacet
  facet normal -1 0 0
    outer loop
      vertex 32.5 25.5 0
      vertex 32.5 15.7 10
      vertex 32.5 20.3 10
    endloop
  endfacet
  facet normal -1 0 0
    outer loop
      vertex 32.5 10.5 19.42
      vertex 32.5 15.7 10
      vertex 32.5 10.5 0
    endloop
  endfacet
  facet normal -1 0 0
    outer loop
      vertex 32.5 10.5 0
      vertex 32.5 15.7 10
      vertex 32.5 25.5 0
    endloop
  endfacet
  facet normal -1 0 0
    outer loop
      vertex 32.5 20.3 18
      vertex 32.5 25.5 19.42
      vertex 32.5 20.3 10
    endloop
  endfacet
  facet normal -1 0 0
    outer loop
      vertex 32.5 15.7 18
      vertex 32.5 25.5 19.42
      vertex 32.5 20.3 18
    endloop
  endfacet
  facet normal -1 0 0
    outer loop
      vertex 32.5 15.7 18
      vertex 32.5 10.5 19.42
      vertex 32.5 25.5 19.42
    endloop
  endfacet
  facet normal -1 0 0
    outer loop
      vertex 32.5 15.7 10
      vertex 32.5 10.5 19.42
      vertex 32.5 15.7 18
    endloop
  endfacet
  facet normal -0 0 1
    outer loop
      vertex 35.5 22.5 25
      vertex 44.5 13.5 25
      vertex 44.5 22.5 25
    endloop
  endfacet
  facet normal 0 0 1
    outer loop
      vertex 44.5 13.5 25
      vertex 35.5 22.5 25
      vertex 35.5 13.5 25
    endloop
  endfacet
  facet normal 0 1 0
    outer loop
      vertex 47.5 25.5 19.42
      vertex 42.3 25.5 18
      vertex 32.5 25.5 19.42
    endloop
  endfacet
  facet normal 0 1 0
    outer loop
      vertex 47.5 25.5 19.42
      vertex 42.3 25.5 10
      vertex 42.3 25.5 18
    endloop
  endfacet
  facet normal 0 1 0
    outer loop
      vertex 42.3 25.5 10
      vertex 47.5 25.5 0
      vertex 37.7 25.5 10
    endloop
  endfacet
  facet normal 0 1 -0
    outer loop
      vertex 47.5 25.5 0
      vertex 42.3 25.5 10
      vertex 47.5 25.5 19.42
    endloop
  endfacet
  facet normal 0 1 -0
    outer loop
      vertex 37.7 25.5 18
      vertex 32.5 25.5 19.42
      vertex 42.3 25.5 18
    endloop
  endfacet
  facet normal 0 1 -0
    outer loop
      vertex 37.7 25.5 10
      vertex 32.5 25.5 19.42
      vertex 37.7 25.5 18
    endloop
  endfacet
  facet normal 0 1 0
    outer loop
      vertex 37.7 25.5 10
      vertex 32.5 25.5 0
      vertex 32.5 25.5 19.42
    endloop
  endfacet
  facet normal 0 1 0
    outer loop
      vertex 32.5 25.5 0
      vertex 37.7 25.5 10
      vertex 47.5 25.5 0
    endloop
  endfacet
  facet normal 1 0 0
    outer loop
      vertex 47.5 20.3 10
      vertex 47.5 25.5 19.42
      vertex 47.5 20.3 18
    endloop
  endfacet
  facet normal 1 0 0
    outer loop
      vertex 47.5 25.5 19.42
      vertex 47.5 15.7 18
      vertex 47.5 20.3 18
    endloop
  endfacet
  facet normal 1 0 0
    outer loop
      vertex 47.5 15.7 18
      vertex 47.5 10.5 19.42
      vertex 47.5 15.7 10
    endloop
  endfacet
  facet normal 1 -0 0
    outer loop
      vertex 47.5 10.5 19.42
      vertex 47.5 15.7 18
      vertex 47.5 25.5 19.42
    endloop
  endfacet
  facet normal 1 0 0
    outer loop
      vertex 47.5 25.5 19.42
      vertex 47.5 20.3 10
      vertex 47.5 25.5 0
    endloop
  endfacet
  facet normal 1 -0 0
    outer loop
      vertex 47.5 15.7 10
      vertex 47.5 25.5 0
      vertex 47.5 20.3 10
    endloop
  endfacet
  facet normal 1 0 0
    outer loop
      vertex 47.5 15.7 10
      vertex 47.5 10.5 0
      vertex 47.5 25.5 0
    endloop
  endfacet
  facet normal 1 0 0
    outer loop
      vertex 47.5 10.5 0
      vertex 47.5 15.7 10
      vertex 47.5 10.5 19.42
    endloop
  endfacet
  facet normal 0 -1 0
    outer loop
      vertex 32.5 10.5 0
      vertex 47.5 10.5 19.42
      vertex 32.5 10.5 19.42
    endloop
  endfacet
  facet normal 0 -1 -0
    outer loop
      vertex 47.5 10.5 19.42
      vertex 32.5 10.5 0
      vertex 47.5 10.5 0
    endloop
  endfacet
  facet normal -1 0 0
    outer loop
      vertex 35.5 13.5 24.5
      vertex 35.5 22.5 25
      vertex 35.5 22.5 24.5
    endloop
  endfacet
  facet normal -1 -0 0
    outer loop
      vertex 35.5 22.5 25
      vertex 35.5 13.5 24.5
      vertex 35.5 13.5 25
    endloop
  endfacet
  facet normal 0 0 -1
    outer loop
      vertex 32.5 25.5 19.42
      vertex 47.5 50.5 19.42
      vertex 47.5 25.5 19.42
    endloop
  endfacet
  facet normal -0 0 -1
    outer loop
      vertex 47.5 50.5 19.42
      vertex 32.5 25.5 19.42
      vertex 32.5 50.5 19.42
    endloop
  endfacet
  facet normal 0 0 -1
    outer loop
      vertex 207.5 25.5 19.42
      vertex 222.5 50.5 19.42
      vertex 222.5 25.5 19.42
    endloop
  endfacet
  facet normal -0 0 -1
    outer loop
      vertex 222.5 50.5 19.42
      vertex 207.5 25.5 19.42
      vertex 207.5 50.5 19.42
    endloop
  endfacet
  facet normal 0 0 -1
    outer loop
      vertex 222.5 25.5 19.42
      vertex 254 0 19.42
      vertex 222.5 10.5 19.42
    endloop
  endfacet
  facet normal 0 0 -1
    outer loop
      vertex 254 0 19.42
      vertex 207.5 10.5 19.42
      vertex 222.5 10.5 19.42
    endloop
  endfacet
  facet normal 0 0 -1
    outer loop
      vertex 47.5 25.5 19.42
      vertex 207.5 25.5 19.42
      vertex 207.5 10.5 19.42
    endloop
  endfacet
  facet normal 0 0 -1
    outer loop
      vertex 207.5 25.5 19.42
      vertex 47.5 25.5 19.42
      vertex 207.5 50.5 19.42
    endloop
  endfacet
  facet normal 0 0 -1
    outer loop
      vertex 47.5 25.5 19.42
      vertex 207.5 10.5 19.42
      vertex 47.5 10.5 19.42
    endloop
  endfacet
  facet normal 0 0 -1
    outer loop
      vertex 254 0 19.42
      vertex 47.5 10.5 19.42
      vertex 207.5 10.5 19.42
    endloop
  endfacet
  facet normal 0 0 -1
    outer loop
      vertex 0 0 19.42
      vertex 47.5 10.5 19.42
      vertex 254 0 19.42
    endloop
  endfacet
  facet normal 0 0 -1
    outer loop
      vertex 0 0 19.42
      vertex 32.5 25.5 19.42
      vertex 32.5 10.5 19.42
    endloop
  endfacet
  facet normal -0 0 -1
    outer loop
      vertex 32.5 25.5 19.42
      vertex 0 0 19.42
      vertex 32.5 50.5 19.42
    endloop
  endfacet
  facet normal 0 0 -1
    outer loop
      vertex 0 76.2 19.42
      vertex 32.5 50.5 19.42
      vertex 0 0 19.42
    endloop
  endfacet
  facet normal -0 0 -1
    outer loop
      vertex 47.5 10.5 19.42
      vertex 0 0 19.42
      vertex 32.5 10.5 19.42
    endloop
  endfacet
  facet normal 0 0 -1
    outer loop
      vertex 254 0 19.42
      vertex 222.5 25.5 19.42
      vertex 254 76.2 19.42
    endloop
  endfacet
  facet normal 0 0 -1
    outer loop
      vertex 222.5 50.5 19.42
      vertex 254 76.2 19.42
      vertex 222.5 25.5 19.42
    endloop
  endfacet
  facet normal 0 0 -1
    outer loop
      vertex 222.5 65.5 19.42
      vertex 254 76.2 19.42
      vertex 222.5 50.5 19.42
    endloop
  endfacet
  facet normal 0 0 -1
    outer loop
      vertex 207.5 65.5 19.42
      vertex 254 76.2 19.42
      vertex 222.5 65.5 19.42
    endloop
  endfacet
  facet normal 0 0 -1
    outer loop
      vertex 47.5 50.5 19.42
      vertex 207.5 50.5 19.42
      vertex 47.5 25.5 19.42
    endloop
  endfacet
  facet normal 0 0 -1
    outer loop
      vertex 207.5 50.5 19.42
      vertex 47.5 50.5 19.42
      vertex 207.5 65.5 19.42
    endloop
  endfacet
  facet normal 0 0 -1
    outer loop
      vertex 47.5 65.5 19.42
      vertex 207.5 65.5 19.42
      vertex 47.5 50.5 19.42
    endloop
  endfacet
  facet normal 0 0 -1
    outer loop
      vertex 207.5 65.5 19.42
      vertex 47.5 65.5 19.42
      vertex 254 76.2 19.42
    endloop
  endfacet
  facet normal 0 0 -1
    outer loop
      vertex 0 76.2 19.42
      vertex 47.5 65.5 19.42
      vertex 32.5 65.5 19.42
    endloop
  endfacet
  facet normal 0 0 -1
    outer loop
      vertex 47.5 65.5 19.42
      vertex 0 76.2 19.42
      vertex 254 76.2 19.42
    endloop
  endfacet
  facet normal 0 0 -1
    outer loop
      vertex 32.5 50.5 19.42
      vertex 0 76.2 19.42
      vertex 32.5 65.5 19.42
    endloop
  endfacet
  facet normal 1 -0 0
    outer loop
      vertex 44.5 13.5 25
      vertex 44.5 22.5 24.5
      vertex 44.5 22.5 25
    endloop
  endfacet
  facet normal 1 0 0
    outer loop
      vertex 44.5 22.5 24.5
      vertex 44.5 13.5 25
      vertex 44.5 13.5 24.5
    endloop
  endfacet
  facet normal 0 -1 0
    outer loop
      vertex 35.5 13.5 24.5
      vertex 44.5 13.5 25
      vertex 35.5 13.5 25
    endloop
  endfacet
  facet normal 0 -1 -0
    outer loop
      vertex 44.5 13.5 25
      vertex 35.5 13.5 24.5
      vertex 44.5 13.5 24.5
    endloop
  endfacet
  facet normal 0 1 -0
    outer loop
      vertex 44.5 22.5 24.5
      vertex 35.5 22.5 25
      vertex 44.5 22.5 25
    endloop
  endfacet
  facet normal 0 1 0
    outer loop
      vertex 35.5 22.5 25
      vertex 44.5 22.5 24.5
      vertex 35.5 22.5 24.5
    endloop
  endfacet
  facet normal 0 0 -1
    outer loop
      vertex 32.5 50.5 0
      vertex 47.5 65.5 0
      vertex 47.5 50.5 0
    endloop
  endfacet
  facet normal -0 0 -1
    outer loop
      vertex 47.5 65.5 0
      vertex 32.5 50.5 0
      vertex 32.5 65.5 0
    endloop
  endfacet
  facet normal -1 0 0
    outer loop
      vertex 32.5 65.5 0
      vertex 32.5 60.3 10
      vertex 32.5 65.5 19.42
    endloop
  endfacet
  facet normal -1 0 0
    outer loop
      vertex 32.5 65.5 0
      vertex 32.5 55.7 10
      vertex 32.5 60.3 10
    endloop
  endfacet
  facet normal -1 0 0
    outer loop
      vertex 32.5 50.5 19.42
      vertex 32.5 55.7 10
      vertex 32.5 50.5 0
    endloop
  endfacet
  facet normal -1 0 0
    outer loop
      vertex 32.5 50.5 0
      vertex 32.5 55.7 10
      vertex 32.5 65.5 0
    endloop
  endfacet
  facet normal -1 0 0
    outer loop
      vertex 32.5 60.3 18
      vertex 32.5 65.5 19.42
      vertex 32.5 60.3 10
    endloop
  endfacet
  facet normal -1 0 0
    outer loop
      vertex 32.5 55.7 18
      vertex 32.5 65.5 19.42
      vertex 32.5 60.3 18
    endloop
  endfacet
  facet normal -1 0 0
    outer loop
      vertex 32.5 55.7 18
      vertex 32.5 50.5 19.42
      vertex 32.5 65.5 19.42
    endloop
  endfacet
  facet normal -1 0 0
    outer loop
      vertex 32.5 55.7 10
      vertex 32.5 50.5 19.42
      vertex 32.5 55.7 18
    endloop
  endfacet
  facet normal -0 0 1
    outer loop
      vertex 35.5 62.5 25
      vertex 44.5 53.5 25
      vertex 44.5 62.5 25
    endloop
  endfacet
  facet normal 0 0 1
    outer loop
      vertex 44.5 53.5 25
      vertex 35.5 62.5 25
      vertex 35.5 53.5 25
    endloop
  endfacet
  facet normal 0 1 -0
    outer loop
      vertex 47.5 65.5 0
      vertex 32.5 65.5 19.42
      vertex 47.5 65.5 19.42
    endloop
  endfacet
  facet normal 0 1 0
    outer loop
      vertex 32.5 65.5 19.42
      vertex 47.5 65.5 0
      vertex 32.5 65.5 0
    endloop
  endfacet
  facet normal 1 0 0
    outer loop
      vertex 47.5 60.3 10
      vertex 47.5 65.5 19.42
      vertex 47.5 60.3 18
    endloop
  endfacet
  facet normal 1 0 0
    outer loop
      vertex 47.5 65.5 19.42
      vertex 47.5 55.7 18
      vertex 47.5 60.3 18
    endloop
  endfacet
  facet normal 1 0 0
    outer loop
      vertex 47.5 55.7 18
      vertex 47.5 50.5 19.42
      vertex 47.5 55.7 10
    endloop
  endfacet
  facet normal 1 -0 0
    outer loop
      vertex 47.5 50.5 19.42
      vertex 47.5 55.7 18
      vertex 47.5 65.5 19.42
    endloop
  endfacet
  facet normal 1 0 0
    outer loop
      vertex 47.5 65.5 19.42
      vertex 47.5 60.3 10
      vertex 47.5 65.5 0
    endloop
  endfacet
  facet normal 1 -0 0
    outer loop
      vertex 47.5 55.7 10
      vertex 47.5 65.5 0
      vertex 47.5 60.3 10
    endloop
  endfacet
  facet normal 1 0 0
    outer loop
      vertex 47.5 55.7 10
      vertex 47.5 50.5 0
      vertex 47.5 65.5 0
    endloop
  endfacet
  facet normal 1 0 0
    outer loop
      vertex 47.5 50.5 0
      vertex 47.5 55.7 10
      vertex 47.5 50.5 19.42
    endloop
  endfacet
  facet normal 0 -1 0
    outer loop
      vertex 32.5 50.5 19.42
      vertex 37.7 50.5 18
      vertex 47.5 50.5 19.42
    endloop
  endfacet
  facet normal 0 -1 0
    outer loop
      vertex 32.5 50.5 19.42
      vertex 37.7 50.5 10
      vertex 37.7 50.5 18
    endloop
  endfacet
  facet normal 0 -1 -0
    outer loop
      vertex 37.7 50.5 10
      vertex 32.5 50.5 0
      vertex 42.3 50.5 10
    endloop
  endfacet
  facet normal 0 -1 0
    outer loop
      vertex 32.5 50.5 0
      vertex 37.7 50.5 10
      vertex 32.5 50.5 19.42
    endloop
  endfacet
  facet normal 0 -1 0
    outer loop
      vertex 42.3 50.5 18
      vertex 47.5 50.5 19.42
      vertex 37.7 50.5 18
    endloop
  endfacet
  facet normal 0 -1 0
    outer loop
      vertex 42.3 50.5 10
      vertex 47.5 50.5 19.42
      vertex 42.3 50.5 18
    endloop
  endfacet
  facet normal 0 -1 0
    outer loop
      vertex 42.3 50.5 10
      vertex 47.5 50.5 0
      vertex 47.5 50.5 19.42
    endloop
  endfacet
  facet normal 0 -1 0
    outer loop
      vertex 47.5 50.5 0
      vertex 42.3 50.5 10
      vertex 32.5 50.5 0
    endloop
  endfacet
  facet normal -1 0 0
    outer loop
      vertex 35.5 53.5 24.5
      vertex 35.5 62.5 25
      vertex 35.5 62.5 24.5
    endloop
  endfacet
  facet normal -1 -0 0
    outer loop
      vertex 35.5 62.5 25
      vertex 35.5 53.5 24.5
      vertex 35.5 53.5 25
    endloop
  endfacet
  facet normal 1 -0 0
    outer loop
      vertex 44.5 53.5 25
      vertex 44.5 62.5 24.5
      vertex 44.5 62.5 25
    endloop
  endfacet
  facet normal 1 0 0
    outer loop
      vertex 44.5 62.5 24.5
      vertex 44.5 53.5 25
      vertex 44.5 53.5 24.5
    endloop
  endfacet
  facet normal 0 -1 0
    outer loop
      vertex 35.5 53.5 24.5
      vertex 44.5 53.5 25
      vertex 35.5 53.5 25
    endloop
  endfacet
  facet normal 0 -1 -0
    outer loop
      vertex 44.5 53.5 25
      vertex 35.5 53.5 24.5
      vertex 44.5 53.5 24.5
    endloop
  endfacet
  facet normal 0 1 -0
    outer loop
      vertex 44.5 62.5 24.5
      vertex 35.5 62.5 25
      vertex 44.5 62.5 25
    endloop
  endfacet
  facet normal 0 1 0
    outer loop
      vertex 35.5 62.5 25
      vertex 44.5 62.5 24.5
      vertex 35.5 62.5 24.5
    endloop
  endfacet
  facet normal 0 0 -1
    outer loop
      vertex 207.5 10.5 0
      vertex 222.5 25.5 0
      vertex 222.5 10.5 0
    endloop
  endfacet
  facet normal -0 0 -1
    outer loop
      vertex 222.5 25.5 0
      vertex 207.5 10.5 0
      vertex 207.5 25.5 0
    endloop
  endfacet
  facet normal -1 0 0
    outer loop
      vertex 207.5 25.5 0
      vertex 207.5 20.3 10
      vertex 207.5 25.5 19.42
    endloop
  endfacet
  facet normal -1 0 0
    outer loop
      vertex 207.5 25.5 0
      vertex 207.5 15.7 10
      vertex 207.5 20.3 10
    endloop
  endfacet
  facet normal -1 0 0
    outer loop
      vertex 207.5 10.5 19.42
      vertex 207.5 15.7 10
      vertex 207.5 10.5 0
    endloop
  endfacet
  facet normal -1 0 0
    outer loop
      vertex 207.5 10.5 0
      vertex 207.5 15.7 10
      vertex 207.5 25.5 0
    endloop
  endfacet
  facet normal -1 0 0
    outer loop
      vertex 207.5 20.3 18
      vertex 207.5 25.5 19.42
      vertex 207.5 20.3 10
    endloop
  endfacet
  facet normal -1 0 0
    outer loop
      vertex 207.5 15.7 18
      vertex 207.5 25.5 19.42
      vertex 207.5 20.3 18
    endloop
  endfacet
  facet normal -1 0 0
    outer loop
      vertex 207.5 15.7 18
      vertex 207.5 10.5 19.42
      vertex 207.5 25.5 19.42
    endloop
  endfacet
  facet normal -1 0 0
    outer loop
      vertex 207.5 15.7 10
      vertex 207.5 10.5 19.42
      vertex 207.5 15.7 18
    endloop
  endfacet
  facet normal -0 0 1
    outer loop
      vertex 210.5 22.5 25
      vertex 219.5 13.5 25
      vertex 219.5 22.5 25
    endloop
  endfacet
  facet normal 0 0 1
    outer loop
      vertex 219.5 13.5 25
      vertex 210.5 22.5 25
      vertex 210.5 13.5 25
    endloop
  endfacet
  facet normal 0 1 0
    outer loop
      vertex 222.5 25.5 19.42
      vertex 217.3 25.5 18
      vertex 207.5 25.5 19.42
    endloop
  endfacet
  facet normal 0 1 0
    outer loop
      vertex 222.5 25.5 19.42
      vertex 217.3 25.5 10
      vertex 217.3 25.5 18
    endloop
  endfacet
  facet normal 0 1 0
    outer loop
      vertex 217.3 25.5 10
      vertex 222.5 25.5 0
      vertex 212.7 25.5 10
    endloop
  endfacet
  facet normal 0 1 -0
    outer loop
      vertex 222.5 25.5 0
      vertex 217.3 25.5 10
      vertex 222.5 25.5 19.42
    endloop
  endfacet
  facet normal 0 1 -0
    outer loop
      vertex 212.7 25.5 18
      vertex 207.5 25.5 19.42
      vertex 217.3 25.5 18
    endloop
  endfacet
  facet normal 0 1 -0
    outer loop
      vertex 212.7 25.5 10
      vertex 207.5 25.5 19.42
      vertex 212.7 25.5 18
    endloop
  endfacet
  facet normal 0 1 0
    outer loop
      vertex 212.7 25.5 10
      vertex 207.5 25.5 0
      vertex 207.5 25.5 19.42
    endloop
  endfacet
  facet normal 0 1 0
    outer loop
      vertex 207.5 25.5 0
      vertex 212.7 25.5 10
      vertex 222.5 25.5 0
    endloop
  endfacet
  facet normal 1 0 0
    outer loop
      vertex 222.5 20.3 10
      vertex 222.5 25.5 19.42
      vertex 222.5 20.3 18
    endloop
  endfacet
  facet normal 1 0 0
    outer loop
      vertex 222.5 25.5 19.42
      vertex 222.5 15.7 18
      vertex 222.5 20.3 18
    endloop
  endfacet
  facet normal 1 0 0
    outer loop
      vertex 222.5 15.7 18
      vertex 222.5 10.5 19.42
      vertex 222.5 15.7 10
    endloop
  endfacet
  facet normal 1 -0 0
    outer loop
      vertex 222.5 10.5 19.42
      vertex 222.5 15.7 18
      vertex 222.5 25.5 19.42
    endloop
  endfacet
  facet normal 1 0 0
    outer loop
      vertex 222.5 25.5 19.42
      vertex 222.5 20.3 10
      vertex 222.5 25.5 0
    endloop
  endfacet
  facet normal 1 -0 0
    outer loop
      vertex 222.5 15.7 10
      vertex 222.5 25.5 0
      vertex 222.5 20.3 10
    endloop
  endfacet
  facet normal 1 0 0
    outer loop
      vertex 222.5 15.7 10
      vertex 222.5 10.5 0
      vertex 222.5 25.5 0
    endloop
  endfacet
  facet normal 1 0 0
    outer loop
      vertex 222.5 10.5 0
      vertex 222.5 15.7 10
      vertex 222.5 10.5 19.42
    endloop
  endfacet
  facet normal 0 -1 0
    outer loop
      vertex 207.5 10.5 0
      vertex 222.5 10.5 19.42
      vertex 207.5 10.5 19.42
    endloop
  endfacet
  facet normal 0 -1 -0
    outer loop
      vertex 222.5 10.5 19.42
      vertex 207.5 10.5 0
      vertex 222.5 10.5 0
    endloop
  endfacet
  facet normal -1 0 0
    outer loop
      vertex 210.5 13.5 24.5
      vertex 210.5 22.5 25
      vertex 210.5 22.5 24.5
    endloop
  endfacet
  facet normal -1 -0 0
    outer loop
      vertex 210.5 22.5 25
      vertex 210.5 13.5 24.5
      vertex 210.5 13.5 25
    endloop
  endfacet
  facet normal 1 -0 0
    outer loop
      vertex 219.5 13.5 25
      vertex 219.5 22.5 24.5
      vertex 219.5 22.5 25
    endloop
  endfacet
  facet normal 1 0 0
    outer loop
      vertex 219.5 22.5 24.5
      vertex 219.5 13.5 25
      vertex 219.5 13.5 24.5
    endloop
  endfacet
  facet normal 0 -1 0
    outer loop
      vertex 210.5 13.5 24.5
      vertex 219.5 13.5 25
      vertex 210.5 13.5 25
    endloop
  endfacet
  facet normal 0 -1 -0
    outer loop
      vertex 219.5 13.5 25
      vertex 210.5 13.5 24.5
      vertex 219.5 13.5 24.5
    endloop
  endfacet
  facet normal 0 1 -0
    outer loop
      vertex 219.5 22.5 24.5
      vertex 210.5 22.5 25
      vertex 219.5 22.5 25
    endloop
  endfacet
  facet normal 0 1 0
    outer loop
      vertex 210.5 22.5 25
      vertex 219.5 22.5 24.5
      vertex 210.5 22.5 24.5
    endloop
  endfacet
  facet normal 0 0 -1
    outer loop
      vertex 207.5 50.5 0
      vertex 222.5 65.5 0
      vertex 222.5 50.5 0
    endloop
  endfacet
  facet normal -0 0 -1
    outer loop
      vertex 222.5 65.5 0
      vertex 207.5 50.5 0
      vertex 207.5 65.5 0
    endloop
  endfacet
  facet normal -1 0 0
    outer loop
      vertex 207.5 65.5 0
      vertex 207.5 60.3 10
      vertex 207.5 65.5 19.42
    endloop
  endfacet
  facet normal -1 0 0
    outer loop
      vertex 207.5 65.5 0
      vertex 207.5 55.7 10
      vertex 207.5 60.3 10
    endloop
  endfacet
  facet normal -1 0 0
    outer loop
      vertex 207.5 50.5 19.42
      vertex 207.5 55.7 10
      vertex 207.5 50.5 0
    endloop
  endfacet
  facet normal -1 0 0
    outer loop
      vertex 207.5 50.5 0
      vertex 207.5 55.7 10
      vertex 207.5 65.5 0
    endloop
  endfacet
  facet normal -1 0 0
    outer loop
      vertex 207.5 60.3 18
      vertex 207.5 65.5 19.42
      vertex 207.5 60.3 10
    endloop
  endfacet
  facet normal -1 0 0
    outer loop
      vertex 207.5 55.7 18
      vertex 207.5 65.5 19.42
      vertex 207.5 60.3 18
    endloop
  endfacet
  facet normal -1 0 0
    outer loop
      vertex 207.5 55.7 18
      vertex 207.5 50.5 19.42
      vertex 207.5 65.5 19.42
    endloop
  endfacet
  facet normal -1 0 0
    outer loop
      vertex 207.5 55.7 10
      vertex 207.5 50.5 19.42
      vertex 207.5 55.7 18
    endloop
  endfacet
  facet normal -0 0 1
    outer loop
      vertex 210.5 62.5 25
      vertex 219.5 53.5 25
      vertex 219.5 62.5 25
    endloop
  endfacet
  facet normal 0 0 1
    outer loop
      vertex 219.5 53.5 25
      vertex 210.5 62.5 25
      vertex 210.5 53.5 25
    endloop
  endfacet
  facet normal 0 1 -0
    outer loop
      vertex 222.5 65.5 0
      vertex 207.5 65.5 19.42
      vertex 222.5 65.5 19.42
    endloop
  endfacet
  facet normal 0 1 0
    outer loop
      vertex 207.5 65.5 19.42
      vertex 222.5 65.5 0
      vertex 207.5 65.5 0
    endloop
  endfacet
  facet normal 1 0 0
    outer loop
      vertex 222.5 60.3 10
      vertex 222.5 65.5 19.42
      vertex 222.5 60.3 18
    endloop
  endfacet
  facet normal 1 0 0
    outer loop
      vertex 222.5 65.5 19.42
      vertex 222.5 55.7 18
      vertex 222.5 60.3 18
    endloop
  endfacet
  facet normal 1 0 0
    outer loop
      vertex 222.5 55.7 18
      vertex 222.5 50.5 19.42
      vertex 222.5 55.7 10
    endloop
  endfacet
  facet normal 1 -0 0
    outer loop
      vertex 222.5 50.5 19.42
      vertex 222.5 55.7 18
      vertex 222.5 65.5 19.42
    endloop
  endfacet
  facet normal 1 0 0
    outer loop
      vertex 222.5 65.5 19.42
      vertex 222.5 60.3 10
      vertex 222.5 65.5 0
    endloop
  endfacet
  facet normal 1 -0 0
    outer loop
      vertex 222.5 55.7 10
      vertex 222.5 65.5 0
      vertex 222.5 60.3 10
    endloop
  endfacet
  facet normal 1 0 0
    outer loop
      vertex 222.5 55.7 10
      vertex 222.5 50.5 0
      vertex 222.5 65.5 0
    endloop
  endfacet
  facet normal 1 0 0
    outer loop
      vertex 222.5 50.5 0
      vertex 222.5 55.7 10
      vertex 222.5 50.5 19.42
    endloop
  endfacet
  facet normal 0 -1 0
    outer loop
      vertex 207.5 50.5 19.42
      vertex 212.7 50.5 18
      vertex 222.5 50.5 19.42
    endloop
  endfacet
  facet normal 0 -1 0
    outer loop
      vertex 207.5 50.5 19.42
      vertex 212.7 50.5 10
      vertex 212.7 50.5 18
    endloop
  endfacet
  facet normal 0 -1 -0
    outer loop
      vertex 212.7 50.5 10
      vertex 207.5 50.5 0
      vertex 217.3 50.5 10
    endloop
  endfacet
  facet normal 0 -1 0
    outer loop
      vertex 207.5 50.5 0
      vertex 212.7 50.5 10
      vertex 207.5 50.5 19.42
    endloop
  endfacet
  facet normal 0 -1 0
    outer loop
      vertex 217.3 50.5 18
      vertex 222.5 50.5 19.42
      vertex 212.7 50.5 18
    endloop
  endfacet
  facet normal 0 -1 0
    outer loop
      vertex 217.3 50.5 10
      vertex 222.5 50.5 19.42
      vertex 217.3 50.5 18
    endloop
  endfacet
  facet normal 0 -1 0
    outer loop
      vertex 217.3 50.5 10
      vertex 222.5 50.5 0
      vertex 222.5 50.5 19.42
    endloop
  endfacet
  facet normal 0 -1 0
    outer loop
      vertex 222.5 50.5 0
      vertex 217.3 50.5 10
      vertex 207.5 50.5 0
    endloop
  endfacet
  facet normal -1 0 0
    outer loop
      vertex 210.5 53.5 24.5
      vertex 210.5 62.5 25
      vertex 210.5 62.5 24.5
    endloop
  endfacet
  facet normal -1 -0 0
    outer loop
      vertex 210.5 62.5 25
      vertex 210.5 53.5 24.5
      vertex 210.5 53.5 25
    endloop
  endfacet
  facet normal 1 -0 0
    outer loop
      vertex 219.5 53.5 25
      vertex 219.5 62.5 24.5
      vertex 219.5 62.5 25
    endloop
  endfacet
  facet normal 1 0 0
    outer loop
      vertex 219.5 62.5 24.5
      vertex 219.5 53.5 25
      vertex 219.5 53.5 24.5
    endloop
  endfacet
  facet normal 0 -1 0
    outer loop
      vertex 210.5 53.5 24.5
      vertex 219.5 53.5 25
      vertex 210.5 53.5 25
    endloop
  endfacet
  facet normal 0 -1 -0
    outer loop
      vertex 219.5 53.5 25
      vertex 210.5 53.5 24.5
      vertex 219.5 53.5 24.5
    endloop
  endfacet
  facet normal 0 1 -0
    outer loop
      vertex 219.5 62.5 24.5
      vertex 210.5 62.5 25
      vertex 219.5 62.5 25
    endloop
  endfacet
  facet normal 0 1 0
    outer loop
      vertex 210.5 62.5 25
      vertex 219.5 62.5 24.5
      vertex 210.5 62.5 24.5
    endloop
  endfacet
  facet normal -1 0 0
    outer loop
      vertex 27.5 15.7 10
      vertex 27.5 20.3 18
      vertex 27.5 20.3 10
    endloop
  endfacet
  facet normal -1 -0 0
    outer loop
      vertex 27.5 20.3 18
      vertex 27.5 15.7 10
      vertex 27.5 15.7 18
    endloop
  endfacet
  facet normal 0 -1 0
    outer loop
      vertex 27.5 15.7 10
      vertex 32.5 15.7 18
      vertex 27.5 15.7 18
    endloop
  endfacet
  facet normal 0 -1 -0
    outer loop
      vertex 32.5 15.7 18
      vertex 27.5 15.7 10
      vertex 32.5 15.7 10
    endloop
  endfacet
  facet normal 0 -1 0
    outer loop
      vertex 222.5 15.7 10
      vertex 227.5 15.7 18
      vertex 222.5 15.7 18
    endloop
  endfacet
  facet normal 0 -1 -0
    outer loop
      vertex 227.5 15.7 18
      vertex 222.5 15.7 10
      vertex 227.5 15.7 10
    endloop
  endfacet
  facet normal 0 -1 0
    outer loop
      vertex 47.5 15.7 10
      vertex 207.5 15.7 18
      vertex 47.5 15.7 18
    endloop
  endfacet
  facet normal 0 -1 -0
    outer loop
      vertex 207.5 15.7 18
      vertex 47.5 15.7 10
      vertex 207.5 15.7 10
    endloop
  endfacet
  facet normal 1 -0 0
    outer loop
      vertex 227.5 15.7 18
      vertex 227.5 20.3 10
      vertex 227.5 20.3 18
    endloop
  endfacet
  facet normal 1 0 0
    outer loop
      vertex 227.5 20.3 10
      vertex 227.5 15.7 18
      vertex 227.5 15.7 10
    endloop
  endfacet
  facet normal -0 0 1
    outer loop
      vertex 222.5 20.3 18
      vertex 227.5 15.7 18
      vertex 227.5 20.3 18
    endloop
  endfacet
  facet normal 0 0 1
    outer loop
      vertex 227.5 15.7 18
      vertex 222.5 20.3 18
      vertex 222.5 15.7 18
    endloop
  endfacet
  facet normal -0 0 1
    outer loop
      vertex 27.5 20.3 18
      vertex 32.5 15.7 18
      vertex 32.5 20.3 18
    endloop
  endfacet
  facet normal 0 0 1
    outer loop
      vertex 32.5 15.7 18
      vertex 27.5 20.3 18
      vertex 27.5 15.7 18
    endloop
  endfacet
  facet normal -0 0 1
    outer loop
      vertex 47.5 20.3 18
      vertex 207.5 15.7 18
      vertex 207.5 20.3 18
    endloop
  endfacet
  facet normal 0 0 1
    outer loop
      vertex 207.5 15.7 18
      vertex 47.5 20.3 18
      vertex 47.5 15.7 18
    endloop
  endfacet
  facet normal 0 1 -0
    outer loop
      vertex 32.5 20.3 10
      vertex 27.5 20.3 18
      vertex 32.5 20.3 18
    endloop
  endfacet
  facet normal 0 1 0
    outer loop
      vertex 27.5 20.3 18
      vertex 32.5 20.3 10
      vertex 27.5 20.3 10
    endloop
  endfacet
  facet normal 0 1 -0
    outer loop
      vertex 227.5 20.3 10
      vertex 222.5 20.3 18
      vertex 227.5 20.3 18
    endloop
  endfacet
  facet normal 0 1 0
    outer loop
      vertex 222.5 20.3 18
      vertex 227.5 20.3 10
      vertex 222.5 20.3 10
    endloop
  endfacet
  facet normal 0 1 -0
    outer loop
      vertex 207.5 20.3 10
      vertex 47.5 20.3 18
      vertex 207.5 20.3 18
    endloop
  endfacet
  facet normal 0 1 0
    outer loop
      vertex 47.5 20.3 18
      vertex 207.5 20.3 10
      vertex 47.5 20.3 10
    endloop
  endfacet
  facet normal 0 0 -1
    outer loop
      vertex 27.5 15.7 10
      vertex 32.5 20.3 10
      vertex 32.5 15.7 10
    endloop
  endfacet
  facet normal -0 0 -1
    outer loop
      vertex 32.5 20.3 10
      vertex 27.5 15.7 10
      vertex 27.5 20.3 10
    endloop
  endfacet
  facet normal 0 0 -1
    outer loop
      vertex 222.5 15.7 10
      vertex 227.5 20.3 10
      vertex 227.5 15.7 10
    endloop
  endfacet
  facet normal -0 0 -1
    outer loop
      vertex 227.5 20.3 10
      vertex 222.5 15.7 10
      vertex 222.5 20.3 10
    endloop
  endfacet
  facet normal 0 0 -1
    outer loop
      vertex 47.5 15.7 10
      vertex 207.5 20.3 10
      vertex 207.5 15.7 10
    endloop
  endfacet
  facet normal -0 0 -1
    outer loop
      vertex 207.5 20.3 10
      vertex 47.5 15.7 10
      vertex 47.5 20.3 10
    endloop
  endfacet
  facet normal -1 0 0
    outer loop
      vertex 27.5 55.7 10
      vertex 27.5 60.3 18
      vertex 27.5 60.3 10
    endloop
  endfacet
  facet normal -1 -0 0
    outer loop
      vertex 27.5 60.3 18
      vertex 27.5 55.7 10
      vertex 27.5 55.7 18
    endloop
  endfacet
  facet normal 0 -1 0
    outer loop
      vertex 27.5 55.7 10
      vertex 32.5 55.7 18
      vertex 27.5 55.7 18
    endloop
  endfacet
  facet normal 0 -1 -0
    outer loop
      vertex 32.5 55.7 18
      vertex 27.5 55.7 10
      vertex 32.5 55.7 10
    endloop
  endfacet
  facet normal 0 -1 0
    outer loop
      vertex 222.5 55.7 10
      vertex 227.5 55.7 18
      vertex 222.5 55.7 18
    endloop
  endfacet
  facet normal 0 -1 -0
    outer loop
      vertex 227.5 55.7 18
      vertex 222.5 55.7 10
      vertex 227.5 55.7 10
    endloop
  endfacet
  facet normal 0 -1 0
    outer loop
      vertex 47.5 55.7 10
      vertex 207.5 55.7 18
      vertex 47.5 55.7 18
    endloop
  endfacet
  facet normal 0 -1 -0
    outer loop
      vertex 207.5 55.7 18
      vertex 47.5 55.7 10
      vertex 207.5 55.7 10
    endloop
  endfacet
  facet normal 1 -0 0
    outer loop
      vertex 227.5 55.7 18
      vertex 227.5 60.3 10
      vertex 227.5 60.3 18
    endloop
  endfacet
  facet normal 1 0 0
    outer loop
      vertex 227.5 60.3 10
      vertex 227.5 55.7 18
      vertex 227.5 55.7 10
    endloop
  endfacet
  facet normal 0 0 -1
    outer loop
      vertex 27.5 55.7 10
      vertex 32.5 60.3 10
      vertex 32.5 55.7 10
    endloop
  endfacet
  facet normal -0 0 -1
    outer loop
      vertex 32.5 60.3 10
      vertex 27.5 55.7 10
      vertex 27.5 60.3 10
    endloop
  endfacet
  facet normal 0 0 -1
    outer loop
      vertex 222.5 55.7 10
      vertex 227.5 60.3 10
      vertex 227.5 55.7 10
    endloop
  endfacet
  facet normal -0 0 -1
    outer loop
      vertex 227.5 60.3 10
      vertex 222.5 55.7 10
      vertex 222.5 60.3 10
    endloop
  endfacet
  facet normal 0 0 -1
    outer loop
      vertex 47.5 55.7 10
      vertex 207.5 60.3 10
      vertex 207.5 55.7 10
    endloop
  endfacet
  facet normal -0 0 -1
    outer loop
      vertex 207.5 60.3 10
      vertex 47.5 55.7 10
      vertex 47.5 60.3 10
    endloop
  endfacet
  facet normal -0 0 1
    outer loop
      vertex 222.5 60.3 18
      vertex 227.5 55.7 18
      vertex 227.5 60.3 18
    endloop
  endfacet
  facet normal 0 0 1
    outer loop
      vertex 227.5 55.7 18
      vertex 222.5 60.3 18
      vertex 222.5 55.7 18
    endloop
  endfacet
  facet normal -0 0 1
    outer loop
      vertex 27.5 60.3 18
      vertex 32.5 55.7 18
      vertex 32.5 60.3 18
    endloop
  endfacet
  facet normal 0 0 1
    outer loop
      vertex 32.5 55.7 18
      vertex 27.5 60.3 18
      vertex 27.5 55.7 18
    endloop
  endfacet
  facet normal -0 0 1
    outer loop
      vertex 47.5 60.3 18
      vertex 207.5 55.7 18
      vertex 207.5 60.3 18
    endloop
  endfacet
  facet normal 0 0 1
    outer loop
      vertex 207.5 55.7 18
      vertex 47.5 60.3 18
      vertex 47.5 55.7 18
    endloop
  endfacet
  facet normal 0 1 -0
    outer loop
      vertex 32.5 60.3 10
      vertex 27.5 60.3 18
      vertex 32.5 60.3 18
    endloop
  endfacet
  facet normal 0 1 0
    outer loop
      vertex 27.5 60.3 18
      vertex 32.5 60.3 10
      vertex 27.5 60.3 10
    endloop
  endfacet
  facet normal 0 1 -0
    outer loop
      vertex 227.5 60.3 10
      vertex 222.5 60.3 18
      vertex 227.5 60.3 18
    endloop
  endfacet
  facet normal 0 1 0
    outer loop
      vertex 222.5 60.3 18
      vertex 227.5 60.3 10
      vertex 222.5 60.3 10
    endloop
  endfacet
  facet normal 0 1 -0
    outer loop
      vertex 207.5 60.3 10
      vertex 47.5 60.3 18
      vertex 207.5 60.3 18
    endloop
  endfacet
  facet normal 0 1 0
    outer loop
      vertex 47.5 60.3 18
      vertex 207.5 60.3 10
      vertex 47.5 60.3 10
    endloop
  endfacet
  facet normal 1 -0 0
    outer loop
      vertex 42.3 25.5 18
      vertex 42.3 50.5 10
      vertex 42.3 50.5 18
    endloop
  endfacet
  facet normal 1 0 0
    outer loop
      vertex 42.3 50.5 10
      vertex 42.3 25.5 18
      vertex 42.3 25.5 10
    endloop
  endfacet
  facet normal -0 0 1
    outer loop
      vertex 37.7 50.5 18
      vertex 42.3 25.5 18
      vertex 42.3 50.5 18
    endloop
  endfacet
  facet normal 0 0 1
    outer loop
      vertex 42.3 25.5 18
      vertex 37.7 50.5 18
      vertex 37.7 25.5 18
    endloop
  endfacet
  facet normal -1 0 0
    outer loop
      vertex 37.7 25.5 10
      vertex 37.7 50.5 18
      vertex 37.7 50.5 10
    endloop
  endfacet
  facet normal -1 -0 0
    outer loop
      vertex 37.7 50.5 18
      vertex 37.7 25.5 10
      vertex 37.7 25.5 18
    endloop
  endfacet
  facet normal 0 0 -1
    outer loop
      vertex 37.7 25.5 10
      vertex 42.3 50.5 10
      vertex 42.3 25.5 10
    endloop
  endfacet
  facet normal -0 0 -1
    outer loop
      vertex 42.3 50.5 10
      vertex 37.7 25.5 10
      vertex 37.7 50.5 10
    endloop
  endfacet
  facet normal 1 -0 0
    outer loop
      vertex 217.3 25.5 18
      vertex 217.3 50.5 10
      vertex 217.3 50.5 18
    endloop
  endfacet
  facet normal 1 0 0
    outer loop
      vertex 217.3 50.5 10
      vertex 217.3 25.5 18
      vertex 217.3 25.5 10
    endloop
  endfacet
  facet normal -1 0 0
    outer loop
      vertex 212.7 25.5 10
      vertex 212.7 50.5 18
      vertex 212.7 50.5 10
    endloop
  endfacet
  facet normal -1 -0 0
    outer loop
      vertex 212.7 50.5 18
      vertex 212.7 25.5 10
      vertex 212.7 25.5 18
    endloop
  endfacet
  facet normal 0 0 -1
    outer loop
      vertex 212.7 25.5 10
      vertex 217.3 50.5 10
      vertex 217.3 25.5 10
    endloop
  endfacet
  facet normal -0 0 -1
    outer loop
      vertex 217.3 50.5 10
      vertex 212.7 25.5 10
      vertex 212.7 50.5 10
    endloop
  endfacet
  facet normal -0 0 1
    outer loop
      vertex 212.7 50.5 18
      vertex 217.3 25.5 18
      vertex 217.3 50.5 18
    endloop
  endfacet
  facet normal 0 0 1
    outer loop
      vertex 217.3 25.5 18
      vertex 212.7 50.5 18
      vertex 212.7 25.5 18
    endloop
  endfacet
  facet normal -1 0 0
    outer loop
      vertex 0 0 19.42
      vertex 0 76.2 24.5
      vertex 0 76.2 19.42
    endloop
  endfacet
  facet normal -1 -0 0
    outer loop
      vertex 0 76.2 24.5
      vertex 0 0 19.42
      vertex 0 0 24.5
    endloop
  endfacet
  facet normal -0 0 1
    outer loop
      vertex 35.5 53.5 24.5
      vertex 44.5 22.5 24.5
      vertex 44.5 53.5 24.5
    endloop
  endfacet
  facet normal 0 0 1
    outer loop
      vertex 44.5 22.5 24.5
      vertex 35.5 53.5 24.5
      vertex 35.5 22.5 24.5
    endloop
  endfacet
  facet normal -0 0 1
    outer loop
      vertex 210.5 53.5 24.5
      vertex 219.5 22.5 24.5
      vertex 219.5 53.5 24.5
    endloop
  endfacet
  facet normal 0 0 1
    outer loop
      vertex 219.5 22.5 24.5
      vertex 210.5 53.5 24.5
      vertex 210.5 22.5 24.5
    endloop
  endfacet
  facet normal 0 0 1
    outer loop
      vertex 219.5 53.5 24.5
      vertex 254 76.2 24.5
      vertex 219.5 62.5 24.5
    endloop
  endfacet
  facet normal 0 0 1
    outer loop
      vertex 254 76.2 24.5
      vertex 210.5 62.5 24.5
      vertex 219.5 62.5 24.5
    endloop
  endfacet
  facet normal 0 0 1
    outer loop
      vertex 44.5 53.5 24.5
      vertex 210.5 53.5 24.5
      vertex 210.5 62.5 24.5
    endloop
  endfacet
  facet normal 0 0 1
    outer loop
      vertex 210.5 53.5 24.5
      vertex 44.5 53.5 24.5
      vertex 210.5 22.5 24.5
    endloop
  endfacet
  facet normal 0 0 1
    outer loop
      vertex 44.5 53.5 24.5
      vertex 210.5 62.5 24.5
      vertex 44.5 62.5 24.5
    endloop
  endfacet
  facet normal 0 0 1
    outer loop
      vertex 254 76.2 24.5
      vertex 44.5 62.5 24.5
      vertex 210.5 62.5 24.5
    endloop
  endfacet
  facet normal -0 0 1
    outer loop
      vertex 0 76.2 24.5
      vertex 44.5 62.5 24.5
      vertex 254 76.2 24.5
    endloop
  endfacet
  facet normal 0 0 1
    outer loop
      vertex 0 76.2 24.5
      vertex 35.5 53.5 24.5
      vertex 35.5 62.5 24.5
    endloop
  endfacet
  facet normal 0 0 1
    outer loop
      vertex 35.5 53.5 24.5
      vertex 0 76.2 24.5
      vertex 35.5 22.5 24.5
    endloop
  endfacet
  facet normal 0 0 1
    outer loop
      vertex 0 0 24.5
      vertex 35.5 22.5 24.5
      vertex 0 76.2 24.5
    endloop
  endfacet
  facet normal 0 0 1
    outer loop
      vertex 44.5 62.5 24.5
      vertex 0 76.2 24.5
      vertex 35.5 62.5 24.5
    endloop
  endfacet
  facet normal 0 0 1
    outer loop
      vertex 254 76.2 24.5
      vertex 219.5 53.5 24.5
      vertex 254 0 24.5
    endloop
  endfacet
  facet normal -0 0 1
    outer loop
      vertex 219.5 22.5 24.5
      vertex 254 0 24.5
      vertex 219.5 53.5 24.5
    endloop
  endfacet
  facet normal -0 0 1
    outer loop
      vertex 219.5 13.5 24.5
      vertex 254 0 24.5
      vertex 219.5 22.5 24.5
    endloop
  endfacet
  facet normal -0 0 1
    outer loop
      vertex 210.5 13.5 24.5
      vertex 254 0 24.5
      vertex 219.5 13.5 24.5
    endloop
  endfacet
  facet normal 0 0 1
    outer loop
      vertex 44.5 22.5 24.5
      vertex 210.5 22.5 24.5
      vertex 44.5 53.5 24.5
    endloop
  endfacet
  facet normal 0 0 1
    outer loop
      vertex 210.5 22.5 24.5
      vertex 44.5 22.5 24.5
      vertex 210.5 13.5 24.5
    endloop
  endfacet
  facet normal 0 0 1
    outer loop
      vertex 44.5 13.5 24.5
      vertex 210.5 13.5 24.5
      vertex 44.5 22.5 24.5
    endloop
  endfacet
  facet normal 0 0 1
    outer loop
      vertex 210.5 13.5 24.5
      vertex 44.5 13.5 24.5
      vertex 254 0 24.5
    endloop
  endfacet
  facet normal 0 0 1
    outer loop
      vertex 0 0 24.5
      vertex 44.5 13.5 24.5
      vertex 35.5 13.5 24.5
    endloop
  endfacet
  facet normal 0 0 1
    outer loop
      vertex 44.5 13.5 24.5
      vertex 0 0 24.5
      vertex 254 0 24.5
    endloop
  endfacet
  facet normal 0 0 1
    outer loop
      vertex 35.5 22.5 24.5
      vertex 0 0 24.5
      vertex 35.5 13.5 24.5
    endloop
  endfacet
  facet normal 1 -0 0
    outer loop
      vertex 254 0 24.5
      vertex 254 76.2 19.42
      vertex 254 76.2 24.5
    endloop
  endfacet
  facet normal 1 0 0
    outer loop
      vertex 254 76.2 19.42
      vertex 254 0 24.5
      vertex 254 0 19.42
    endloop
  endfacet
  facet normal 0 -1 0
    outer loop
      vertex 0 0 19.42
      vertex 254 0 24.5
      vertex 0 0 24.5
    endloop
  endfacet
  facet normal 0 -1 -0
    outer loop
      vertex 254 0 24.5
      vertex 0 0 19.42
      vertex 254 0 19.42
    endloop
  endfacet
  facet normal 0 1 -0
    outer loop
      vertex 254 76.2 19.42
      vertex 0 76.2 24.5
      vertex 254 76.2 24.5
    endloop
  endfacet
  facet normal 0 1 0
    outer loop
      vertex 0 76.2 24.5
      vertex 254 76.2 19.42
      vertex 0 76.2 19.42
    endloop
  endfacet
endsolid OpenSCAD_Model
