solid OpenSCAD_Model
  facet normal 0 0 -1
    outer loop
      vertex 29.84 27.3 0
      vertex 50.16 52.7 0
      vertex 50.16 27.3 0
    endloop
  endfacet
  facet normal -0 0 -1
    outer loop
      vertex 50.16 52.7 0
      vertex 29.84 27.3 0
      vertex 29.84 52.7 0
    endloop
  endfacet
  facet normal -1 0 0
    outer loop
      vertex 29.84 52.7 0
      vertex 29.84 42.3 20
      vertex 29.84 52.7 42.68
    endloop
  endfacet
  facet normal -1 0 0
    outer loop
      vertex 29.84 52.7 0
      vertex 29.84 37.7 20
      vertex 29.84 42.3 20
    endloop
  endfacet
  facet normal -1 0 0
    outer loop
      vertex 29.84 27.3 42.68
      vertex 29.84 37.7 20
      vertex 29.84 27.3 0
    endloop
  endfacet
  facet normal -1 0 0
    outer loop
      vertex 29.84 27.3 0
      vertex 29.84 37.7 20
      vertex 29.84 52.7 0
    endloop
  endfacet
  facet normal -1 0 0
    outer loop
      vertex 29.84 42.3 30
      vertex 29.84 52.7 42.68
      vertex 29.84 42.3 20
    endloop
  endfacet
  facet normal -1 0 0
    outer loop
      vertex 29.84 37.7 30
      vertex 29.84 52.7 42.68
      vertex 29.84 42.3 30
    endloop
  endfacet
  facet normal -1 0 0
    outer loop
      vertex 29.84 37.7 30
      vertex 29.84 27.3 42.68
      vertex 29.84 52.7 42.68
    endloop
  endfacet
  facet normal -1 0 0
    outer loop
      vertex 29.84 37.7 20
      vertex 29.84 27.3 42.68
      vertex 29.84 37.7 30
    endloop
  endfacet
  facet normal -0 0 1
    outer loop
      vertex 32.84 49.7 48.26
      vertex 47.16 30.3 48.26
      vertex 47.16 49.7 48.26
    endloop
  endfacet
  facet normal 0 0 1
    outer loop
      vertex 47.16 30.3 48.26
      vertex 32.84 49.7 48.26
      vertex 32.84 30.3 48.26
    endloop
  endfacet
  facet normal 0 1 -0
    outer loop
      vertex 50.16 52.7 0
      vertex 29.84 52.7 42.68
      vertex 50.16 52.7 42.68
    endloop
  endfacet
  facet normal 0 1 0
    outer loop
      vertex 29.84 52.7 42.68
      vertex 50.16 52.7 0
      vertex 29.84 52.7 0
    endloop
  endfacet
  facet normal 1 0 0
    outer loop
      vertex 50.16 42.3 20
      vertex 50.16 52.7 42.68
      vertex 50.16 42.3 30
    endloop
  endfacet
  facet normal 1 0 0
    outer loop
      vertex 50.16 52.7 42.68
      vertex 50.16 37.7 30
      vertex 50.16 42.3 30
    endloop
  endfacet
  facet normal 1 0 0
    outer loop
      vertex 50.16 37.7 30
      vertex 50.16 27.3 42.68
      vertex 50.16 37.7 20
    endloop
  endfacet
  facet normal 1 -0 0
    outer loop
      vertex 50.16 27.3 42.68
      vertex 50.16 37.7 30
      vertex 50.16 52.7 42.68
    endloop
  endfacet
  facet normal 1 0 0
    outer loop
      vertex 50.16 52.7 42.68
      vertex 50.16 42.3 20
      vertex 50.16 52.7 0
    endloop
  endfacet
  facet normal 1 -0 0
    outer loop
      vertex 50.16 37.7 20
      vertex 50.16 52.7 0
      vertex 50.16 42.3 20
    endloop
  endfacet
  facet normal 1 0 0
    outer loop
      vertex 50.16 37.7 20
      vertex 50.16 27.3 0
      vertex 50.16 52.7 0
    endloop
  endfacet
  facet normal 1 0 0
    outer loop
      vertex 50.16 27.3 0
      vertex 50.16 37.7 20
      vertex 50.16 27.3 42.68
    endloop
  endfacet
  facet normal 0 -1 0
    outer loop
      vertex 29.84 27.3 0
      vertex 50.16 27.3 42.68
      vertex 29.84 27.3 42.68
    endloop
  endfacet
  facet normal 0 -1 -0
    outer loop
      vertex 50.16 27.3 42.68
      vertex 29.84 27.3 0
      vertex 50.16 27.3 0
    endloop
  endfacet
  facet normal -1 0 0
    outer loop
      vertex 32.84 30.3 47.76
      vertex 32.84 49.7 48.26
      vertex 32.84 49.7 47.76
    endloop
  endfacet
  facet normal -1 -0 0
    outer loop
      vertex 32.84 49.7 48.26
      vertex 32.84 30.3 47.76
      vertex 32.84 30.3 48.26
    endloop
  endfacet
  facet normal 0 0 -1
    outer loop
      vertex 254 0 42.68
      vertex 225.16 27.3 42.68
      vertex 254 80 42.68
    endloop
  endfacet
  facet normal 0 0 -1
    outer loop
      vertex 254 0 42.68
      vertex 204.84 27.3 42.68
      vertex 225.16 27.3 42.68
    endloop
  endfacet
  facet normal 0 0 -1
    outer loop
      vertex 204.84 27.3 42.68
      vertex 50.16 27.3 42.68
      vertex 204.84 52.7 42.68
    endloop
  endfacet
  facet normal 0 0 -1
    outer loop
      vertex 254 0 42.68
      vertex 50.16 27.3 42.68
      vertex 204.84 27.3 42.68
    endloop
  endfacet
  facet normal 0 0 -1
    outer loop
      vertex 0 0 42.68
      vertex 50.16 27.3 42.68
      vertex 254 0 42.68
    endloop
  endfacet
  facet normal -0 0 -1
    outer loop
      vertex 29.84 27.3 42.68
      vertex 0 0 42.68
      vertex 29.84 52.7 42.68
    endloop
  endfacet
  facet normal -0 0 -1
    outer loop
      vertex 50.16 27.3 42.68
      vertex 0 0 42.68
      vertex 29.84 27.3 42.68
    endloop
  endfacet
  facet normal 0 0 -1
    outer loop
      vertex 225.16 52.7 42.68
      vertex 254 80 42.68
      vertex 225.16 27.3 42.68
    endloop
  endfacet
  facet normal 0 0 -1
    outer loop
      vertex 204.84 52.7 42.68
      vertex 254 80 42.68
      vertex 225.16 52.7 42.68
    endloop
  endfacet
  facet normal 0 0 -1
    outer loop
      vertex 50.16 52.7 42.68
      vertex 204.84 52.7 42.68
      vertex 50.16 27.3 42.68
    endloop
  endfacet
  facet normal 0 0 -1
    outer loop
      vertex 204.84 52.7 42.68
      vertex 50.16 52.7 42.68
      vertex 254 80 42.68
    endloop
  endfacet
  facet normal 0 0 -1
    outer loop
      vertex 0 80 42.68
      vertex 50.16 52.7 42.68
      vertex 29.84 52.7 42.68
    endloop
  endfacet
  facet normal 0 0 -1
    outer loop
      vertex 50.16 52.7 42.68
      vertex 0 80 42.68
      vertex 254 80 42.68
    endloop
  endfacet
  facet normal 0 0 -1
    outer loop
      vertex 0 80 42.68
      vertex 29.84 52.7 42.68
      vertex 0 0 42.68
    endloop
  endfacet
  facet normal 1 -0 0
    outer loop
      vertex 47.16 30.3 48.26
      vertex 47.16 49.7 47.76
      vertex 47.16 49.7 48.26
    endloop
  endfacet
  facet normal 1 0 0
    outer loop
      vertex 47.16 49.7 47.76
      vertex 47.16 30.3 48.26
      vertex 47.16 30.3 47.76
    endloop
  endfacet
  facet normal 0 -1 0
    outer loop
      vertex 32.84 30.3 47.76
      vertex 47.16 30.3 48.26
      vertex 32.84 30.3 48.26
    endloop
  endfacet
  facet normal 0 -1 -0
    outer loop
      vertex 47.16 30.3 48.26
      vertex 32.84 30.3 47.76
      vertex 47.16 30.3 47.76
    endloop
  endfacet
  facet normal 0 1 -0
    outer loop
      vertex 47.16 49.7 47.76
      vertex 32.84 49.7 48.26
      vertex 47.16 49.7 48.26
    endloop
  endfacet
  facet normal 0 1 0
    outer loop
      vertex 32.84 49.7 48.26
      vertex 47.16 49.7 47.76
      vertex 32.84 49.7 47.76
    endloop
  endfacet
  facet normal 0 0 -1
    outer loop
      vertex 204.84 27.3 0
      vertex 225.16 52.7 0
      vertex 225.16 27.3 0
    endloop
  endfacet
  facet normal -0 0 -1
    outer loop
      vertex 225.16 52.7 0
      vertex 204.84 27.3 0
      vertex 204.84 52.7 0
    endloop
  endfacet
  facet normal -1 0 0
    outer loop
      vertex 204.84 52.7 0
      vertex 204.84 42.3 20
      vertex 204.84 52.7 42.68
    endloop
  endfacet
  facet normal -1 0 0
    outer loop
      vertex 204.84 52.7 0
      vertex 204.84 37.7 20
      vertex 204.84 42.3 20
    endloop
  endfacet
  facet normal -1 0 0
    outer loop
      vertex 204.84 27.3 42.68
      vertex 204.84 37.7 20
      vertex 204.84 27.3 0
    endloop
  endfacet
  facet normal -1 0 0
    outer loop
      vertex 204.84 27.3 0
      vertex 204.84 37.7 20
      vertex 204.84 52.7 0
    endloop
  endfacet
  facet normal -1 0 0
    outer loop
      vertex 204.84 42.3 30
      vertex 204.84 52.7 42.68
      vertex 204.84 42.3 20
    endloop
  endfacet
  facet normal -1 0 0
    outer loop
      vertex 204.84 37.7 30
      vertex 204.84 52.7 42.68
      vertex 204.84 42.3 30
    endloop
  endfacet
  facet normal -1 0 0
    outer loop
      vertex 204.84 37.7 30
      vertex 204.84 27.3 42.68
      vertex 204.84 52.7 42.68
    endloop
  endfacet
  facet normal -1 0 0
    outer loop
      vertex 204.84 37.7 20
      vertex 204.84 27.3 42.68
      vertex 204.84 37.7 30
    endloop
  endfacet
  facet normal -0 0 1
    outer loop
      vertex 207.84 49.7 48.26
      vertex 222.16 30.3 48.26
      vertex 222.16 49.7 48.26
    endloop
  endfacet
  facet normal 0 0 1
    outer loop
      vertex 222.16 30.3 48.26
      vertex 207.84 49.7 48.26
      vertex 207.84 30.3 48.26
    endloop
  endfacet
  facet normal 0 1 -0
    outer loop
      vertex 225.16 52.7 0
      vertex 204.84 52.7 42.68
      vertex 225.16 52.7 42.68
    endloop
  endfacet
  facet normal 0 1 0
    outer loop
      vertex 204.84 52.7 42.68
      vertex 225.16 52.7 0
      vertex 204.84 52.7 0
    endloop
  endfacet
  facet normal 1 0 0
    outer loop
      vertex 225.16 42.3 20
      vertex 225.16 52.7 42.68
      vertex 225.16 42.3 30
    endloop
  endfacet
  facet normal 1 0 0
    outer loop
      vertex 225.16 52.7 42.68
      vertex 225.16 37.7 30
      vertex 225.16 42.3 30
    endloop
  endfacet
  facet normal 1 0 0
    outer loop
      vertex 225.16 37.7 30
      vertex 225.16 27.3 42.68
      vertex 225.16 37.7 20
    endloop
  endfacet
  facet normal 1 -0 0
    outer loop
      vertex 225.16 27.3 42.68
      vertex 225.16 37.7 30
      vertex 225.16 52.7 42.68
    endloop
  endfacet
  facet normal 1 0 0
    outer loop
      vertex 225.16 52.7 42.68
      vertex 225.16 42.3 20
      vertex 225.16 52.7 0
    endloop
  endfacet
  facet normal 1 -0 0
    outer loop
      vertex 225.16 37.7 20
      vertex 225.16 52.7 0
      vertex 225.16 42.3 20
    endloop
  endfacet
  facet normal 1 0 0
    outer loop
      vertex 225.16 37.7 20
      vertex 225.16 27.3 0
      vertex 225.16 52.7 0
    endloop
  endfacet
  facet normal 1 0 0
    outer loop
      vertex 225.16 27.3 0
      vertex 225.16 37.7 20
      vertex 225.16 27.3 42.68
    endloop
  endfacet
  facet normal 0 -1 0
    outer loop
      vertex 204.84 27.3 0
      vertex 225.16 27.3 42.68
      vertex 204.84 27.3 42.68
    endloop
  endfacet
  facet normal 0 -1 -0
    outer loop
      vertex 225.16 27.3 42.68
      vertex 204.84 27.3 0
      vertex 225.16 27.3 0
    endloop
  endfacet
  facet normal -1 0 0
    outer loop
      vertex 207.84 30.3 47.76
      vertex 207.84 49.7 48.26
      vertex 207.84 49.7 47.76
    endloop
  endfacet
  facet normal -1 -0 0
    outer loop
      vertex 207.84 49.7 48.26
      vertex 207.84 30.3 47.76
      vertex 207.84 30.3 48.26
    endloop
  endfacet
  facet normal 1 -0 0
    outer loop
      vertex 222.16 30.3 48.26
      vertex 222.16 49.7 47.76
      vertex 222.16 49.7 48.26
    endloop
  endfacet
  facet normal 1 0 0
    outer loop
      vertex 222.16 49.7 47.76
      vertex 222.16 30.3 48.26
      vertex 222.16 30.3 47.76
    endloop
  endfacet
  facet normal 0 -1 0
    outer loop
      vertex 207.84 30.3 47.76
      vertex 222.16 30.3 48.26
      vertex 207.84 30.3 48.26
    endloop
  endfacet
  facet normal 0 -1 -0
    outer loop
      vertex 222.16 30.3 48.26
      vertex 207.84 30.3 47.76
      vertex 222.16 30.3 47.76
    endloop
  endfacet
  facet normal 0 1 -0
    outer loop
      vertex 222.16 49.7 47.76
      vertex 207.84 49.7 48.26
      vertex 222.16 49.7 48.26
    endloop
  endfacet
  facet normal 0 1 0
    outer loop
      vertex 207.84 49.7 48.26
      vertex 222.16 49.7 47.76
      vertex 207.84 49.7 47.76
    endloop
  endfacet
  facet normal -1 0 0
    outer loop
      vertex 0 0 42.68
      vertex 0 80 47.76
      vertex 0 80 42.68
    endloop
  endfacet
  facet normal -1 -0 0
    outer loop
      vertex 0 80 47.76
      vertex 0 0 42.68
      vertex 0 0 47.76
    endloop
  endfacet
  facet normal 0 0 1
    outer loop
      vertex 254 80 47.76
      vertex 222.16 49.7 47.76
      vertex 254 0 47.76
    endloop
  endfacet
  facet normal 0 0 1
    outer loop
      vertex 254 80 47.76
      vertex 207.84 49.7 47.76
      vertex 222.16 49.7 47.76
    endloop
  endfacet
  facet normal 0 0 1
    outer loop
      vertex 207.84 49.7 47.76
      vertex 47.16 49.7 47.76
      vertex 207.84 30.3 47.76
    endloop
  endfacet
  facet normal 0 0 1
    outer loop
      vertex 254 80 47.76
      vertex 47.16 49.7 47.76
      vertex 207.84 49.7 47.76
    endloop
  endfacet
  facet normal -0 0 1
    outer loop
      vertex 0 80 47.76
      vertex 47.16 49.7 47.76
      vertex 254 80 47.76
    endloop
  endfacet
  facet normal 0 0 1
    outer loop
      vertex 32.84 49.7 47.76
      vertex 0 80 47.76
      vertex 32.84 30.3 47.76
    endloop
  endfacet
  facet normal 0 0 1
    outer loop
      vertex 47.16 49.7 47.76
      vertex 0 80 47.76
      vertex 32.84 49.7 47.76
    endloop
  endfacet
  facet normal -0 0 1
    outer loop
      vertex 222.16 30.3 47.76
      vertex 254 0 47.76
      vertex 222.16 49.7 47.76
    endloop
  endfacet
  facet normal -0 0 1
    outer loop
      vertex 207.84 30.3 47.76
      vertex 254 0 47.76
      vertex 222.16 30.3 47.76
    endloop
  endfacet
  facet normal 0 0 1
    outer loop
      vertex 47.16 30.3 47.76
      vertex 207.84 30.3 47.76
      vertex 47.16 49.7 47.76
    endloop
  endfacet
  facet normal 0 0 1
    outer loop
      vertex 207.84 30.3 47.76
      vertex 47.16 30.3 47.76
      vertex 254 0 47.76
    endloop
  endfacet
  facet normal 0 0 1
    outer loop
      vertex 0 0 47.76
      vertex 47.16 30.3 47.76
      vertex 32.84 30.3 47.76
    endloop
  endfacet
  facet normal 0 0 1
    outer loop
      vertex 47.16 30.3 47.76
      vertex 0 0 47.76
      vertex 254 0 47.76
    endloop
  endfacet
  facet normal 0 0 1
    outer loop
      vertex 0 0 47.76
      vertex 32.84 30.3 47.76
      vertex 0 80 47.76
    endloop
  endfacet
  facet normal 1 -0 0
    outer loop
      vertex 254 0 47.76
      vertex 254 80 42.68
      vertex 254 80 47.76
    endloop
  endfacet
  facet normal 1 0 0
    outer loop
      vertex 254 80 42.68
      vertex 254 0 47.76
      vertex 254 0 42.68
    endloop
  endfacet
  facet normal 0 1 -0
    outer loop
      vertex 254 80 42.68
      vertex 0 80 47.76
      vertex 254 80 47.76
    endloop
  endfacet
  facet normal 0 1 0
    outer loop
      vertex 0 80 47.76
      vertex 254 80 42.68
      vertex 0 80 42.68
    endloop
  endfacet
  facet normal 0 -1 0
    outer loop
      vertex 0 0 42.68
      vertex 254 0 47.76
      vertex 0 0 47.76
    endloop
  endfacet
  facet normal 0 -1 -0
    outer loop
      vertex 254 0 47.76
      vertex 0 0 42.68
      vertex 254 0 42.68
    endloop
  endfacet
  facet normal -1 0 0
    outer loop
      vertex 19.84 37.7 20
      vertex 19.84 42.3 30
      vertex 19.84 42.3 20
    endloop
  endfacet
  facet normal -1 -0 0
    outer loop
      vertex 19.84 42.3 30
      vertex 19.84 37.7 20
      vertex 19.84 37.7 30
    endloop
  endfacet
  facet normal 0 -1 0
    outer loop
      vertex 19.84 37.7 20
      vertex 29.84 37.7 30
      vertex 19.84 37.7 30
    endloop
  endfacet
  facet normal 0 -1 -0
    outer loop
      vertex 29.84 37.7 30
      vertex 19.84 37.7 20
      vertex 29.84 37.7 20
    endloop
  endfacet
  facet normal 0 -1 0
    outer loop
      vertex 225.16 37.7 20
      vertex 235.16 37.7 30
      vertex 225.16 37.7 30
    endloop
  endfacet
  facet normal 0 -1 -0
    outer loop
      vertex 235.16 37.7 30
      vertex 225.16 37.7 20
      vertex 235.16 37.7 20
    endloop
  endfacet
  facet normal 0 -1 0
    outer loop
      vertex 50.16 37.7 20
      vertex 204.84 37.7 30
      vertex 50.16 37.7 30
    endloop
  endfacet
  facet normal 0 -1 -0
    outer loop
      vertex 204.84 37.7 30
      vertex 50.16 37.7 20
      vertex 204.84 37.7 20
    endloop
  endfacet
  facet normal 1 -0 0
    outer loop
      vertex 235.16 37.7 30
      vertex 235.16 42.3 20
      vertex 235.16 42.3 30
    endloop
  endfacet
  facet normal 1 0 0
    outer loop
      vertex 235.16 42.3 20
      vertex 235.16 37.7 30
      vertex 235.16 37.7 20
    endloop
  endfacet
  facet normal -0 0 1
    outer loop
      vertex 225.16 42.3 30
      vertex 235.16 37.7 30
      vertex 235.16 42.3 30
    endloop
  endfacet
  facet normal 0 0 1
    outer loop
      vertex 235.16 37.7 30
      vertex 225.16 42.3 30
      vertex 225.16 37.7 30
    endloop
  endfacet
  facet normal -0 0 1
    outer loop
      vertex 19.84 42.3 30
      vertex 29.84 37.7 30
      vertex 29.84 42.3 30
    endloop
  endfacet
  facet normal 0 0 1
    outer loop
      vertex 29.84 37.7 30
      vertex 19.84 42.3 30
      vertex 19.84 37.7 30
    endloop
  endfacet
  facet normal -0 0 1
    outer loop
      vertex 50.16 42.3 30
      vertex 204.84 37.7 30
      vertex 204.84 42.3 30
    endloop
  endfacet
  facet normal 0 0 1
    outer loop
      vertex 204.84 37.7 30
      vertex 50.16 42.3 30
      vertex 50.16 37.7 30
    endloop
  endfacet
  facet normal 0 1 -0
    outer loop
      vertex 29.84 42.3 20
      vertex 19.84 42.3 30
      vertex 29.84 42.3 30
    endloop
  endfacet
  facet normal 0 1 0
    outer loop
      vertex 19.84 42.3 30
      vertex 29.84 42.3 20
      vertex 19.84 42.3 20
    endloop
  endfacet
  facet normal 0 1 -0
    outer loop
      vertex 235.16 42.3 20
      vertex 225.16 42.3 30
      vertex 235.16 42.3 30
    endloop
  endfacet
  facet normal 0 1 0
    outer loop
      vertex 225.16 42.3 30
      vertex 235.16 42.3 20
      vertex 225.16 42.3 20
    endloop
  endfacet
  facet normal 0 1 -0
    outer loop
      vertex 204.84 42.3 20
      vertex 50.16 42.3 30
      vertex 204.84 42.3 30
    endloop
  endfacet
  facet normal 0 1 0
    outer loop
      vertex 50.16 42.3 30
      vertex 204.84 42.3 20
      vertex 50.16 42.3 20
    endloop
  endfacet
  facet normal 0 0 -1
    outer loop
      vertex 19.84 37.7 20
      vertex 29.84 42.3 20
      vertex 29.84 37.7 20
    endloop
  endfacet
  facet normal -0 0 -1
    outer loop
      vertex 29.84 42.3 20
      vertex 19.84 37.7 20
      vertex 19.84 42.3 20
    endloop
  endfacet
  facet normal 0 0 -1
    outer loop
      vertex 225.16 37.7 20
      vertex 235.16 42.3 20
      vertex 235.16 37.7 20
    endloop
  endfacet
  facet normal -0 0 -1
    outer loop
      vertex 235.16 42.3 20
      vertex 225.16 37.7 20
      vertex 225.16 42.3 20
    endloop
  endfacet
  facet normal 0 0 -1
    outer loop
      vertex 50.16 37.7 20
      vertex 204.84 42.3 20
      vertex 204.84 37.7 20
    endloop
  endfacet
  facet normal -0 0 -1
    outer loop
      vertex 204.84 42.3 20
      vertex 50.16 37.7 20
      vertex 50.16 42.3 20
    endloop
  endfacet
endsolid OpenSCAD_Model
