solid OpenSCAD_Model
  facet normal 0 0 -1
    outer loop
      vertex 0 0 0
      vertex 3 6 0
      vertex 3 0 0
    endloop
  endfacet
  facet normal -0 0 -1
    outer loop
      vertex 3 6 0
      vertex 0 0 0
      vertex 0 6 0
    endloop
  endfacet
  facet normal -1 0 0
    outer loop
      vertex 0 1.73 44
      vertex 0 4.27 74.92
      vertex 0 4.27 44
    endloop
  endfacet
  facet normal -1 -0 0
    outer loop
      vertex 0 4.27 74.92
      vertex 0 1.73 44
      vertex 0 1.73 74.92
    endloop
  endfacet
  facet normal -1 0 0
    outer loop
      vertex 0 1.73 9.08
      vertex 0 4.27 40
      vertex 0 4.27 9.08
    endloop
  endfacet
  facet normal -1 -0 0
    outer loop
      vertex 0 4.27 40
      vertex 0 1.73 9.08
      vertex 0 1.73 40
    endloop
  endfacet
  facet normal -1 0 0
    outer loop
      vertex 0 4.27 9.08
      vertex 0 6 0
      vertex 0 4.27 5.08
    endloop
  endfacet
  facet normal -1 0 0
    outer loop
      vertex 0 6 0
      vertex 0 1.73 5.08
      vertex 0 4.27 5.08
    endloop
  endfacet
  facet normal -1 0 0
    outer loop
      vertex 0 0 0
      vertex 0 1.73 9.08
      vertex 0 1.73 5.08
    endloop
  endfacet
  facet normal -1 -0 0
    outer loop
      vertex 0 1.73 9.08
      vertex 0 0 0
      vertex 0 1.73 40
    endloop
  endfacet
  facet normal -1 -0 0
    outer loop
      vertex 0 1.73 40
      vertex 0 0 0
      vertex 0 1.73 44
    endloop
  endfacet
  facet normal -1 0 0
    outer loop
      vertex 0 0 91.44
      vertex 0 1.73 44
      vertex 0 0 0
    endloop
  endfacet
  facet normal -1 0 0
    outer loop
      vertex 0 1.73 44
      vertex 0 0 91.44
      vertex 0 1.73 74.92
    endloop
  endfacet
  facet normal -1 0 0
    outer loop
      vertex 0 0 0
      vertex 0 1.73 5.08
      vertex 0 6 0
    endloop
  endfacet
  facet normal -1 0 0
    outer loop
      vertex 0 4.27 40
      vertex 0 6 0
      vertex 0 4.27 9.08
    endloop
  endfacet
  facet normal -1 0 0
    outer loop
      vertex 0 6 0
      vertex 0 4.27 40
      vertex 0 6 91.44
    endloop
  endfacet
  facet normal -1 0 0
    outer loop
      vertex 0 4.27 44
      vertex 0 6 91.44
      vertex 0 4.27 40
    endloop
  endfacet
  facet normal -1 0 0
    outer loop
      vertex 0 4.27 74.92
      vertex 0 6 91.44
      vertex 0 4.27 44
    endloop
  endfacet
  facet normal -1 0 0
    outer loop
      vertex 0 4.27 78.92
      vertex 0 6 91.44
      vertex 0 4.27 74.92
    endloop
  endfacet
  facet normal -1 0 0
    outer loop
      vertex 0 1.73 78.92
      vertex 0 6 91.44
      vertex 0 4.27 78.92
    endloop
  endfacet
  facet normal -1 0 0
    outer loop
      vertex 0 1.73 78.92
      vertex 0 0 91.44
      vertex 0 6 91.44
    endloop
  endfacet
  facet normal -1 0 0
    outer loop
      vertex 0 1.73 74.92
      vertex 0 0 91.44
      vertex 0 1.73 78.92
    endloop
  endfacet
  facet normal -0 0 1
    outer loop
      vertex 0 6 91.44
      vertex 3 0 91.44
      vertex 3 6 91.44
    endloop
  endfacet
  facet normal 0 0 1
    outer loop
      vertex 3 0 91.44
      vertex 0 6 91.44
      vertex 0 0 91.44
    endloop
  endfacet
  facet normal 0 1 -0
    outer loop
      vertex 3 6 0
      vertex 0 6 91.44
      vertex 3 6 91.44
    endloop
  endfacet
  facet normal 0 1 0
    outer loop
      vertex 0 6 91.44
      vertex 3 6 0
      vertex 0 6 0
    endloop
  endfacet
  facet normal 1 -0 0
    outer loop
      vertex 3 1.73 40
      vertex 3 4.27 9.08
      vertex 3 4.27 40
    endloop
  endfacet
  facet normal 1 0 0
    outer loop
      vertex 3 4.27 9.08
      vertex 3 1.73 40
      vertex 3 1.73 9.08
    endloop
  endfacet
  facet normal 1 -0 0
    outer loop
      vertex 3 1.73 74.92
      vertex 3 4.27 44
      vertex 3 4.27 74.92
    endloop
  endfacet
  facet normal 1 0 0
    outer loop
      vertex 3 4.27 44
      vertex 3 1.73 74.92
      vertex 3 1.73 44
    endloop
  endfacet
  facet normal 1 0 0
    outer loop
      vertex 3 4.27 74.92
      vertex 3 6 91.44
      vertex 3 4.27 78.92
    endloop
  endfacet
  facet normal 1 0 0
    outer loop
      vertex 3 6 91.44
      vertex 3 1.73 78.92
      vertex 3 4.27 78.92
    endloop
  endfacet
  facet normal 1 0 0
    outer loop
      vertex 3 0 91.44
      vertex 3 1.73 74.92
      vertex 3 1.73 78.92
    endloop
  endfacet
  facet normal 1 0 0
    outer loop
      vertex 3 1.73 74.92
      vertex 3 0 91.44
      vertex 3 1.73 44
    endloop
  endfacet
  facet normal 1 0 0
    outer loop
      vertex 3 1.73 44
      vertex 3 0 91.44
      vertex 3 1.73 40
    endloop
  endfacet
  facet normal 1 0 0
    outer loop
      vertex 3 1.73 40
      vertex 3 0 0
      vertex 3 1.73 9.08
    endloop
  endfacet
  facet normal 1 0 0
    outer loop
      vertex 3 1.73 40
      vertex 3 0 91.44
      vertex 3 0 0
    endloop
  endfacet
  facet normal 1 -0 0
    outer loop
      vertex 3 0 91.44
      vertex 3 1.73 78.92
      vertex 3 6 91.44
    endloop
  endfacet
  facet normal 1 0 0
    outer loop
      vertex 3 4.27 44
      vertex 3 6 91.44
      vertex 3 4.27 74.92
    endloop
  endfacet
  facet normal 1 0 0
    outer loop
      vertex 3 6 91.44
      vertex 3 4.27 44
      vertex 3 6 0
    endloop
  endfacet
  facet normal 1 -0 0
    outer loop
      vertex 3 4.27 40
      vertex 3 6 0
      vertex 3 4.27 44
    endloop
  endfacet
  facet normal 1 -0 0
    outer loop
      vertex 3 4.27 9.08
      vertex 3 6 0
      vertex 3 4.27 40
    endloop
  endfacet
  facet normal 1 -0 0
    outer loop
      vertex 3 4.27 5.08
      vertex 3 6 0
      vertex 3 4.27 9.08
    endloop
  endfacet
  facet normal 1 -0 0
    outer loop
      vertex 3 1.73 5.08
      vertex 3 6 0
      vertex 3 4.27 5.08
    endloop
  endfacet
  facet normal 1 0 0
    outer loop
      vertex 3 1.73 5.08
      vertex 3 0 0
      vertex 3 6 0
    endloop
  endfacet
  facet normal 1 0 0
    outer loop
      vertex 3 1.73 9.08
      vertex 3 0 0
      vertex 3 1.73 5.08
    endloop
  endfacet
  facet normal 0 -1 0
    outer loop
      vertex 0 0 0
      vertex 3 0 91.44
      vertex 0 0 91.44
    endloop
  endfacet
  facet normal 0 -1 -0
    outer loop
      vertex 3 0 91.44
      vertex 0 0 0
      vertex 3 0 0
    endloop
  endfacet
  facet normal 0 0 -1
    outer loop
      vertex 24.32 0 0
      vertex 27.32 6 0
      vertex 27.32 0 0
    endloop
  endfacet
  facet normal -0 0 -1
    outer loop
      vertex 27.32 6 0
      vertex 24.32 0 0
      vertex 24.32 6 0
    endloop
  endfacet
  facet normal -1 0 0
    outer loop
      vertex 24.32 1.73 44
      vertex 24.32 4.27 74.92
      vertex 24.32 4.27 44
    endloop
  endfacet
  facet normal -1 -0 0
    outer loop
      vertex 24.32 4.27 74.92
      vertex 24.32 1.73 44
      vertex 24.32 1.73 74.92
    endloop
  endfacet
  facet normal -1 0 0
    outer loop
      vertex 24.32 1.73 9.08
      vertex 24.32 4.27 40
      vertex 24.32 4.27 9.08
    endloop
  endfacet
  facet normal -1 -0 0
    outer loop
      vertex 24.32 4.27 40
      vertex 24.32 1.73 9.08
      vertex 24.32 1.73 40
    endloop
  endfacet
  facet normal -1 0 0
    outer loop
      vertex 24.32 4.27 9.08
      vertex 24.32 6 0
      vertex 24.32 4.27 5.08
    endloop
  endfacet
  facet normal -1 0 0
    outer loop
      vertex 24.32 6 0
      vertex 24.32 1.73 5.08
      vertex 24.32 4.27 5.08
    endloop
  endfacet
  facet normal -1 0 0
    outer loop
      vertex 24.32 0 0
      vertex 24.32 1.73 9.08
      vertex 24.32 1.73 5.08
    endloop
  endfacet
  facet normal -1 -0 0
    outer loop
      vertex 24.32 1.73 9.08
      vertex 24.32 0 0
      vertex 24.32 1.73 40
    endloop
  endfacet
  facet normal -1 -0 0
    outer loop
      vertex 24.32 1.73 40
      vertex 24.32 0 0
      vertex 24.32 1.73 44
    endloop
  endfacet
  facet normal -1 0 0
    outer loop
      vertex 24.32 0 91.44
      vertex 24.32 1.73 44
      vertex 24.32 0 0
    endloop
  endfacet
  facet normal -1 0 0
    outer loop
      vertex 24.32 1.73 44
      vertex 24.32 0 91.44
      vertex 24.32 1.73 74.92
    endloop
  endfacet
  facet normal -1 0 0
    outer loop
      vertex 24.32 0 0
      vertex 24.32 1.73 5.08
      vertex 24.32 6 0
    endloop
  endfacet
  facet normal -1 0 0
    outer loop
      vertex 24.32 4.27 40
      vertex 24.32 6 0
      vertex 24.32 4.27 9.08
    endloop
  endfacet
  facet normal -1 0 0
    outer loop
      vertex 24.32 6 0
      vertex 24.32 4.27 40
      vertex 24.32 6 91.44
    endloop
  endfacet
  facet normal -1 0 0
    outer loop
      vertex 24.32 4.27 44
      vertex 24.32 6 91.44
      vertex 24.32 4.27 40
    endloop
  endfacet
  facet normal -1 0 0
    outer loop
      vertex 24.32 4.27 74.92
      vertex 24.32 6 91.44
      vertex 24.32 4.27 44
    endloop
  endfacet
  facet normal -1 0 0
    outer loop
      vertex 24.32 4.27 78.92
      vertex 24.32 6 91.44
      vertex 24.32 4.27 74.92
    endloop
  endfacet
  facet normal -1 0 0
    outer loop
      vertex 24.32 1.73 78.92
      vertex 24.32 6 91.44
      vertex 24.32 4.27 78.92
    endloop
  endfacet
  facet normal -1 0 0
    outer loop
      vertex 24.32 1.73 78.92
      vertex 24.32 0 91.44
      vertex 24.32 6 91.44
    endloop
  endfacet
  facet normal -1 0 0
    outer loop
      vertex 24.32 1.73 74.92
      vertex 24.32 0 91.44
      vertex 24.32 1.73 78.92
    endloop
  endfacet
  facet normal -0 0 1
    outer loop
      vertex 24.32 6 91.44
      vertex 27.32 0 91.44
      vertex 27.32 6 91.44
    endloop
  endfacet
  facet normal 0 0 1
    outer loop
      vertex 27.32 0 91.44
      vertex 24.32 6 91.44
      vertex 24.32 0 91.44
    endloop
  endfacet
  facet normal 0 1 -0
    outer loop
      vertex 27.32 6 0
      vertex 24.32 6 91.44
      vertex 27.32 6 91.44
    endloop
  endfacet
  facet normal 0 1 0
    outer loop
      vertex 24.32 6 91.44
      vertex 27.32 6 0
      vertex 24.32 6 0
    endloop
  endfacet
  facet normal 1 -0 0
    outer loop
      vertex 27.32 1.73 40
      vertex 27.32 4.27 9.08
      vertex 27.32 4.27 40
    endloop
  endfacet
  facet normal 1 0 0
    outer loop
      vertex 27.32 4.27 9.08
      vertex 27.32 1.73 40
      vertex 27.32 1.73 9.08
    endloop
  endfacet
  facet normal 1 -0 0
    outer loop
      vertex 27.32 1.73 74.92
      vertex 27.32 4.27 44
      vertex 27.32 4.27 74.92
    endloop
  endfacet
  facet normal 1 0 0
    outer loop
      vertex 27.32 4.27 44
      vertex 27.32 1.73 74.92
      vertex 27.32 1.73 44
    endloop
  endfacet
  facet normal 1 0 0
    outer loop
      vertex 27.32 4.27 74.92
      vertex 27.32 6 91.44
      vertex 27.32 4.27 78.92
    endloop
  endfacet
  facet normal 1 0 0
    outer loop
      vertex 27.32 6 91.44
      vertex 27.32 1.73 78.92
      vertex 27.32 4.27 78.92
    endloop
  endfacet
  facet normal 1 0 0
    outer loop
      vertex 27.32 0 91.44
      vertex 27.32 1.73 74.92
      vertex 27.32 1.73 78.92
    endloop
  endfacet
  facet normal 1 0 0
    outer loop
      vertex 27.32 1.73 74.92
      vertex 27.32 0 91.44
      vertex 27.32 1.73 44
    endloop
  endfacet
  facet normal 1 0 0
    outer loop
      vertex 27.32 1.73 44
      vertex 27.32 0 91.44
      vertex 27.32 1.73 40
    endloop
  endfacet
  facet normal 1 0 0
    outer loop
      vertex 27.32 1.73 40
      vertex 27.32 0 0
      vertex 27.32 1.73 9.08
    endloop
  endfacet
  facet normal 1 0 0
    outer loop
      vertex 27.32 1.73 40
      vertex 27.32 0 91.44
      vertex 27.32 0 0
    endloop
  endfacet
  facet normal 1 -0 0
    outer loop
      vertex 27.32 0 91.44
      vertex 27.32 1.73 78.92
      vertex 27.32 6 91.44
    endloop
  endfacet
  facet normal 1 0 0
    outer loop
      vertex 27.32 4.27 44
      vertex 27.32 6 91.44
      vertex 27.32 4.27 74.92
    endloop
  endfacet
  facet normal 1 0 0
    outer loop
      vertex 27.32 6 91.44
      vertex 27.32 4.27 44
      vertex 27.32 6 0
    endloop
  endfacet
  facet normal 1 -0 0
    outer loop
      vertex 27.32 4.27 40
      vertex 27.32 6 0
      vertex 27.32 4.27 44
    endloop
  endfacet
  facet normal 1 -0 0
    outer loop
      vertex 27.32 4.27 9.08
      vertex 27.32 6 0
      vertex 27.32 4.27 40
    endloop
  endfacet
  facet normal 1 -0 0
    outer loop
      vertex 27.32 4.27 5.08
      vertex 27.32 6 0
      vertex 27.32 4.27 9.08
    endloop
  endfacet
  facet normal 1 -0 0
    outer loop
      vertex 27.32 1.73 5.08
      vertex 27.32 6 0
      vertex 27.32 4.27 5.08
    endloop
  endfacet
  facet normal 1 0 0
    outer loop
      vertex 27.32 1.73 5.08
      vertex 27.32 0 0
      vertex 27.32 6 0
    endloop
  endfacet
  facet normal 1 0 0
    outer loop
      vertex 27.32 1.73 9.08
      vertex 27.32 0 0
      vertex 27.32 1.73 5.08
    endloop
  endfacet
  facet normal 0 -1 0
    outer loop
      vertex 24.32 0 0
      vertex 27.32 0 91.44
      vertex 24.32 0 91.44
    endloop
  endfacet
  facet normal 0 -1 -0
    outer loop
      vertex 27.32 0 91.44
      vertex 24.32 0 0
      vertex 27.32 0 0
    endloop
  endfacet
  facet normal 0 0 -1
    outer loop
      vertex 0 127.92 0
      vertex 3 133.92 0
      vertex 3 127.92 0
    endloop
  endfacet
  facet normal -0 0 -1
    outer loop
      vertex 3 133.92 0
      vertex 0 127.92 0
      vertex 0 133.92 0
    endloop
  endfacet
  facet normal -1 0 0
    outer loop
      vertex 0 129.65 44
      vertex 0 132.19 74.92
      vertex 0 132.19 44
    endloop
  endfacet
  facet normal -1 -0 0
    outer loop
      vertex 0 132.19 74.92
      vertex 0 129.65 44
      vertex 0 129.65 74.92
    endloop
  endfacet
  facet normal -1 0 0
    outer loop
      vertex 0 129.65 9.08
      vertex 0 132.19 40
      vertex 0 132.19 9.08
    endloop
  endfacet
  facet normal -1 -0 0
    outer loop
      vertex 0 132.19 40
      vertex 0 129.65 9.08
      vertex 0 129.65 40
    endloop
  endfacet
  facet normal -1 0 0
    outer loop
      vertex 0 132.19 9.08
      vertex 0 133.92 0
      vertex 0 132.19 5.08
    endloop
  endfacet
  facet normal -1 0 0
    outer loop
      vertex 0 133.92 0
      vertex 0 129.65 5.08
      vertex 0 132.19 5.08
    endloop
  endfacet
  facet normal -1 0 0
    outer loop
      vertex 0 127.92 0
      vertex 0 129.65 9.08
      vertex 0 129.65 5.08
    endloop
  endfacet
  facet normal -1 -0 0
    outer loop
      vertex 0 129.65 9.08
      vertex 0 127.92 0
      vertex 0 129.65 40
    endloop
  endfacet
  facet normal -1 -0 0
    outer loop
      vertex 0 129.65 40
      vertex 0 127.92 0
      vertex 0 129.65 44
    endloop
  endfacet
  facet normal -1 0 0
    outer loop
      vertex 0 127.92 91.44
      vertex 0 129.65 44
      vertex 0 127.92 0
    endloop
  endfacet
  facet normal -1 0 0
    outer loop
      vertex 0 129.65 44
      vertex 0 127.92 91.44
      vertex 0 129.65 74.92
    endloop
  endfacet
  facet normal -1 0 0
    outer loop
      vertex 0 127.92 0
      vertex 0 129.65 5.08
      vertex 0 133.92 0
    endloop
  endfacet
  facet normal -1 0 0
    outer loop
      vertex 0 132.19 40
      vertex 0 133.92 0
      vertex 0 132.19 9.08
    endloop
  endfacet
  facet normal -1 0 0
    outer loop
      vertex 0 133.92 0
      vertex 0 132.19 40
      vertex 0 133.92 91.44
    endloop
  endfacet
  facet normal -1 0 0
    outer loop
      vertex 0 132.19 44
      vertex 0 133.92 91.44
      vertex 0 132.19 40
    endloop
  endfacet
  facet normal -1 0 0
    outer loop
      vertex 0 132.19 74.92
      vertex 0 133.92 91.44
      vertex 0 132.19 44
    endloop
  endfacet
  facet normal -1 0 0
    outer loop
      vertex 0 132.19 78.92
      vertex 0 133.92 91.44
      vertex 0 132.19 74.92
    endloop
  endfacet
  facet normal -1 0 0
    outer loop
      vertex 0 129.65 78.92
      vertex 0 133.92 91.44
      vertex 0 132.19 78.92
    endloop
  endfacet
  facet normal -1 0 0
    outer loop
      vertex 0 129.65 78.92
      vertex 0 127.92 91.44
      vertex 0 133.92 91.44
    endloop
  endfacet
  facet normal -1 0 0
    outer loop
      vertex 0 129.65 74.92
      vertex 0 127.92 91.44
      vertex 0 129.65 78.92
    endloop
  endfacet
  facet normal -0 0 1
    outer loop
      vertex 0 133.92 91.44
      vertex 3 127.92 91.44
      vertex 3 133.92 91.44
    endloop
  endfacet
  facet normal 0 0 1
    outer loop
      vertex 3 127.92 91.44
      vertex 0 133.92 91.44
      vertex 0 127.92 91.44
    endloop
  endfacet
  facet normal 0 1 -0
    outer loop
      vertex 3 133.92 0
      vertex 0 133.92 91.44
      vertex 3 133.92 91.44
    endloop
  endfacet
  facet normal 0 1 0
    outer loop
      vertex 0 133.92 91.44
      vertex 3 133.92 0
      vertex 0 133.92 0
    endloop
  endfacet
  facet normal 1 -0 0
    outer loop
      vertex 3 129.65 40
      vertex 3 132.19 9.08
      vertex 3 132.19 40
    endloop
  endfacet
  facet normal 1 0 0
    outer loop
      vertex 3 132.19 9.08
      vertex 3 129.65 40
      vertex 3 129.65 9.08
    endloop
  endfacet
  facet normal 1 -0 0
    outer loop
      vertex 3 129.65 74.92
      vertex 3 132.19 44
      vertex 3 132.19 74.92
    endloop
  endfacet
  facet normal 1 0 0
    outer loop
      vertex 3 132.19 44
      vertex 3 129.65 74.92
      vertex 3 129.65 44
    endloop
  endfacet
  facet normal 1 0 0
    outer loop
      vertex 3 132.19 74.92
      vertex 3 133.92 91.44
      vertex 3 132.19 78.92
    endloop
  endfacet
  facet normal 1 0 0
    outer loop
      vertex 3 133.92 91.44
      vertex 3 129.65 78.92
      vertex 3 132.19 78.92
    endloop
  endfacet
  facet normal 1 0 0
    outer loop
      vertex 3 127.92 91.44
      vertex 3 129.65 74.92
      vertex 3 129.65 78.92
    endloop
  endfacet
  facet normal 1 0 0
    outer loop
      vertex 3 129.65 74.92
      vertex 3 127.92 91.44
      vertex 3 129.65 44
    endloop
  endfacet
  facet normal 1 0 0
    outer loop
      vertex 3 129.65 44
      vertex 3 127.92 91.44
      vertex 3 129.65 40
    endloop
  endfacet
  facet normal 1 0 0
    outer loop
      vertex 3 129.65 40
      vertex 3 127.92 0
      vertex 3 129.65 9.08
    endloop
  endfacet
  facet normal 1 0 0
    outer loop
      vertex 3 129.65 40
      vertex 3 127.92 91.44
      vertex 3 127.92 0
    endloop
  endfacet
  facet normal 1 -0 0
    outer loop
      vertex 3 127.92 91.44
      vertex 3 129.65 78.92
      vertex 3 133.92 91.44
    endloop
  endfacet
  facet normal 1 0 0
    outer loop
      vertex 3 132.19 44
      vertex 3 133.92 91.44
      vertex 3 132.19 74.92
    endloop
  endfacet
  facet normal 1 0 0
    outer loop
      vertex 3 133.92 91.44
      vertex 3 132.19 44
      vertex 3 133.92 0
    endloop
  endfacet
  facet normal 1 -0 0
    outer loop
      vertex 3 132.19 40
      vertex 3 133.92 0
      vertex 3 132.19 44
    endloop
  endfacet
  facet normal 1 -0 0
    outer loop
      vertex 3 132.19 9.08
      vertex 3 133.92 0
      vertex 3 132.19 40
    endloop
  endfacet
  facet normal 1 -0 0
    outer loop
      vertex 3 132.19 5.08
      vertex 3 133.92 0
      vertex 3 132.19 9.08
    endloop
  endfacet
  facet normal 1 -0 0
    outer loop
      vertex 3 129.65 5.08
      vertex 3 133.92 0
      vertex 3 132.19 5.08
    endloop
  endfacet
  facet normal 1 0 0
    outer loop
      vertex 3 129.65 5.08
      vertex 3 127.92 0
      vertex 3 133.92 0
    endloop
  endfacet
  facet normal 1 0 0
    outer loop
      vertex 3 129.65 9.08
      vertex 3 127.92 0
      vertex 3 129.65 5.08
    endloop
  endfacet
  facet normal 0 -1 0
    outer loop
      vertex 0 127.92 0
      vertex 3 127.92 91.44
      vertex 0 127.92 91.44
    endloop
  endfacet
  facet normal 0 -1 -0
    outer loop
      vertex 3 127.92 91.44
      vertex 0 127.92 0
      vertex 3 127.92 0
    endloop
  endfacet
  facet normal 0 0 -1
    outer loop
      vertex 24.32 127.92 0
      vertex 27.32 133.92 0
      vertex 27.32 127.92 0
    endloop
  endfacet
  facet normal -0 0 -1
    outer loop
      vertex 27.32 133.92 0
      vertex 24.32 127.92 0
      vertex 24.32 133.92 0
    endloop
  endfacet
  facet normal -1 0 0
    outer loop
      vertex 24.32 129.65 44
      vertex 24.32 132.19 74.92
      vertex 24.32 132.19 44
    endloop
  endfacet
  facet normal -1 -0 0
    outer loop
      vertex 24.32 132.19 74.92
      vertex 24.32 129.65 44
      vertex 24.32 129.65 74.92
    endloop
  endfacet
  facet normal -1 0 0
    outer loop
      vertex 24.32 129.65 9.08
      vertex 24.32 132.19 40
      vertex 24.32 132.19 9.08
    endloop
  endfacet
  facet normal -1 -0 0
    outer loop
      vertex 24.32 132.19 40
      vertex 24.32 129.65 9.08
      vertex 24.32 129.65 40
    endloop
  endfacet
  facet normal -1 0 0
    outer loop
      vertex 24.32 132.19 9.08
      vertex 24.32 133.92 0
      vertex 24.32 132.19 5.08
    endloop
  endfacet
  facet normal -1 0 0
    outer loop
      vertex 24.32 133.92 0
      vertex 24.32 129.65 5.08
      vertex 24.32 132.19 5.08
    endloop
  endfacet
  facet normal -1 0 0
    outer loop
      vertex 24.32 127.92 0
      vertex 24.32 129.65 9.08
      vertex 24.32 129.65 5.08
    endloop
  endfacet
  facet normal -1 -0 0
    outer loop
      vertex 24.32 129.65 9.08
      vertex 24.32 127.92 0
      vertex 24.32 129.65 40
    endloop
  endfacet
  facet normal -1 -0 0
    outer loop
      vertex 24.32 129.65 40
      vertex 24.32 127.92 0
      vertex 24.32 129.65 44
    endloop
  endfacet
  facet normal -1 0 0
    outer loop
      vertex 24.32 127.92 91.44
      vertex 24.32 129.65 44
      vertex 24.32 127.92 0
    endloop
  endfacet
  facet normal -1 0 0
    outer loop
      vertex 24.32 129.65 44
      vertex 24.32 127.92 91.44
      vertex 24.32 129.65 74.92
    endloop
  endfacet
  facet normal -1 0 0
    outer loop
      vertex 24.32 127.92 0
      vertex 24.32 129.65 5.08
      vertex 24.32 133.92 0
    endloop
  endfacet
  facet normal -1 0 0
    outer loop
      vertex 24.32 132.19 40
      vertex 24.32 133.92 0
      vertex 24.32 132.19 9.08
    endloop
  endfacet
  facet normal -1 0 0
    outer loop
      vertex 24.32 133.92 0
      vertex 24.32 132.19 40
      vertex 24.32 133.92 91.44
    endloop
  endfacet
  facet normal -1 0 0
    outer loop
      vertex 24.32 132.19 44
      vertex 24.32 133.92 91.44
      vertex 24.32 132.19 40
    endloop
  endfacet
  facet normal -1 0 0
    outer loop
      vertex 24.32 132.19 74.92
      vertex 24.32 133.92 91.44
      vertex 24.32 132.19 44
    endloop
  endfacet
  facet normal -1 0 0
    outer loop
      vertex 24.32 132.19 78.92
      vertex 24.32 133.92 91.44
      vertex 24.32 132.19 74.92
    endloop
  endfacet
  facet normal -1 0 0
    outer loop
      vertex 24.32 129.65 78.92
      vertex 24.32 133.92 91.44
      vertex 24.32 132.19 78.92
    endloop
  endfacet
  facet normal -1 0 0
    outer loop
      vertex 24.32 129.65 78.92
      vertex 24.32 127.92 91.44
      vertex 24.32 133.92 91.44
    endloop
  endfacet
  facet normal -1 0 0
    outer loop
      vertex 24.32 129.65 74.92
      vertex 24.32 127.92 91.44
      vertex 24.32 129.65 78.92
    endloop
  endfacet
  facet normal -0 0 1
    outer loop
      vertex 24.32 133.92 91.44
      vertex 27.32 127.92 91.44
      vertex 27.32 133.92 91.44
    endloop
  endfacet
  facet normal 0 0 1
    outer loop
      vertex 27.32 127.92 91.44
      vertex 24.32 133.92 91.44
      vertex 24.32 127.92 91.44
    endloop
  endfacet
  facet normal 0 -1 0
    outer loop
      vertex 24.32 127.92 0
      vertex 27.32 127.92 91.44
      vertex 24.32 127.92 91.44
    endloop
  endfacet
  facet normal 0 -1 -0
    outer loop
      vertex 27.32 127.92 91.44
      vertex 24.32 127.92 0
      vertex 27.32 127.92 0
    endloop
  endfacet
  facet normal 0 1 -0
    outer loop
      vertex 27.32 133.92 0
      vertex 24.32 133.92 91.44
      vertex 27.32 133.92 91.44
    endloop
  endfacet
  facet normal 0 1 0
    outer loop
      vertex 24.32 133.92 91.44
      vertex 27.32 133.92 0
      vertex 24.32 133.92 0
    endloop
  endfacet
  facet normal 1 -0 0
    outer loop
      vertex 27.32 129.65 40
      vertex 27.32 132.19 9.08
      vertex 27.32 132.19 40
    endloop
  endfacet
  facet normal 1 0 0
    outer loop
      vertex 27.32 132.19 9.08
      vertex 27.32 129.65 40
      vertex 27.32 129.65 9.08
    endloop
  endfacet
  facet normal 1 -0 0
    outer loop
      vertex 27.32 129.65 74.92
      vertex 27.32 132.19 44
      vertex 27.32 132.19 74.92
    endloop
  endfacet
  facet normal 1 0 0
    outer loop
      vertex 27.32 132.19 44
      vertex 27.32 129.65 74.92
      vertex 27.32 129.65 44
    endloop
  endfacet
  facet normal 1 0 0
    outer loop
      vertex 27.32 132.19 74.92
      vertex 27.32 133.92 91.44
      vertex 27.32 132.19 78.92
    endloop
  endfacet
  facet normal 1 0 0
    outer loop
      vertex 27.32 133.92 91.44
      vertex 27.32 129.65 78.92
      vertex 27.32 132.19 78.92
    endloop
  endfacet
  facet normal 1 0 0
    outer loop
      vertex 27.32 127.92 91.44
      vertex 27.32 129.65 74.92
      vertex 27.32 129.65 78.92
    endloop
  endfacet
  facet normal 1 0 0
    outer loop
      vertex 27.32 129.65 74.92
      vertex 27.32 127.92 91.44
      vertex 27.32 129.65 44
    endloop
  endfacet
  facet normal 1 0 0
    outer loop
      vertex 27.32 129.65 44
      vertex 27.32 127.92 91.44
      vertex 27.32 129.65 40
    endloop
  endfacet
  facet normal 1 0 0
    outer loop
      vertex 27.32 129.65 40
      vertex 27.32 127.92 0
      vertex 27.32 129.65 9.08
    endloop
  endfacet
  facet normal 1 0 0
    outer loop
      vertex 27.32 129.65 40
      vertex 27.32 127.92 91.44
      vertex 27.32 127.92 0
    endloop
  endfacet
  facet normal 1 -0 0
    outer loop
      vertex 27.32 127.92 91.44
      vertex 27.32 129.65 78.92
      vertex 27.32 133.92 91.44
    endloop
  endfacet
  facet normal 1 0 0
    outer loop
      vertex 27.32 132.19 44
      vertex 27.32 133.92 91.44
      vertex 27.32 132.19 74.92
    endloop
  endfacet
  facet normal 1 0 0
    outer loop
      vertex 27.32 133.92 91.44
      vertex 27.32 132.19 44
      vertex 27.32 133.92 0
    endloop
  endfacet
  facet normal 1 -0 0
    outer loop
      vertex 27.32 132.19 40
      vertex 27.32 133.92 0
      vertex 27.32 132.19 44
    endloop
  endfacet
  facet normal 1 -0 0
    outer loop
      vertex 27.32 132.19 9.08
      vertex 27.32 133.92 0
      vertex 27.32 132.19 40
    endloop
  endfacet
  facet normal 1 -0 0
    outer loop
      vertex 27.32 132.19 5.08
      vertex 27.32 133.92 0
      vertex 27.32 132.19 9.08
    endloop
  endfacet
  facet normal 1 -0 0
    outer loop
      vertex 27.32 129.65 5.08
      vertex 27.32 133.92 0
      vertex 27.32 132.19 5.08
    endloop
  endfacet
  facet normal 1 0 0
    outer loop
      vertex 27.32 129.65 5.08
      vertex 27.32 127.92 0
      vertex 27.32 133.92 0
    endloop
  endfacet
  facet normal 1 0 0
    outer loop
      vertex 27.32 129.65 9.08
      vertex 27.32 127.92 0
      vertex 27.32 129.65 5.08
    endloop
  endfacet
  facet normal -1 0 0
    outer loop
      vertex -1 1.73 5.08
      vertex -1 4.27 9.08
      vertex -1 4.27 5.08
    endloop
  endfacet
  facet normal -1 -0 0
    outer loop
      vertex -1 4.27 9.08
      vertex -1 1.73 5.08
      vertex -1 1.73 9.08
    endloop
  endfacet
  facet normal 0 -1 0
    outer loop
      vertex 27.32 1.73 5.08
      vertex 28.32 1.73 9.08
      vertex 27.32 1.73 9.08
    endloop
  endfacet
  facet normal 0 -1 -0
    outer loop
      vertex 28.32 1.73 9.08
      vertex 27.32 1.73 5.08
      vertex 28.32 1.73 5.08
    endloop
  endfacet
  facet normal 0 -1 0
    outer loop
      vertex -1 1.73 5.08
      vertex 0 1.73 9.08
      vertex -1 1.73 9.08
    endloop
  endfacet
  facet normal 0 -1 -0
    outer loop
      vertex 0 1.73 9.08
      vertex -1 1.73 5.08
      vertex 0 1.73 5.08
    endloop
  endfacet
  facet normal 0 -1 0
    outer loop
      vertex 3 1.73 9.08
      vertex 3.5 1.73 8.39
      vertex 3.5 1.73 9.08
    endloop
  endfacet
  facet normal 0 -1 -0
    outer loop
      vertex 3.5 1.73 8.39
      vertex 3 1.73 5.08
      vertex 23.82 1.73 8.39
    endloop
  endfacet
  facet normal 0 -1 0
    outer loop
      vertex 3 1.73 5.08
      vertex 3.5 1.73 8.39
      vertex 3 1.73 9.08
    endloop
  endfacet
  facet normal 0 -1 0
    outer loop
      vertex 23.82 1.73 8.39
      vertex 24.32 1.73 9.08
      vertex 23.82 1.73 9.08
    endloop
  endfacet
  facet normal 0 -1 0
    outer loop
      vertex 23.82 1.73 8.39
      vertex 24.32 1.73 5.08
      vertex 24.32 1.73 9.08
    endloop
  endfacet
  facet normal 0 -1 0
    outer loop
      vertex 24.32 1.73 5.08
      vertex 23.82 1.73 8.39
      vertex 3 1.73 5.08
    endloop
  endfacet
  facet normal 1 -0 0
    outer loop
      vertex 28.32 1.73 9.08
      vertex 28.32 4.27 5.08
      vertex 28.32 4.27 9.08
    endloop
  endfacet
  facet normal 1 0 0
    outer loop
      vertex 28.32 4.27 5.08
      vertex 28.32 1.73 9.08
      vertex 28.32 1.73 5.08
    endloop
  endfacet
  facet normal 0 0 -1
    outer loop
      vertex 27.32 1.73 5.08
      vertex 28.32 4.27 5.08
      vertex 28.32 1.73 5.08
    endloop
  endfacet
  facet normal -0 0 -1
    outer loop
      vertex 28.32 4.27 5.08
      vertex 27.32 1.73 5.08
      vertex 27.32 4.27 5.08
    endloop
  endfacet
  facet normal 0 0 -1
    outer loop
      vertex -1 1.73 5.08
      vertex 0 4.27 5.08
      vertex 0 1.73 5.08
    endloop
  endfacet
  facet normal -0 0 -1
    outer loop
      vertex 0 4.27 5.08
      vertex -1 1.73 5.08
      vertex -1 4.27 5.08
    endloop
  endfacet
  facet normal 0 0 -1
    outer loop
      vertex 3 1.73 5.08
      vertex 24.32 4.27 5.08
      vertex 24.32 1.73 5.08
    endloop
  endfacet
  facet normal -0 0 -1
    outer loop
      vertex 24.32 4.27 5.08
      vertex 3 1.73 5.08
      vertex 3 4.27 5.08
    endloop
  endfacet
  facet normal -0 0 1
    outer loop
      vertex 27.32 4.27 9.08
      vertex 28.32 1.73 9.08
      vertex 28.32 4.27 9.08
    endloop
  endfacet
  facet normal 0 0 1
    outer loop
      vertex 28.32 1.73 9.08
      vertex 27.32 4.27 9.08
      vertex 27.32 1.73 9.08
    endloop
  endfacet
  facet normal -0 0 1
    outer loop
      vertex -1 4.27 9.08
      vertex 0 1.73 9.08
      vertex 0 4.27 9.08
    endloop
  endfacet
  facet normal 0 0 1
    outer loop
      vertex 0 1.73 9.08
      vertex -1 4.27 9.08
      vertex -1 1.73 9.08
    endloop
  endfacet
  facet normal -0 0 1
    outer loop
      vertex 3 4.27 9.08
      vertex 3.5 1.73 9.08
      vertex 3.5 4.27 9.08
    endloop
  endfacet
  facet normal 0 0 1
    outer loop
      vertex 3.5 1.73 9.08
      vertex 3 4.27 9.08
      vertex 3 1.73 9.08
    endloop
  endfacet
  facet normal -0 0 1
    outer loop
      vertex 23.82 4.27 9.08
      vertex 24.32 1.73 9.08
      vertex 24.32 4.27 9.08
    endloop
  endfacet
  facet normal 0 0 1
    outer loop
      vertex 24.32 1.73 9.08
      vertex 23.82 4.27 9.08
      vertex 23.82 1.73 9.08
    endloop
  endfacet
  facet normal 0 1 -0
    outer loop
      vertex 0 4.27 5.08
      vertex -1 4.27 9.08
      vertex 0 4.27 9.08
    endloop
  endfacet
  facet normal 0 1 0
    outer loop
      vertex -1 4.27 9.08
      vertex 0 4.27 5.08
      vertex -1 4.27 5.08
    endloop
  endfacet
  facet normal 0 1 -0
    outer loop
      vertex 28.32 4.27 5.08
      vertex 27.32 4.27 9.08
      vertex 28.32 4.27 9.08
    endloop
  endfacet
  facet normal 0 1 0
    outer loop
      vertex 27.32 4.27 9.08
      vertex 28.32 4.27 5.08
      vertex 27.32 4.27 5.08
    endloop
  endfacet
  facet normal 0 1 0
    outer loop
      vertex 24.32 4.27 9.08
      vertex 23.82 4.27 8.39
      vertex 23.82 4.27 9.08
    endloop
  endfacet
  facet normal 0 1 0
    outer loop
      vertex 23.82 4.27 8.39
      vertex 24.32 4.27 5.08
      vertex 3.5 4.27 8.39
    endloop
  endfacet
  facet normal 0 1 -0
    outer loop
      vertex 24.32 4.27 5.08
      vertex 23.82 4.27 8.39
      vertex 24.32 4.27 9.08
    endloop
  endfacet
  facet normal 0 1 -0
    outer loop
      vertex 3.5 4.27 8.39
      vertex 3 4.27 9.08
      vertex 3.5 4.27 9.08
    endloop
  endfacet
  facet normal 0 1 0
    outer loop
      vertex 3.5 4.27 8.39
      vertex 3 4.27 5.08
      vertex 3 4.27 9.08
    endloop
  endfacet
  facet normal 0 1 0
    outer loop
      vertex 3 4.27 5.08
      vertex 3.5 4.27 8.39
      vertex 24.32 4.27 5.08
    endloop
  endfacet
  facet normal -1 0 0
    outer loop
      vertex -1 1.73 40
      vertex -1 4.27 44
      vertex -1 4.27 40
    endloop
  endfacet
  facet normal -1 -0 0
    outer loop
      vertex -1 4.27 44
      vertex -1 1.73 40
      vertex -1 1.73 44
    endloop
  endfacet
  facet normal 0 -1 0
    outer loop
      vertex 27.32 1.73 40
      vertex 28.32 1.73 44
      vertex 27.32 1.73 44
    endloop
  endfacet
  facet normal 0 -1 -0
    outer loop
      vertex 28.32 1.73 44
      vertex 27.32 1.73 40
      vertex 28.32 1.73 40
    endloop
  endfacet
  facet normal 0 -1 0
    outer loop
      vertex -1 1.73 40
      vertex 0 1.73 44
      vertex -1 1.73 44
    endloop
  endfacet
  facet normal 0 -1 -0
    outer loop
      vertex 0 1.73 44
      vertex -1 1.73 40
      vertex 0 1.73 40
    endloop
  endfacet
  facet normal 0 -1 0
    outer loop
      vertex 3 1.73 44
      vertex 3.5 1.73 43.31
      vertex 3.5 1.73 44
    endloop
  endfacet
  facet normal 0 -1 -0
    outer loop
      vertex 3.5 1.73 43.31
      vertex 3 1.73 40
      vertex 23.82 1.73 43.31
    endloop
  endfacet
  facet normal 0 -1 0
    outer loop
      vertex 3 1.73 40
      vertex 3.5 1.73 43.31
      vertex 3 1.73 44
    endloop
  endfacet
  facet normal 0 -1 0
    outer loop
      vertex 23.82 1.73 43.31
      vertex 24.32 1.73 44
      vertex 23.82 1.73 44
    endloop
  endfacet
  facet normal 0 -1 0
    outer loop
      vertex 23.82 1.73 43.31
      vertex 24.32 1.73 40
      vertex 24.32 1.73 44
    endloop
  endfacet
  facet normal 0 -1 0
    outer loop
      vertex 24.32 1.73 40
      vertex 23.82 1.73 43.31
      vertex 3 1.73 40
    endloop
  endfacet
  facet normal 1 -0 0
    outer loop
      vertex 28.32 1.73 44
      vertex 28.32 4.27 40
      vertex 28.32 4.27 44
    endloop
  endfacet
  facet normal 1 0 0
    outer loop
      vertex 28.32 4.27 40
      vertex 28.32 1.73 44
      vertex 28.32 1.73 40
    endloop
  endfacet
  facet normal -0 0 1
    outer loop
      vertex 27.32 4.27 44
      vertex 28.32 1.73 44
      vertex 28.32 4.27 44
    endloop
  endfacet
  facet normal 0 0 1
    outer loop
      vertex 28.32 1.73 44
      vertex 27.32 4.27 44
      vertex 27.32 1.73 44
    endloop
  endfacet
  facet normal -0 0 1
    outer loop
      vertex -1 4.27 44
      vertex 0 1.73 44
      vertex 0 4.27 44
    endloop
  endfacet
  facet normal 0 0 1
    outer loop
      vertex 0 1.73 44
      vertex -1 4.27 44
      vertex -1 1.73 44
    endloop
  endfacet
  facet normal -0 0 1
    outer loop
      vertex 3 4.27 44
      vertex 3.5 1.73 44
      vertex 3.5 4.27 44
    endloop
  endfacet
  facet normal 0 0 1
    outer loop
      vertex 3.5 1.73 44
      vertex 3 4.27 44
      vertex 3 1.73 44
    endloop
  endfacet
  facet normal -0 0 1
    outer loop
      vertex 23.82 4.27 44
      vertex 24.32 1.73 44
      vertex 24.32 4.27 44
    endloop
  endfacet
  facet normal 0 0 1
    outer loop
      vertex 24.32 1.73 44
      vertex 23.82 4.27 44
      vertex 23.82 1.73 44
    endloop
  endfacet
  facet normal 0 1 -0
    outer loop
      vertex 0 4.27 40
      vertex -1 4.27 44
      vertex 0 4.27 44
    endloop
  endfacet
  facet normal 0 1 0
    outer loop
      vertex -1 4.27 44
      vertex 0 4.27 40
      vertex -1 4.27 40
    endloop
  endfacet
  facet normal 0 1 -0
    outer loop
      vertex 28.32 4.27 40
      vertex 27.32 4.27 44
      vertex 28.32 4.27 44
    endloop
  endfacet
  facet normal 0 1 0
    outer loop
      vertex 27.32 4.27 44
      vertex 28.32 4.27 40
      vertex 27.32 4.27 40
    endloop
  endfacet
  facet normal 0 1 0
    outer loop
      vertex 24.32 4.27 44
      vertex 23.82 4.27 43.31
      vertex 23.82 4.27 44
    endloop
  endfacet
  facet normal 0 1 0
    outer loop
      vertex 23.82 4.27 43.31
      vertex 24.32 4.27 40
      vertex 3.5 4.27 43.31
    endloop
  endfacet
  facet normal 0 1 -0
    outer loop
      vertex 24.32 4.27 40
      vertex 23.82 4.27 43.31
      vertex 24.32 4.27 44
    endloop
  endfacet
  facet normal 0 1 -0
    outer loop
      vertex 3.5 4.27 43.31
      vertex 3 4.27 44
      vertex 3.5 4.27 44
    endloop
  endfacet
  facet normal 0 1 0
    outer loop
      vertex 3.5 4.27 43.31
      vertex 3 4.27 40
      vertex 3 4.27 44
    endloop
  endfacet
  facet normal 0 1 0
    outer loop
      vertex 3 4.27 40
      vertex 3.5 4.27 43.31
      vertex 24.32 4.27 40
    endloop
  endfacet
  facet normal 0 0 -1
    outer loop
      vertex 27.32 1.73 40
      vertex 28.32 4.27 40
      vertex 28.32 1.73 40
    endloop
  endfacet
  facet normal -0 0 -1
    outer loop
      vertex 28.32 4.27 40
      vertex 27.32 1.73 40
      vertex 27.32 4.27 40
    endloop
  endfacet
  facet normal 0 0 -1
    outer loop
      vertex -1 1.73 40
      vertex 0 4.27 40
      vertex 0 1.73 40
    endloop
  endfacet
  facet normal -0 0 -1
    outer loop
      vertex 0 4.27 40
      vertex -1 1.73 40
      vertex -1 4.27 40
    endloop
  endfacet
  facet normal 0 0 -1
    outer loop
      vertex 3 1.73 40
      vertex 24.32 4.27 40
      vertex 24.32 1.73 40
    endloop
  endfacet
  facet normal -0 0 -1
    outer loop
      vertex 24.32 4.27 40
      vertex 3 1.73 40
      vertex 3 4.27 40
    endloop
  endfacet
  facet normal -1 0 0
    outer loop
      vertex -1 1.73 74.92
      vertex -1 4.27 78.92
      vertex -1 4.27 74.92
    endloop
  endfacet
  facet normal -1 -0 0
    outer loop
      vertex -1 4.27 78.92
      vertex -1 1.73 74.92
      vertex -1 1.73 78.92
    endloop
  endfacet
  facet normal 0 -1 0
    outer loop
      vertex 27.32 1.73 74.92
      vertex 28.32 1.73 78.92
      vertex 27.32 1.73 78.92
    endloop
  endfacet
  facet normal 0 -1 -0
    outer loop
      vertex 28.32 1.73 78.92
      vertex 27.32 1.73 74.92
      vertex 28.32 1.73 74.92
    endloop
  endfacet
  facet normal 0 -1 0
    outer loop
      vertex -1 1.73 74.92
      vertex 0 1.73 78.92
      vertex -1 1.73 78.92
    endloop
  endfacet
  facet normal 0 -1 -0
    outer loop
      vertex 0 1.73 78.92
      vertex -1 1.73 74.92
      vertex 0 1.73 74.92
    endloop
  endfacet
  facet normal 0 -1 0
    outer loop
      vertex 3 1.73 78.92
      vertex 3.5 1.73 78.23
      vertex 3.5 1.73 78.92
    endloop
  endfacet
  facet normal 0 -1 -0
    outer loop
      vertex 3.5 1.73 78.23
      vertex 3 1.73 74.92
      vertex 23.82 1.73 78.23
    endloop
  endfacet
  facet normal 0 -1 0
    outer loop
      vertex 3 1.73 74.92
      vertex 3.5 1.73 78.23
      vertex 3 1.73 78.92
    endloop
  endfacet
  facet normal 0 -1 0
    outer loop
      vertex 23.82 1.73 78.23
      vertex 24.32 1.73 78.92
      vertex 23.82 1.73 78.92
    endloop
  endfacet
  facet normal 0 -1 0
    outer loop
      vertex 23.82 1.73 78.23
      vertex 24.32 1.73 74.92
      vertex 24.32 1.73 78.92
    endloop
  endfacet
  facet normal 0 -1 0
    outer loop
      vertex 24.32 1.73 74.92
      vertex 23.82 1.73 78.23
      vertex 3 1.73 74.92
    endloop
  endfacet
  facet normal 1 -0 0
    outer loop
      vertex 28.32 1.73 78.92
      vertex 28.32 4.27 74.92
      vertex 28.32 4.27 78.92
    endloop
  endfacet
  facet normal 1 0 0
    outer loop
      vertex 28.32 4.27 74.92
      vertex 28.32 1.73 78.92
      vertex 28.32 1.73 74.92
    endloop
  endfacet
  facet normal 0 0 -1
    outer loop
      vertex 27.32 1.73 74.92
      vertex 28.32 4.27 74.92
      vertex 28.32 1.73 74.92
    endloop
  endfacet
  facet normal -0 0 -1
    outer loop
      vertex 28.32 4.27 74.92
      vertex 27.32 1.73 74.92
      vertex 27.32 4.27 74.92
    endloop
  endfacet
  facet normal 0 0 -1
    outer loop
      vertex -1 1.73 74.92
      vertex 0 4.27 74.92
      vertex 0 1.73 74.92
    endloop
  endfacet
  facet normal -0 0 -1
    outer loop
      vertex 0 4.27 74.92
      vertex -1 1.73 74.92
      vertex -1 4.27 74.92
    endloop
  endfacet
  facet normal 0 0 -1
    outer loop
      vertex 3 1.73 74.92
      vertex 24.32 4.27 74.92
      vertex 24.32 1.73 74.92
    endloop
  endfacet
  facet normal -0 0 -1
    outer loop
      vertex 24.32 4.27 74.92
      vertex 3 1.73 74.92
      vertex 3 4.27 74.92
    endloop
  endfacet
  facet normal -0 0 1
    outer loop
      vertex 27.32 4.27 78.92
      vertex 28.32 1.73 78.92
      vertex 28.32 4.27 78.92
    endloop
  endfacet
  facet normal 0 0 1
    outer loop
      vertex 28.32 1.73 78.92
      vertex 27.32 4.27 78.92
      vertex 27.32 1.73 78.92
    endloop
  endfacet
  facet normal -0 0 1
    outer loop
      vertex -1 4.27 78.92
      vertex 0 1.73 78.92
      vertex 0 4.27 78.92
    endloop
  endfacet
  facet normal 0 0 1
    outer loop
      vertex 0 1.73 78.92
      vertex -1 4.27 78.92
      vertex -1 1.73 78.92
    endloop
  endfacet
  facet normal -0 0 1
    outer loop
      vertex 3 4.27 78.92
      vertex 3.5 1.73 78.92
      vertex 3.5 4.27 78.92
    endloop
  endfacet
  facet normal 0 0 1
    outer loop
      vertex 3.5 1.73 78.92
      vertex 3 4.27 78.92
      vertex 3 1.73 78.92
    endloop
  endfacet
  facet normal -0 0 1
    outer loop
      vertex 23.82 4.27 78.92
      vertex 24.32 1.73 78.92
      vertex 24.32 4.27 78.92
    endloop
  endfacet
  facet normal 0 0 1
    outer loop
      vertex 24.32 1.73 78.92
      vertex 23.82 4.27 78.92
      vertex 23.82 1.73 78.92
    endloop
  endfacet
  facet normal 0 1 -0
    outer loop
      vertex 0 4.27 74.92
      vertex -1 4.27 78.92
      vertex 0 4.27 78.92
    endloop
  endfacet
  facet normal 0 1 0
    outer loop
      vertex -1 4.27 78.92
      vertex 0 4.27 74.92
      vertex -1 4.27 74.92
    endloop
  endfacet
  facet normal 0 1 -0
    outer loop
      vertex 28.32 4.27 74.92
      vertex 27.32 4.27 78.92
      vertex 28.32 4.27 78.92
    endloop
  endfacet
  facet normal 0 1 0
    outer loop
      vertex 27.32 4.27 78.92
      vertex 28.32 4.27 74.92
      vertex 27.32 4.27 74.92
    endloop
  endfacet
  facet normal 0 1 0
    outer loop
      vertex 24.32 4.27 78.92
      vertex 23.82 4.27 78.23
      vertex 23.82 4.27 78.92
    endloop
  endfacet
  facet normal 0 1 0
    outer loop
      vertex 23.82 4.27 78.23
      vertex 24.32 4.27 74.92
      vertex 3.5 4.27 78.23
    endloop
  endfacet
  facet normal 0 1 -0
    outer loop
      vertex 24.32 4.27 74.92
      vertex 23.82 4.27 78.23
      vertex 24.32 4.27 78.92
    endloop
  endfacet
  facet normal 0 1 -0
    outer loop
      vertex 3.5 4.27 78.23
      vertex 3 4.27 78.92
      vertex 3.5 4.27 78.92
    endloop
  endfacet
  facet normal 0 1 0
    outer loop
      vertex 3.5 4.27 78.23
      vertex 3 4.27 74.92
      vertex 3 4.27 78.92
    endloop
  endfacet
  facet normal 0 1 0
    outer loop
      vertex 3 4.27 74.92
      vertex 3.5 4.27 78.23
      vertex 24.32 4.27 74.92
    endloop
  endfacet
  facet normal -1 0 0
    outer loop
      vertex -1 129.65 5.08
      vertex -1 132.19 9.08
      vertex -1 132.19 5.08
    endloop
  endfacet
  facet normal -1 -0 0
    outer loop
      vertex -1 132.19 9.08
      vertex -1 129.65 5.08
      vertex -1 129.65 9.08
    endloop
  endfacet
  facet normal 0 -1 0
    outer loop
      vertex 27.32 129.65 5.08
      vertex 28.32 129.65 9.08
      vertex 27.32 129.65 9.08
    endloop
  endfacet
  facet normal 0 -1 -0
    outer loop
      vertex 28.32 129.65 9.08
      vertex 27.32 129.65 5.08
      vertex 28.32 129.65 5.08
    endloop
  endfacet
  facet normal 0 -1 0
    outer loop
      vertex -1 129.65 5.08
      vertex 0 129.65 9.08
      vertex -1 129.65 9.08
    endloop
  endfacet
  facet normal 0 -1 -0
    outer loop
      vertex 0 129.65 9.08
      vertex -1 129.65 5.08
      vertex 0 129.65 5.08
    endloop
  endfacet
  facet normal 0 -1 0
    outer loop
      vertex 3 129.65 9.08
      vertex 3.5 129.65 8.39
      vertex 3.5 129.65 9.08
    endloop
  endfacet
  facet normal 0 -1 -0
    outer loop
      vertex 3.5 129.65 8.39
      vertex 3 129.65 5.08
      vertex 23.82 129.65 8.39
    endloop
  endfacet
  facet normal 0 -1 0
    outer loop
      vertex 3 129.65 5.08
      vertex 3.5 129.65 8.39
      vertex 3 129.65 9.08
    endloop
  endfacet
  facet normal 0 -1 0
    outer loop
      vertex 23.82 129.65 8.39
      vertex 24.32 129.65 9.08
      vertex 23.82 129.65 9.08
    endloop
  endfacet
  facet normal 0 -1 0
    outer loop
      vertex 23.82 129.65 8.39
      vertex 24.32 129.65 5.08
      vertex 24.32 129.65 9.08
    endloop
  endfacet
  facet normal 0 -1 0
    outer loop
      vertex 24.32 129.65 5.08
      vertex 23.82 129.65 8.39
      vertex 3 129.65 5.08
    endloop
  endfacet
  facet normal 1 -0 0
    outer loop
      vertex 28.32 129.65 9.08
      vertex 28.32 132.19 5.08
      vertex 28.32 132.19 9.08
    endloop
  endfacet
  facet normal 1 0 0
    outer loop
      vertex 28.32 132.19 5.08
      vertex 28.32 129.65 9.08
      vertex 28.32 129.65 5.08
    endloop
  endfacet
  facet normal 0 0 -1
    outer loop
      vertex 27.32 129.65 5.08
      vertex 28.32 132.19 5.08
      vertex 28.32 129.65 5.08
    endloop
  endfacet
  facet normal -0 0 -1
    outer loop
      vertex 28.32 132.19 5.08
      vertex 27.32 129.65 5.08
      vertex 27.32 132.19 5.08
    endloop
  endfacet
  facet normal 0 0 -1
    outer loop
      vertex -1 129.65 5.08
      vertex 0 132.19 5.08
      vertex 0 129.65 5.08
    endloop
  endfacet
  facet normal -0 0 -1
    outer loop
      vertex 0 132.19 5.08
      vertex -1 129.65 5.08
      vertex -1 132.19 5.08
    endloop
  endfacet
  facet normal 0 0 -1
    outer loop
      vertex 3 129.65 5.08
      vertex 24.32 132.19 5.08
      vertex 24.32 129.65 5.08
    endloop
  endfacet
  facet normal -0 0 -1
    outer loop
      vertex 24.32 132.19 5.08
      vertex 3 129.65 5.08
      vertex 3 132.19 5.08
    endloop
  endfacet
  facet normal -0 0 1
    outer loop
      vertex 27.32 132.19 9.08
      vertex 28.32 129.65 9.08
      vertex 28.32 132.19 9.08
    endloop
  endfacet
  facet normal 0 0 1
    outer loop
      vertex 28.32 129.65 9.08
      vertex 27.32 132.19 9.08
      vertex 27.32 129.65 9.08
    endloop
  endfacet
  facet normal -0 0 1
    outer loop
      vertex -1 132.19 9.08
      vertex 0 129.65 9.08
      vertex 0 132.19 9.08
    endloop
  endfacet
  facet normal 0 0 1
    outer loop
      vertex 0 129.65 9.08
      vertex -1 132.19 9.08
      vertex -1 129.65 9.08
    endloop
  endfacet
  facet normal -0 0 1
    outer loop
      vertex 3 132.19 9.08
      vertex 3.5 129.65 9.08
      vertex 3.5 132.19 9.08
    endloop
  endfacet
  facet normal 0 0 1
    outer loop
      vertex 3.5 129.65 9.08
      vertex 3 132.19 9.08
      vertex 3 129.65 9.08
    endloop
  endfacet
  facet normal -0 0 1
    outer loop
      vertex 23.82 132.19 9.08
      vertex 24.32 129.65 9.08
      vertex 24.32 132.19 9.08
    endloop
  endfacet
  facet normal 0 0 1
    outer loop
      vertex 24.32 129.65 9.08
      vertex 23.82 132.19 9.08
      vertex 23.82 129.65 9.08
    endloop
  endfacet
  facet normal 0 1 -0
    outer loop
      vertex 0 132.19 5.08
      vertex -1 132.19 9.08
      vertex 0 132.19 9.08
    endloop
  endfacet
  facet normal 0 1 0
    outer loop
      vertex -1 132.19 9.08
      vertex 0 132.19 5.08
      vertex -1 132.19 5.08
    endloop
  endfacet
  facet normal 0 1 -0
    outer loop
      vertex 28.32 132.19 5.08
      vertex 27.32 132.19 9.08
      vertex 28.32 132.19 9.08
    endloop
  endfacet
  facet normal 0 1 0
    outer loop
      vertex 27.32 132.19 9.08
      vertex 28.32 132.19 5.08
      vertex 27.32 132.19 5.08
    endloop
  endfacet
  facet normal 0 1 0
    outer loop
      vertex 24.32 132.19 9.08
      vertex 23.82 132.19 8.39
      vertex 23.82 132.19 9.08
    endloop
  endfacet
  facet normal 0 1 0
    outer loop
      vertex 23.82 132.19 8.39
      vertex 24.32 132.19 5.08
      vertex 3.5 132.19 8.39
    endloop
  endfacet
  facet normal 0 1 -0
    outer loop
      vertex 24.32 132.19 5.08
      vertex 23.82 132.19 8.39
      vertex 24.32 132.19 9.08
    endloop
  endfacet
  facet normal 0 1 -0
    outer loop
      vertex 3.5 132.19 8.39
      vertex 3 132.19 9.08
      vertex 3.5 132.19 9.08
    endloop
  endfacet
  facet normal 0 1 0
    outer loop
      vertex 3.5 132.19 8.39
      vertex 3 132.19 5.08
      vertex 3 132.19 9.08
    endloop
  endfacet
  facet normal 0 1 0
    outer loop
      vertex 3 132.19 5.08
      vertex 3.5 132.19 8.39
      vertex 24.32 132.19 5.08
    endloop
  endfacet
  facet normal -1 0 0
    outer loop
      vertex -1 129.65 40
      vertex -1 132.19 44
      vertex -1 132.19 40
    endloop
  endfacet
  facet normal -1 -0 0
    outer loop
      vertex -1 132.19 44
      vertex -1 129.65 40
      vertex -1 129.65 44
    endloop
  endfacet
  facet normal 0 -1 0
    outer loop
      vertex 27.32 129.65 40
      vertex 28.32 129.65 44
      vertex 27.32 129.65 44
    endloop
  endfacet
  facet normal 0 -1 -0
    outer loop
      vertex 28.32 129.65 44
      vertex 27.32 129.65 40
      vertex 28.32 129.65 40
    endloop
  endfacet
  facet normal 0 -1 0
    outer loop
      vertex -1 129.65 40
      vertex 0 129.65 44
      vertex -1 129.65 44
    endloop
  endfacet
  facet normal 0 -1 -0
    outer loop
      vertex 0 129.65 44
      vertex -1 129.65 40
      vertex 0 129.65 40
    endloop
  endfacet
  facet normal 0 -1 0
    outer loop
      vertex 3 129.65 44
      vertex 3.5 129.65 43.31
      vertex 3.5 129.65 44
    endloop
  endfacet
  facet normal 0 -1 -0
    outer loop
      vertex 3.5 129.65 43.31
      vertex 3 129.65 40
      vertex 23.82 129.65 43.31
    endloop
  endfacet
  facet normal 0 -1 0
    outer loop
      vertex 3 129.65 40
      vertex 3.5 129.65 43.31
      vertex 3 129.65 44
    endloop
  endfacet
  facet normal 0 -1 0
    outer loop
      vertex 23.82 129.65 43.31
      vertex 24.32 129.65 44
      vertex 23.82 129.65 44
    endloop
  endfacet
  facet normal 0 -1 0
    outer loop
      vertex 23.82 129.65 43.31
      vertex 24.32 129.65 40
      vertex 24.32 129.65 44
    endloop
  endfacet
  facet normal 0 -1 0
    outer loop
      vertex 24.32 129.65 40
      vertex 23.82 129.65 43.31
      vertex 3 129.65 40
    endloop
  endfacet
  facet normal 1 -0 0
    outer loop
      vertex 28.32 129.65 44
      vertex 28.32 132.19 40
      vertex 28.32 132.19 44
    endloop
  endfacet
  facet normal 1 0 0
    outer loop
      vertex 28.32 132.19 40
      vertex 28.32 129.65 44
      vertex 28.32 129.65 40
    endloop
  endfacet
  facet normal -0 0 1
    outer loop
      vertex 27.32 132.19 44
      vertex 28.32 129.65 44
      vertex 28.32 132.19 44
    endloop
  endfacet
  facet normal 0 0 1
    outer loop
      vertex 28.32 129.65 44
      vertex 27.32 132.19 44
      vertex 27.32 129.65 44
    endloop
  endfacet
  facet normal -0 0 1
    outer loop
      vertex -1 132.19 44
      vertex 0 129.65 44
      vertex 0 132.19 44
    endloop
  endfacet
  facet normal 0 0 1
    outer loop
      vertex 0 129.65 44
      vertex -1 132.19 44
      vertex -1 129.65 44
    endloop
  endfacet
  facet normal -0 0 1
    outer loop
      vertex 3 132.19 44
      vertex 3.5 129.65 44
      vertex 3.5 132.19 44
    endloop
  endfacet
  facet normal 0 0 1
    outer loop
      vertex 3.5 129.65 44
      vertex 3 132.19 44
      vertex 3 129.65 44
    endloop
  endfacet
  facet normal -0 0 1
    outer loop
      vertex 23.82 132.19 44
      vertex 24.32 129.65 44
      vertex 24.32 132.19 44
    endloop
  endfacet
  facet normal 0 0 1
    outer loop
      vertex 24.32 129.65 44
      vertex 23.82 132.19 44
      vertex 23.82 129.65 44
    endloop
  endfacet
  facet normal 0 1 -0
    outer loop
      vertex 0 132.19 40
      vertex -1 132.19 44
      vertex 0 132.19 44
    endloop
  endfacet
  facet normal 0 1 0
    outer loop
      vertex -1 132.19 44
      vertex 0 132.19 40
      vertex -1 132.19 40
    endloop
  endfacet
  facet normal 0 1 -0
    outer loop
      vertex 28.32 132.19 40
      vertex 27.32 132.19 44
      vertex 28.32 132.19 44
    endloop
  endfacet
  facet normal 0 1 0
    outer loop
      vertex 27.32 132.19 44
      vertex 28.32 132.19 40
      vertex 27.32 132.19 40
    endloop
  endfacet
  facet normal 0 1 0
    outer loop
      vertex 24.32 132.19 44
      vertex 23.82 132.19 43.31
      vertex 23.82 132.19 44
    endloop
  endfacet
  facet normal 0 1 0
    outer loop
      vertex 23.82 132.19 43.31
      vertex 24.32 132.19 40
      vertex 3.5 132.19 43.31
    endloop
  endfacet
  facet normal 0 1 -0
    outer loop
      vertex 24.32 132.19 40
      vertex 23.82 132.19 43.31
      vertex 24.32 132.19 44
    endloop
  endfacet
  facet normal 0 1 -0
    outer loop
      vertex 3.5 132.19 43.31
      vertex 3 132.19 44
      vertex 3.5 132.19 44
    endloop
  endfacet
  facet normal 0 1 0
    outer loop
      vertex 3.5 132.19 43.31
      vertex 3 132.19 40
      vertex 3 132.19 44
    endloop
  endfacet
  facet normal 0 1 0
    outer loop
      vertex 3 132.19 40
      vertex 3.5 132.19 43.31
      vertex 24.32 132.19 40
    endloop
  endfacet
  facet normal 0 0 -1
    outer loop
      vertex 27.32 129.65 40
      vertex 28.32 132.19 40
      vertex 28.32 129.65 40
    endloop
  endfacet
  facet normal -0 0 -1
    outer loop
      vertex 28.32 132.19 40
      vertex 27.32 129.65 40
      vertex 27.32 132.19 40
    endloop
  endfacet
  facet normal 0 0 -1
    outer loop
      vertex -1 129.65 40
      vertex 0 132.19 40
      vertex 0 129.65 40
    endloop
  endfacet
  facet normal -0 0 -1
    outer loop
      vertex 0 132.19 40
      vertex -1 129.65 40
      vertex -1 132.19 40
    endloop
  endfacet
  facet normal 0 0 -1
    outer loop
      vertex 3 129.65 40
      vertex 24.32 132.19 40
      vertex 24.32 129.65 40
    endloop
  endfacet
  facet normal -0 0 -1
    outer loop
      vertex 24.32 132.19 40
      vertex 3 129.65 40
      vertex 3 132.19 40
    endloop
  endfacet
  facet normal -1 0 0
    outer loop
      vertex -1 129.65 74.92
      vertex -1 132.19 78.92
      vertex -1 132.19 74.92
    endloop
  endfacet
  facet normal -1 -0 0
    outer loop
      vertex -1 132.19 78.92
      vertex -1 129.65 74.92
      vertex -1 129.65 78.92
    endloop
  endfacet
  facet normal 0 -1 0
    outer loop
      vertex 27.32 129.65 74.92
      vertex 28.32 129.65 78.92
      vertex 27.32 129.65 78.92
    endloop
  endfacet
  facet normal 0 -1 -0
    outer loop
      vertex 28.32 129.65 78.92
      vertex 27.32 129.65 74.92
      vertex 28.32 129.65 74.92
    endloop
  endfacet
  facet normal 0 -1 0
    outer loop
      vertex -1 129.65 74.92
      vertex 0 129.65 78.92
      vertex -1 129.65 78.92
    endloop
  endfacet
  facet normal 0 -1 -0
    outer loop
      vertex 0 129.65 78.92
      vertex -1 129.65 74.92
      vertex 0 129.65 74.92
    endloop
  endfacet
  facet normal 0 -1 0
    outer loop
      vertex 3 129.65 78.92
      vertex 3.5 129.65 78.23
      vertex 3.5 129.65 78.92
    endloop
  endfacet
  facet normal 0 -1 -0
    outer loop
      vertex 3.5 129.65 78.23
      vertex 3 129.65 74.92
      vertex 23.82 129.65 78.23
    endloop
  endfacet
  facet normal 0 -1 0
    outer loop
      vertex 3 129.65 74.92
      vertex 3.5 129.65 78.23
      vertex 3 129.65 78.92
    endloop
  endfacet
  facet normal 0 -1 0
    outer loop
      vertex 23.82 129.65 78.23
      vertex 24.32 129.65 78.92
      vertex 23.82 129.65 78.92
    endloop
  endfacet
  facet normal 0 -1 0
    outer loop
      vertex 23.82 129.65 78.23
      vertex 24.32 129.65 74.92
      vertex 24.32 129.65 78.92
    endloop
  endfacet
  facet normal 0 -1 0
    outer loop
      vertex 24.32 129.65 74.92
      vertex 23.82 129.65 78.23
      vertex 3 129.65 74.92
    endloop
  endfacet
  facet normal 1 -0 0
    outer loop
      vertex 28.32 129.65 78.92
      vertex 28.32 132.19 74.92
      vertex 28.32 132.19 78.92
    endloop
  endfacet
  facet normal 1 0 0
    outer loop
      vertex 28.32 132.19 74.92
      vertex 28.32 129.65 78.92
      vertex 28.32 129.65 74.92
    endloop
  endfacet
  facet normal 0 0 -1
    outer loop
      vertex 27.32 129.65 74.92
      vertex 28.32 132.19 74.92
      vertex 28.32 129.65 74.92
    endloop
  endfacet
  facet normal -0 0 -1
    outer loop
      vertex 28.32 132.19 74.92
      vertex 27.32 129.65 74.92
      vertex 27.32 132.19 74.92
    endloop
  endfacet
  facet normal 0 0 -1
    outer loop
      vertex -1 129.65 74.92
      vertex 0 132.19 74.92
      vertex 0 129.65 74.92
    endloop
  endfacet
  facet normal -0 0 -1
    outer loop
      vertex 0 132.19 74.92
      vertex -1 129.65 74.92
      vertex -1 132.19 74.92
    endloop
  endfacet
  facet normal 0 0 -1
    outer loop
      vertex 3 129.65 74.92
      vertex 24.32 132.19 74.92
      vertex 24.32 129.65 74.92
    endloop
  endfacet
  facet normal -0 0 -1
    outer loop
      vertex 24.32 132.19 74.92
      vertex 3 129.65 74.92
      vertex 3 132.19 74.92
    endloop
  endfacet
  facet normal -0 0 1
    outer loop
      vertex 27.32 132.19 78.92
      vertex 28.32 129.65 78.92
      vertex 28.32 132.19 78.92
    endloop
  endfacet
  facet normal 0 0 1
    outer loop
      vertex 28.32 129.65 78.92
      vertex 27.32 132.19 78.92
      vertex 27.32 129.65 78.92
    endloop
  endfacet
  facet normal -0 0 1
    outer loop
      vertex -1 132.19 78.92
      vertex 0 129.65 78.92
      vertex 0 132.19 78.92
    endloop
  endfacet
  facet normal 0 0 1
    outer loop
      vertex 0 129.65 78.92
      vertex -1 132.19 78.92
      vertex -1 129.65 78.92
    endloop
  endfacet
  facet normal -0 0 1
    outer loop
      vertex 3 132.19 78.92
      vertex 3.5 129.65 78.92
      vertex 3.5 132.19 78.92
    endloop
  endfacet
  facet normal 0 0 1
    outer loop
      vertex 3.5 129.65 78.92
      vertex 3 132.19 78.92
      vertex 3 129.65 78.92
    endloop
  endfacet
  facet normal -0 0 1
    outer loop
      vertex 23.82 132.19 78.92
      vertex 24.32 129.65 78.92
      vertex 24.32 132.19 78.92
    endloop
  endfacet
  facet normal 0 0 1
    outer loop
      vertex 24.32 129.65 78.92
      vertex 23.82 132.19 78.92
      vertex 23.82 129.65 78.92
    endloop
  endfacet
  facet normal 0 1 -0
    outer loop
      vertex 0 132.19 74.92
      vertex -1 132.19 78.92
      vertex 0 132.19 78.92
    endloop
  endfacet
  facet normal 0 1 0
    outer loop
      vertex -1 132.19 78.92
      vertex 0 132.19 74.92
      vertex -1 132.19 74.92
    endloop
  endfacet
  facet normal 0 1 -0
    outer loop
      vertex 28.32 132.19 74.92
      vertex 27.32 132.19 78.92
      vertex 28.32 132.19 78.92
    endloop
  endfacet
  facet normal 0 1 0
    outer loop
      vertex 27.32 132.19 78.92
      vertex 28.32 132.19 74.92
      vertex 27.32 132.19 74.92
    endloop
  endfacet
  facet normal 0 1 0
    outer loop
      vertex 24.32 132.19 78.92
      vertex 23.82 132.19 78.23
      vertex 23.82 132.19 78.92
    endloop
  endfacet
  facet normal 0 1 0
    outer loop
      vertex 23.82 132.19 78.23
      vertex 24.32 132.19 74.92
      vertex 3.5 132.19 78.23
    endloop
  endfacet
  facet normal 0 1 -0
    outer loop
      vertex 24.32 132.19 74.92
      vertex 23.82 132.19 78.23
      vertex 24.32 132.19 78.92
    endloop
  endfacet
  facet normal 0 1 -0
    outer loop
      vertex 3.5 132.19 78.23
      vertex 3 132.19 78.92
      vertex 3.5 132.19 78.92
    endloop
  endfacet
  facet normal 0 1 0
    outer loop
      vertex 3.5 132.19 78.23
      vertex 3 132.19 74.92
      vertex 3 132.19 78.92
    endloop
  endfacet
  facet normal 0 1 0
    outer loop
      vertex 3 132.19 74.92
      vertex 3.5 132.19 78.23
      vertex 24.32 132.19 74.92
    endloop
  endfacet
  facet normal 0 1 -0
    outer loop
      vertex 23.82 173.64 8.39
      vertex 3.5 173.64 12.2
      vertex 23.82 173.64 12.2
    endloop
  endfacet
  facet normal 0 1 0
    outer loop
      vertex 3.5 173.64 12.2
      vertex 23.82 173.64 8.39
      vertex 3.5 173.64 8.39
    endloop
  endfacet
  facet normal -0 0 1
    outer loop
      vertex 3.5 173.64 12.2
      vertex 23.82 -39.72 12.2
      vertex 23.82 173.64 12.2
    endloop
  endfacet
  facet normal 0 0 1
    outer loop
      vertex 23.82 -39.72 12.2
      vertex 3.5 173.64 12.2
      vertex 3.5 -39.72 12.2
    endloop
  endfacet
  facet normal -1 0 0
    outer loop
      vertex 3.5 1.73 8.39
      vertex 3.5 -39.72 8.39
      vertex 3.5 1.73 9.08
    endloop
  endfacet
  facet normal -1 0 0
    outer loop
      vertex 3.5 129.65 8.39
      vertex 3.5 4.27 8.39
      vertex 3.5 129.65 9.08
    endloop
  endfacet
  facet normal -1 0 0
    outer loop
      vertex 3.5 132.19 9.08
      vertex 3.5 173.64 8.39
      vertex 3.5 132.19 8.39
    endloop
  endfacet
  facet normal -1 0 0
    outer loop
      vertex 3.5 173.64 8.39
      vertex 3.5 132.19 9.08
      vertex 3.5 173.64 12.2
    endloop
  endfacet
  facet normal -1 0 0
    outer loop
      vertex 3.5 129.65 9.08
      vertex 3.5 173.64 12.2
      vertex 3.5 132.19 9.08
    endloop
  endfacet
  facet normal -1 0 0
    outer loop
      vertex 3.5 4.27 9.08
      vertex 3.5 129.65 9.08
      vertex 3.5 4.27 8.39
    endloop
  endfacet
  facet normal -1 0 0
    outer loop
      vertex 3.5 129.65 9.08
      vertex 3.5 4.27 9.08
      vertex 3.5 173.64 12.2
    endloop
  endfacet
  facet normal -1 0 0
    outer loop
      vertex 3.5 -39.72 12.2
      vertex 3.5 4.27 9.08
      vertex 3.5 1.73 9.08
    endloop
  endfacet
  facet normal -1 0 0
    outer loop
      vertex 3.5 -39.72 12.2
      vertex 3.5 1.73 9.08
      vertex 3.5 -39.72 8.39
    endloop
  endfacet
  facet normal -1 0 0
    outer loop
      vertex 3.5 4.27 9.08
      vertex 3.5 -39.72 12.2
      vertex 3.5 173.64 12.2
    endloop
  endfacet
  facet normal 0 -1 0
    outer loop
      vertex 3.5 -39.72 8.39
      vertex 23.82 -39.72 12.2
      vertex 3.5 -39.72 12.2
    endloop
  endfacet
  facet normal 0 -1 -0
    outer loop
      vertex 23.82 -39.72 12.2
      vertex 3.5 -39.72 8.39
      vertex 23.82 -39.72 8.39
    endloop
  endfacet
  facet normal 0 0 -1
    outer loop
      vertex 3.5 -39.72 8.39
      vertex 23.82 1.73 8.39
      vertex 23.82 -39.72 8.39
    endloop
  endfacet
  facet normal -0 0 -1
    outer loop
      vertex 23.82 1.73 8.39
      vertex 3.5 -39.72 8.39
      vertex 3.5 1.73 8.39
    endloop
  endfacet
  facet normal 0 0 -1
    outer loop
      vertex 3.5 132.19 8.39
      vertex 23.82 173.64 8.39
      vertex 23.82 132.19 8.39
    endloop
  endfacet
  facet normal -0 0 -1
    outer loop
      vertex 23.82 173.64 8.39
      vertex 3.5 132.19 8.39
      vertex 3.5 173.64 8.39
    endloop
  endfacet
  facet normal 0 0 -1
    outer loop
      vertex 3.5 4.27 8.39
      vertex 23.82 129.65 8.39
      vertex 23.82 4.27 8.39
    endloop
  endfacet
  facet normal -0 0 -1
    outer loop
      vertex 23.82 129.65 8.39
      vertex 3.5 4.27 8.39
      vertex 3.5 129.65 8.39
    endloop
  endfacet
  facet normal 1 0 0
    outer loop
      vertex 23.82 173.64 12.2
      vertex 23.82 132.19 9.08
      vertex 23.82 173.64 8.39
    endloop
  endfacet
  facet normal 1 0 0
    outer loop
      vertex 23.82 173.64 12.2
      vertex 23.82 129.65 9.08
      vertex 23.82 132.19 9.08
    endloop
  endfacet
  facet normal 1 0 0
    outer loop
      vertex 23.82 129.65 9.08
      vertex 23.82 4.27 9.08
      vertex 23.82 129.65 8.39
    endloop
  endfacet
  facet normal 1 0 0
    outer loop
      vertex 23.82 173.64 12.2
      vertex 23.82 4.27 9.08
      vertex 23.82 129.65 9.08
    endloop
  endfacet
  facet normal 1 -0 0
    outer loop
      vertex 23.82 -39.72 12.2
      vertex 23.82 4.27 9.08
      vertex 23.82 173.64 12.2
    endloop
  endfacet
  facet normal 1 0 0
    outer loop
      vertex 23.82 4.27 9.08
      vertex 23.82 -39.72 12.2
      vertex 23.82 1.73 9.08
    endloop
  endfacet
  facet normal 1 0 0
    outer loop
      vertex 23.82 -39.72 8.39
      vertex 23.82 1.73 9.08
      vertex 23.82 -39.72 12.2
    endloop
  endfacet
  facet normal 1 0 0
    outer loop
      vertex 23.82 1.73 9.08
      vertex 23.82 -39.72 8.39
      vertex 23.82 1.73 8.39
    endloop
  endfacet
  facet normal 1 0 0
    outer loop
      vertex 23.82 173.64 8.39
      vertex 23.82 132.19 9.08
      vertex 23.82 132.19 8.39
    endloop
  endfacet
  facet normal 1 0 0
    outer loop
      vertex 23.82 129.65 8.39
      vertex 23.82 4.27 9.08
      vertex 23.82 4.27 8.39
    endloop
  endfacet
  facet normal 0 1 -0
    outer loop
      vertex 23.82 173.64 43.31
      vertex 3.5 173.64 47.12
      vertex 23.82 173.64 47.12
    endloop
  endfacet
  facet normal 0 1 0
    outer loop
      vertex 3.5 173.64 47.12
      vertex 23.82 173.64 43.31
      vertex 3.5 173.64 43.31
    endloop
  endfacet
  facet normal -0 0 1
    outer loop
      vertex 3.5 173.64 47.12
      vertex 23.82 -39.72 47.12
      vertex 23.82 173.64 47.12
    endloop
  endfacet
  facet normal 0 0 1
    outer loop
      vertex 23.82 -39.72 47.12
      vertex 3.5 173.64 47.12
      vertex 3.5 -39.72 47.12
    endloop
  endfacet
  facet normal -1 0 0
    outer loop
      vertex 3.5 1.73 43.31
      vertex 3.5 -39.72 43.31
      vertex 3.5 1.73 44
    endloop
  endfacet
  facet normal -1 0 0
    outer loop
      vertex 3.5 129.65 43.31
      vertex 3.5 4.27 43.31
      vertex 3.5 129.65 44
    endloop
  endfacet
  facet normal -1 0 0
    outer loop
      vertex 3.5 132.19 44
      vertex 3.5 173.64 43.31
      vertex 3.5 132.19 43.31
    endloop
  endfacet
  facet normal -1 0 0
    outer loop
      vertex 3.5 173.64 43.31
      vertex 3.5 132.19 44
      vertex 3.5 173.64 47.12
    endloop
  endfacet
  facet normal -1 0 0
    outer loop
      vertex 3.5 129.65 44
      vertex 3.5 173.64 47.12
      vertex 3.5 132.19 44
    endloop
  endfacet
  facet normal -1 0 0
    outer loop
      vertex 3.5 4.27 44
      vertex 3.5 129.65 44
      vertex 3.5 4.27 43.31
    endloop
  endfacet
  facet normal -1 0 0
    outer loop
      vertex 3.5 129.65 44
      vertex 3.5 4.27 44
      vertex 3.5 173.64 47.12
    endloop
  endfacet
  facet normal -1 0 0
    outer loop
      vertex 3.5 -39.72 47.12
      vertex 3.5 4.27 44
      vertex 3.5 1.73 44
    endloop
  endfacet
  facet normal -1 0 0
    outer loop
      vertex 3.5 -39.72 47.12
      vertex 3.5 1.73 44
      vertex 3.5 -39.72 43.31
    endloop
  endfacet
  facet normal -1 0 0
    outer loop
      vertex 3.5 4.27 44
      vertex 3.5 -39.72 47.12
      vertex 3.5 173.64 47.12
    endloop
  endfacet
  facet normal 0 -1 0
    outer loop
      vertex 3.5 -39.72 43.31
      vertex 23.82 -39.72 47.12
      vertex 3.5 -39.72 47.12
    endloop
  endfacet
  facet normal 0 -1 -0
    outer loop
      vertex 23.82 -39.72 47.12
      vertex 3.5 -39.72 43.31
      vertex 23.82 -39.72 43.31
    endloop
  endfacet
  facet normal 0 0 -1
    outer loop
      vertex 3.5 -39.72 43.31
      vertex 23.82 1.73 43.31
      vertex 23.82 -39.72 43.31
    endloop
  endfacet
  facet normal -0 0 -1
    outer loop
      vertex 23.82 1.73 43.31
      vertex 3.5 -39.72 43.31
      vertex 3.5 1.73 43.31
    endloop
  endfacet
  facet normal 0 0 -1
    outer loop
      vertex 3.5 132.19 43.31
      vertex 23.82 173.64 43.31
      vertex 23.82 132.19 43.31
    endloop
  endfacet
  facet normal -0 0 -1
    outer loop
      vertex 23.82 173.64 43.31
      vertex 3.5 132.19 43.31
      vertex 3.5 173.64 43.31
    endloop
  endfacet
  facet normal 0 0 -1
    outer loop
      vertex 3.5 4.27 43.31
      vertex 23.82 129.65 43.31
      vertex 23.82 4.27 43.31
    endloop
  endfacet
  facet normal -0 0 -1
    outer loop
      vertex 23.82 129.65 43.31
      vertex 3.5 4.27 43.31
      vertex 3.5 129.65 43.31
    endloop
  endfacet
  facet normal 1 0 0
    outer loop
      vertex 23.82 173.64 47.12
      vertex 23.82 132.19 44
      vertex 23.82 173.64 43.31
    endloop
  endfacet
  facet normal 1 0 0
    outer loop
      vertex 23.82 173.64 47.12
      vertex 23.82 129.65 44
      vertex 23.82 132.19 44
    endloop
  endfacet
  facet normal 1 0 0
    outer loop
      vertex 23.82 129.65 44
      vertex 23.82 4.27 44
      vertex 23.82 129.65 43.31
    endloop
  endfacet
  facet normal 1 0 0
    outer loop
      vertex 23.82 173.64 47.12
      vertex 23.82 4.27 44
      vertex 23.82 129.65 44
    endloop
  endfacet
  facet normal 1 -0 0
    outer loop
      vertex 23.82 -39.72 47.12
      vertex 23.82 4.27 44
      vertex 23.82 173.64 47.12
    endloop
  endfacet
  facet normal 1 0 0
    outer loop
      vertex 23.82 4.27 44
      vertex 23.82 -39.72 47.12
      vertex 23.82 1.73 44
    endloop
  endfacet
  facet normal 1 0 0
    outer loop
      vertex 23.82 -39.72 43.31
      vertex 23.82 1.73 44
      vertex 23.82 -39.72 47.12
    endloop
  endfacet
  facet normal 1 0 0
    outer loop
      vertex 23.82 1.73 44
      vertex 23.82 -39.72 43.31
      vertex 23.82 1.73 43.31
    endloop
  endfacet
  facet normal 1 0 0
    outer loop
      vertex 23.82 173.64 43.31
      vertex 23.82 132.19 44
      vertex 23.82 132.19 43.31
    endloop
  endfacet
  facet normal 1 0 0
    outer loop
      vertex 23.82 129.65 43.31
      vertex 23.82 4.27 44
      vertex 23.82 4.27 43.31
    endloop
  endfacet
  facet normal 0 1 -0
    outer loop
      vertex 23.82 173.64 78.23
      vertex 3.5 173.64 82.04
      vertex 23.82 173.64 82.04
    endloop
  endfacet
  facet normal 0 1 0
    outer loop
      vertex 3.5 173.64 82.04
      vertex 23.82 173.64 78.23
      vertex 3.5 173.64 78.23
    endloop
  endfacet
  facet normal -0 0 1
    outer loop
      vertex 3.5 173.64 82.04
      vertex 23.82 -39.72 82.04
      vertex 23.82 173.64 82.04
    endloop
  endfacet
  facet normal 0 0 1
    outer loop
      vertex 23.82 -39.72 82.04
      vertex 3.5 173.64 82.04
      vertex 3.5 -39.72 82.04
    endloop
  endfacet
  facet normal -1 0 0
    outer loop
      vertex 3.5 1.73 78.23
      vertex 3.5 -39.72 78.23
      vertex 3.5 1.73 78.92
    endloop
  endfacet
  facet normal -1 0 0
    outer loop
      vertex 3.5 129.65 78.23
      vertex 3.5 4.27 78.23
      vertex 3.5 129.65 78.92
    endloop
  endfacet
  facet normal -1 0 0
    outer loop
      vertex 3.5 132.19 78.92
      vertex 3.5 173.64 78.23
      vertex 3.5 132.19 78.23
    endloop
  endfacet
  facet normal -1 0 0
    outer loop
      vertex 3.5 173.64 78.23
      vertex 3.5 132.19 78.92
      vertex 3.5 173.64 82.04
    endloop
  endfacet
  facet normal -1 0 0
    outer loop
      vertex 3.5 129.65 78.92
      vertex 3.5 173.64 82.04
      vertex 3.5 132.19 78.92
    endloop
  endfacet
  facet normal -1 0 0
    outer loop
      vertex 3.5 4.27 78.92
      vertex 3.5 129.65 78.92
      vertex 3.5 4.27 78.23
    endloop
  endfacet
  facet normal -1 0 0
    outer loop
      vertex 3.5 129.65 78.92
      vertex 3.5 4.27 78.92
      vertex 3.5 173.64 82.04
    endloop
  endfacet
  facet normal -1 0 0
    outer loop
      vertex 3.5 -39.72 82.04
      vertex 3.5 4.27 78.92
      vertex 3.5 1.73 78.92
    endloop
  endfacet
  facet normal -1 0 0
    outer loop
      vertex 3.5 -39.72 82.04
      vertex 3.5 1.73 78.92
      vertex 3.5 -39.72 78.23
    endloop
  endfacet
  facet normal -1 0 0
    outer loop
      vertex 3.5 4.27 78.92
      vertex 3.5 -39.72 82.04
      vertex 3.5 173.64 82.04
    endloop
  endfacet
  facet normal 0 -1 0
    outer loop
      vertex 3.5 -39.72 78.23
      vertex 23.82 -39.72 82.04
      vertex 3.5 -39.72 82.04
    endloop
  endfacet
  facet normal 0 -1 -0
    outer loop
      vertex 23.82 -39.72 82.04
      vertex 3.5 -39.72 78.23
      vertex 23.82 -39.72 78.23
    endloop
  endfacet
  facet normal 0 0 -1
    outer loop
      vertex 3.5 -39.72 78.23
      vertex 23.82 1.73 78.23
      vertex 23.82 -39.72 78.23
    endloop
  endfacet
  facet normal -0 0 -1
    outer loop
      vertex 23.82 1.73 78.23
      vertex 3.5 -39.72 78.23
      vertex 3.5 1.73 78.23
    endloop
  endfacet
  facet normal 0 0 -1
    outer loop
      vertex 3.5 132.19 78.23
      vertex 23.82 173.64 78.23
      vertex 23.82 132.19 78.23
    endloop
  endfacet
  facet normal -0 0 -1
    outer loop
      vertex 23.82 173.64 78.23
      vertex 3.5 132.19 78.23
      vertex 3.5 173.64 78.23
    endloop
  endfacet
  facet normal 0 0 -1
    outer loop
      vertex 3.5 4.27 78.23
      vertex 23.82 129.65 78.23
      vertex 23.82 4.27 78.23
    endloop
  endfacet
  facet normal -0 0 -1
    outer loop
      vertex 23.82 129.65 78.23
      vertex 3.5 4.27 78.23
      vertex 3.5 129.65 78.23
    endloop
  endfacet
  facet normal 1 0 0
    outer loop
      vertex 23.82 173.64 82.04
      vertex 23.82 132.19 78.92
      vertex 23.82 173.64 78.23
    endloop
  endfacet
  facet normal 1 0 0
    outer loop
      vertex 23.82 173.64 82.04
      vertex 23.82 129.65 78.92
      vertex 23.82 132.19 78.92
    endloop
  endfacet
  facet normal 1 0 0
    outer loop
      vertex 23.82 129.65 78.92
      vertex 23.82 4.27 78.92
      vertex 23.82 129.65 78.23
    endloop
  endfacet
  facet normal 1 0 0
    outer loop
      vertex 23.82 173.64 82.04
      vertex 23.82 4.27 78.92
      vertex 23.82 129.65 78.92
    endloop
  endfacet
  facet normal 1 -0 0
    outer loop
      vertex 23.82 -39.72 82.04
      vertex 23.82 4.27 78.92
      vertex 23.82 173.64 82.04
    endloop
  endfacet
  facet normal 1 0 0
    outer loop
      vertex 23.82 4.27 78.92
      vertex 23.82 -39.72 82.04
      vertex 23.82 1.73 78.92
    endloop
  endfacet
  facet normal 1 0 0
    outer loop
      vertex 23.82 -39.72 78.23
      vertex 23.82 1.73 78.92
      vertex 23.82 -39.72 82.04
    endloop
  endfacet
  facet normal 1 0 0
    outer loop
      vertex 23.82 1.73 78.92
      vertex 23.82 -39.72 78.23
      vertex 23.82 1.73 78.23
    endloop
  endfacet
  facet normal 1 0 0
    outer loop
      vertex 23.82 173.64 78.23
      vertex 23.82 132.19 78.92
      vertex 23.82 132.19 78.23
    endloop
  endfacet
  facet normal 1 0 0
    outer loop
      vertex 23.82 129.65 78.23
      vertex 23.82 4.27 78.92
      vertex 23.82 4.27 78.23
    endloop
  endfacet
endsolid OpenSCAD_Model
