solid OpenSCAD_Model
  facet normal -1 0 0
    outer loop
      vertex 40.64 3.81 50.165
      vertex 40.64 11.43 50.8
      vertex 40.64 11.43 50.165
    endloop
  endfacet
  facet normal -1 -0 0
    outer loop
      vertex 40.64 11.43 50.8
      vertex 40.64 3.81 50.165
      vertex 40.64 3.81 50.8
    endloop
  endfacet
  facet normal -1 0 0
    outer loop
      vertex 40.64 24.13 40.005
      vertex 40.64 39.37 45.085
      vertex 40.64 39.37 0
    endloop
  endfacet
  facet normal -1 -0 0
    outer loop
      vertex 40.64 39.37 45.085
      vertex 40.64 24.13 40.005
      vertex 40.64 31.75 45.085
    endloop
  endfacet
  facet normal -1 0 0
    outer loop
      vertex 40.64 39.37 0
      vertex 40.64 19.05 40.005
      vertex 40.64 24.13 40.005
    endloop
  endfacet
  facet normal -1 0 0
    outer loop
      vertex 40.64 19.05 40.005
      vertex 40.64 11.43 45.085
      vertex 40.64 19.05 45.085
    endloop
  endfacet
  facet normal -1 0 0
    outer loop
      vertex 40.64 3.81 0
      vertex 40.64 19.05 40.005
      vertex 40.64 39.37 0
    endloop
  endfacet
  facet normal -1 0 0
    outer loop
      vertex 40.64 3.81 45.085
      vertex 40.64 19.05 40.005
      vertex 40.64 3.81 0
    endloop
  endfacet
  facet normal -1 0 0
    outer loop
      vertex 40.64 19.05 40.005
      vertex 40.64 3.81 45.085
      vertex 40.64 11.43 45.085
    endloop
  endfacet
  facet normal -1 -0 0
    outer loop
      vertex 40.64 31.75 45.085
      vertex 40.64 24.13 40.005
      vertex 40.64 24.13 45.085
    endloop
  endfacet
  facet normal -1 0 0
    outer loop
      vertex 40.64 31.75 50.165
      vertex 40.64 39.37 50.8
      vertex 40.64 39.37 50.165
    endloop
  endfacet
  facet normal -1 -0 0
    outer loop
      vertex 40.64 39.37 50.8
      vertex 40.64 31.75 50.165
      vertex 40.64 31.75 50.8
    endloop
  endfacet
  facet normal 1 0 0
    outer loop
      vertex 45.72 19.05 45.085
      vertex 45.72 11.43 45.085
      vertex 45.72 19.05 40.005
    endloop
  endfacet
  facet normal 1 0 0
    outer loop
      vertex 45.72 24.13 40.005
      vertex 45.72 39.37 45.085
      vertex 45.72 31.75 45.085
    endloop
  endfacet
  facet normal 1 0 0
    outer loop
      vertex 45.72 24.13 40.005
      vertex 45.72 31.75 45.085
      vertex 45.72 24.13 45.085
    endloop
  endfacet
  facet normal 1 0 0
    outer loop
      vertex 45.72 39.37 45.085
      vertex 45.72 24.13 40.005
      vertex 45.72 39.37 0
    endloop
  endfacet
  facet normal 1 -0 0
    outer loop
      vertex 45.72 19.05 40.005
      vertex 45.72 39.37 0
      vertex 45.72 24.13 40.005
    endloop
  endfacet
  facet normal 1 -0 0
    outer loop
      vertex 45.72 3.81 45.085
      vertex 45.72 19.05 40.005
      vertex 45.72 11.43 45.085
    endloop
  endfacet
  facet normal 1 0 0
    outer loop
      vertex 45.72 19.05 40.005
      vertex 45.72 3.81 45.085
      vertex 45.72 3.81 0
    endloop
  endfacet
  facet normal 1 0 0
    outer loop
      vertex 45.72 19.05 40.005
      vertex 45.72 3.81 0
      vertex 45.72 39.37 0
    endloop
  endfacet
  facet normal 1 -0 0
    outer loop
      vertex 45.72 31.75 50.8
      vertex 45.72 39.37 50.165
      vertex 45.72 39.37 50.8
    endloop
  endfacet
  facet normal 1 0 0
    outer loop
      vertex 45.72 39.37 50.165
      vertex 45.72 31.75 50.8
      vertex 45.72 31.75 50.165
    endloop
  endfacet
  facet normal 1 -0 0
    outer loop
      vertex 45.72 3.81 50.8
      vertex 45.72 11.43 50.165
      vertex 45.72 11.43 50.8
    endloop
  endfacet
  facet normal 1 0 0
    outer loop
      vertex 45.72 11.43 50.165
      vertex 45.72 3.81 50.8
      vertex 45.72 3.81 50.165
    endloop
  endfacet
  facet normal 0 1 -0
    outer loop
      vertex 45.72 3.81 45.085
      vertex 40.64 3.81 50.165
      vertex 45.72 3.81 50.165
    endloop
  endfacet
  facet normal 0 1 0
    outer loop
      vertex 40.64 3.81 50.165
      vertex 45.72 3.81 45.085
      vertex 40.64 3.81 45.085
    endloop
  endfacet
  facet normal 0 -1 0
    outer loop
      vertex 40.64 39.37 45.085
      vertex 45.72 39.37 50.165
      vertex 40.64 39.37 50.165
    endloop
  endfacet
  facet normal 0 -1 -0
    outer loop
      vertex 45.72 39.37 50.165
      vertex 40.64 39.37 45.085
      vertex 45.72 39.37 45.085
    endloop
  endfacet
  facet normal -1 0 0
    outer loop
      vertex 205.74 3.81 50.165
      vertex 205.74 11.43 50.8
      vertex 205.74 11.43 50.165
    endloop
  endfacet
  facet normal -1 -0 0
    outer loop
      vertex 205.74 11.43 50.8
      vertex 205.74 3.81 50.165
      vertex 205.74 3.81 50.8
    endloop
  endfacet
  facet normal -1 0 0
    outer loop
      vertex 205.74 24.13 40.005
      vertex 205.74 39.37 45.085
      vertex 205.74 39.37 0
    endloop
  endfacet
  facet normal -1 -0 0
    outer loop
      vertex 205.74 39.37 45.085
      vertex 205.74 24.13 40.005
      vertex 205.74 31.75 45.085
    endloop
  endfacet
  facet normal -1 0 0
    outer loop
      vertex 205.74 39.37 0
      vertex 205.74 19.05 40.005
      vertex 205.74 24.13 40.005
    endloop
  endfacet
  facet normal -1 0 0
    outer loop
      vertex 205.74 19.05 40.005
      vertex 205.74 11.43 45.085
      vertex 205.74 19.05 45.085
    endloop
  endfacet
  facet normal -1 0 0
    outer loop
      vertex 205.74 3.81 0
      vertex 205.74 19.05 40.005
      vertex 205.74 39.37 0
    endloop
  endfacet
  facet normal -1 0 0
    outer loop
      vertex 205.74 3.81 45.085
      vertex 205.74 19.05 40.005
      vertex 205.74 3.81 0
    endloop
  endfacet
  facet normal -1 0 0
    outer loop
      vertex 205.74 19.05 40.005
      vertex 205.74 3.81 45.085
      vertex 205.74 11.43 45.085
    endloop
  endfacet
  facet normal -1 -0 0
    outer loop
      vertex 205.74 31.75 45.085
      vertex 205.74 24.13 40.005
      vertex 205.74 24.13 45.085
    endloop
  endfacet
  facet normal -1 0 0
    outer loop
      vertex 205.74 31.75 50.165
      vertex 205.74 39.37 50.8
      vertex 205.74 39.37 50.165
    endloop
  endfacet
  facet normal -1 -0 0
    outer loop
      vertex 205.74 39.37 50.8
      vertex 205.74 31.75 50.165
      vertex 205.74 31.75 50.8
    endloop
  endfacet
  facet normal 1 0 0
    outer loop
      vertex 210.82 19.05 45.085
      vertex 210.82 11.43 45.085
      vertex 210.82 19.05 40.005
    endloop
  endfacet
  facet normal 1 0 0
    outer loop
      vertex 210.82 24.13 40.005
      vertex 210.82 39.37 45.085
      vertex 210.82 31.75 45.085
    endloop
  endfacet
  facet normal 1 0 0
    outer loop
      vertex 210.82 24.13 40.005
      vertex 210.82 31.75 45.085
      vertex 210.82 24.13 45.085
    endloop
  endfacet
  facet normal 1 0 0
    outer loop
      vertex 210.82 39.37 45.085
      vertex 210.82 24.13 40.005
      vertex 210.82 39.37 0
    endloop
  endfacet
  facet normal 1 -0 0
    outer loop
      vertex 210.82 19.05 40.005
      vertex 210.82 39.37 0
      vertex 210.82 24.13 40.005
    endloop
  endfacet
  facet normal 1 -0 0
    outer loop
      vertex 210.82 3.81 45.085
      vertex 210.82 19.05 40.005
      vertex 210.82 11.43 45.085
    endloop
  endfacet
  facet normal 1 0 0
    outer loop
      vertex 210.82 19.05 40.005
      vertex 210.82 3.81 45.085
      vertex 210.82 3.81 0
    endloop
  endfacet
  facet normal 1 0 0
    outer loop
      vertex 210.82 19.05 40.005
      vertex 210.82 3.81 0
      vertex 210.82 39.37 0
    endloop
  endfacet
  facet normal 1 -0 0
    outer loop
      vertex 210.82 31.75 50.8
      vertex 210.82 39.37 50.165
      vertex 210.82 39.37 50.8
    endloop
  endfacet
  facet normal 1 0 0
    outer loop
      vertex 210.82 39.37 50.165
      vertex 210.82 31.75 50.8
      vertex 210.82 31.75 50.165
    endloop
  endfacet
  facet normal 1 -0 0
    outer loop
      vertex 210.82 3.81 50.8
      vertex 210.82 11.43 50.165
      vertex 210.82 11.43 50.8
    endloop
  endfacet
  facet normal 1 0 0
    outer loop
      vertex 210.82 11.43 50.165
      vertex 210.82 3.81 50.8
      vertex 210.82 3.81 50.165
    endloop
  endfacet
  facet normal 0 1 -0
    outer loop
      vertex 210.82 3.81 45.085
      vertex 205.74 3.81 50.165
      vertex 210.82 3.81 50.165
    endloop
  endfacet
  facet normal 0 1 0
    outer loop
      vertex 205.74 3.81 50.165
      vertex 210.82 3.81 45.085
      vertex 205.74 3.81 45.085
    endloop
  endfacet
  facet normal 0 -1 0
    outer loop
      vertex 205.74 39.37 45.085
      vertex 210.82 39.37 50.165
      vertex 205.74 39.37 50.165
    endloop
  endfacet
  facet normal 0 -1 -0
    outer loop
      vertex 210.82 39.37 50.165
      vertex 205.74 39.37 45.085
      vertex 210.82 39.37 45.085
    endloop
  endfacet
  facet normal -1 0 0
    outer loop
      vertex 0 0 45.085
      vertex 0 43.18 50.165
      vertex 0 43.18 45.085
    endloop
  endfacet
  facet normal -1 -0 0
    outer loop
      vertex 0 43.18 50.165
      vertex 0 0 45.085
      vertex 0 0 50.165
    endloop
  endfacet
  facet normal -0 0 1
    outer loop
      vertex 40.64 31.75 50.165
      vertex 45.72 11.43 50.165
      vertex 45.72 31.75 50.165
    endloop
  endfacet
  facet normal 0 0 1
    outer loop
      vertex 45.72 11.43 50.165
      vertex 40.64 31.75 50.165
      vertex 40.64 11.43 50.165
    endloop
  endfacet
  facet normal -0 0 1
    outer loop
      vertex 205.74 31.75 50.165
      vertex 210.82 11.43 50.165
      vertex 210.82 31.75 50.165
    endloop
  endfacet
  facet normal 0 0 1
    outer loop
      vertex 210.82 11.43 50.165
      vertex 205.74 31.75 50.165
      vertex 205.74 11.43 50.165
    endloop
  endfacet
  facet normal 0 0 1
    outer loop
      vertex 210.82 31.75 50.165
      vertex 251.46 43.18 50.165
      vertex 210.82 39.37 50.165
    endloop
  endfacet
  facet normal 0 0 1
    outer loop
      vertex 251.46 43.18 50.165
      vertex 205.74 39.37 50.165
      vertex 210.82 39.37 50.165
    endloop
  endfacet
  facet normal 0 0 1
    outer loop
      vertex 45.72 31.75 50.165
      vertex 205.74 31.75 50.165
      vertex 205.74 39.37 50.165
    endloop
  endfacet
  facet normal 0 0 1
    outer loop
      vertex 205.74 31.75 50.165
      vertex 45.72 31.75 50.165
      vertex 205.74 11.43 50.165
    endloop
  endfacet
  facet normal 0 0 1
    outer loop
      vertex 45.72 11.43 50.165
      vertex 205.74 11.43 50.165
      vertex 45.72 31.75 50.165
    endloop
  endfacet
  facet normal 0 0 1
    outer loop
      vertex 45.72 31.75 50.165
      vertex 205.74 39.37 50.165
      vertex 45.72 39.37 50.165
    endloop
  endfacet
  facet normal 0 0 1
    outer loop
      vertex 251.46 43.18 50.165
      vertex 45.72 39.37 50.165
      vertex 205.74 39.37 50.165
    endloop
  endfacet
  facet normal -0 0 1
    outer loop
      vertex 0 43.18 50.165
      vertex 45.72 39.37 50.165
      vertex 251.46 43.18 50.165
    endloop
  endfacet
  facet normal 0 0 1
    outer loop
      vertex 0 43.18 50.165
      vertex 40.64 31.75 50.165
      vertex 40.64 39.37 50.165
    endloop
  endfacet
  facet normal 0 0 1
    outer loop
      vertex 40.64 31.75 50.165
      vertex 0 43.18 50.165
      vertex 40.64 11.43 50.165
    endloop
  endfacet
  facet normal 0 0 1
    outer loop
      vertex 0 0 50.165
      vertex 40.64 11.43 50.165
      vertex 0 43.18 50.165
    endloop
  endfacet
  facet normal 0 0 1
    outer loop
      vertex 40.64 11.43 50.165
      vertex 0 0 50.165
      vertex 40.64 3.81 50.165
    endloop
  endfacet
  facet normal 0 0 1
    outer loop
      vertex 45.72 39.37 50.165
      vertex 0 43.18 50.165
      vertex 40.64 39.37 50.165
    endloop
  endfacet
  facet normal 0 0 1
    outer loop
      vertex 251.46 43.18 50.165
      vertex 210.82 31.75 50.165
      vertex 251.46 0 50.165
    endloop
  endfacet
  facet normal -0 0 1
    outer loop
      vertex 210.82 11.43 50.165
      vertex 251.46 0 50.165
      vertex 210.82 31.75 50.165
    endloop
  endfacet
  facet normal -0 0 1
    outer loop
      vertex 210.82 3.81 50.165
      vertex 251.46 0 50.165
      vertex 210.82 11.43 50.165
    endloop
  endfacet
  facet normal -0 0 1
    outer loop
      vertex 205.74 3.81 50.165
      vertex 251.46 0 50.165
      vertex 210.82 3.81 50.165
    endloop
  endfacet
  facet normal 0 0 1
    outer loop
      vertex 205.74 11.43 50.165
      vertex 45.72 11.43 50.165
      vertex 205.74 3.81 50.165
    endloop
  endfacet
  facet normal 0 0 1
    outer loop
      vertex 45.72 3.81 50.165
      vertex 205.74 3.81 50.165
      vertex 45.72 11.43 50.165
    endloop
  endfacet
  facet normal 0 0 1
    outer loop
      vertex 205.74 3.81 50.165
      vertex 45.72 3.81 50.165
      vertex 251.46 0 50.165
    endloop
  endfacet
  facet normal 0 0 1
    outer loop
      vertex 0 0 50.165
      vertex 45.72 3.81 50.165
      vertex 40.64 3.81 50.165
    endloop
  endfacet
  facet normal 0 0 1
    outer loop
      vertex 45.72 3.81 50.165
      vertex 0 0 50.165
      vertex 251.46 0 50.165
    endloop
  endfacet
  facet normal 1 -0 0
    outer loop
      vertex 251.46 0 50.165
      vertex 251.46 43.18 45.085
      vertex 251.46 43.18 50.165
    endloop
  endfacet
  facet normal 1 0 0
    outer loop
      vertex 251.46 43.18 45.085
      vertex 251.46 0 50.165
      vertex 251.46 0 45.085
    endloop
  endfacet
  facet normal 0 1 -0
    outer loop
      vertex 251.46 43.18 45.085
      vertex 0 43.18 50.165
      vertex 251.46 43.18 50.165
    endloop
  endfacet
  facet normal 0 1 0
    outer loop
      vertex 0 43.18 50.165
      vertex 251.46 43.18 45.085
      vertex 0 43.18 45.085
    endloop
  endfacet
  facet normal 0 0 -1
    outer loop
      vertex 40.64 11.43 45.085
      vertex 45.72 31.75 45.085
      vertex 45.72 11.43 45.085
    endloop
  endfacet
  facet normal -0 0 -1
    outer loop
      vertex 45.72 31.75 45.085
      vertex 40.64 11.43 45.085
      vertex 40.64 31.75 45.085
    endloop
  endfacet
  facet normal 0 0 -1
    outer loop
      vertex 205.74 11.43 45.085
      vertex 210.82 31.75 45.085
      vertex 210.82 11.43 45.085
    endloop
  endfacet
  facet normal -0 0 -1
    outer loop
      vertex 210.82 31.75 45.085
      vertex 205.74 11.43 45.085
      vertex 205.74 31.75 45.085
    endloop
  endfacet
  facet normal 0 0 -1
    outer loop
      vertex 251.46 0 45.085
      vertex 205.74 3.81 45.085
      vertex 210.82 3.81 45.085
    endloop
  endfacet
  facet normal 0 0 -1
    outer loop
      vertex 205.74 3.81 45.085
      vertex 45.72 11.43 45.085
      vertex 205.74 11.43 45.085
    endloop
  endfacet
  facet normal 0 0 -1
    outer loop
      vertex 205.74 11.43 45.085
      vertex 45.72 11.43 45.085
      vertex 205.74 31.75 45.085
    endloop
  endfacet
  facet normal 0 0 -1
    outer loop
      vertex 251.46 0 45.085
      vertex 45.72 3.81 45.085
      vertex 205.74 3.81 45.085
    endloop
  endfacet
  facet normal 0 0 -1
    outer loop
      vertex 0 0 45.085
      vertex 45.72 3.81 45.085
      vertex 251.46 0 45.085
    endloop
  endfacet
  facet normal -0 0 -1
    outer loop
      vertex 40.64 3.81 45.085
      vertex 0 0 45.085
      vertex 40.64 11.43 45.085
    endloop
  endfacet
  facet normal -0 0 -1
    outer loop
      vertex 40.64 11.43 45.085
      vertex 0 0 45.085
      vertex 40.64 31.75 45.085
    endloop
  endfacet
  facet normal 0 0 -1
    outer loop
      vertex 0 43.18 45.085
      vertex 40.64 31.75 45.085
      vertex 0 0 45.085
    endloop
  endfacet
  facet normal -0 0 -1
    outer loop
      vertex 45.72 3.81 45.085
      vertex 0 0 45.085
      vertex 40.64 3.81 45.085
    endloop
  endfacet
  facet normal 0 0 -1
    outer loop
      vertex 210.82 11.43 45.085
      vertex 251.46 0 45.085
      vertex 210.82 3.81 45.085
    endloop
  endfacet
  facet normal 0 0 -1
    outer loop
      vertex 251.46 0 45.085
      vertex 210.82 11.43 45.085
      vertex 251.46 43.18 45.085
    endloop
  endfacet
  facet normal 0 0 -1
    outer loop
      vertex 210.82 31.75 45.085
      vertex 251.46 43.18 45.085
      vertex 210.82 11.43 45.085
    endloop
  endfacet
  facet normal 0 0 -1
    outer loop
      vertex 210.82 39.37 45.085
      vertex 251.46 43.18 45.085
      vertex 210.82 31.75 45.085
    endloop
  endfacet
  facet normal 0 0 -1
    outer loop
      vertex 205.74 39.37 45.085
      vertex 251.46 43.18 45.085
      vertex 210.82 39.37 45.085
    endloop
  endfacet
  facet normal 0 0 -1
    outer loop
      vertex 205.74 3.81 45.085
      vertex 45.72 3.81 45.085
      vertex 45.72 11.43 45.085
    endloop
  endfacet
  facet normal 0 0 -1
    outer loop
      vertex 45.72 31.75 45.085
      vertex 205.74 31.75 45.085
      vertex 45.72 11.43 45.085
    endloop
  endfacet
  facet normal 0 0 -1
    outer loop
      vertex 205.74 31.75 45.085
      vertex 45.72 31.75 45.085
      vertex 205.74 39.37 45.085
    endloop
  endfacet
  facet normal 0 0 -1
    outer loop
      vertex 45.72 39.37 45.085
      vertex 205.74 39.37 45.085
      vertex 45.72 31.75 45.085
    endloop
  endfacet
  facet normal 0 0 -1
    outer loop
      vertex 205.74 39.37 45.085
      vertex 45.72 39.37 45.085
      vertex 251.46 43.18 45.085
    endloop
  endfacet
  facet normal 0 0 -1
    outer loop
      vertex 0 43.18 45.085
      vertex 45.72 39.37 45.085
      vertex 40.64 39.37 45.085
    endloop
  endfacet
  facet normal 0 0 -1
    outer loop
      vertex 45.72 39.37 45.085
      vertex 0 43.18 45.085
      vertex 251.46 43.18 45.085
    endloop
  endfacet
  facet normal 0 0 -1
    outer loop
      vertex 40.64 31.75 45.085
      vertex 0 43.18 45.085
      vertex 40.64 39.37 45.085
    endloop
  endfacet
  facet normal 0 -1 0
    outer loop
      vertex 0 0 45.085
      vertex 251.46 0 50.165
      vertex 0 0 50.165
    endloop
  endfacet
  facet normal 0 -1 -0
    outer loop
      vertex 251.46 0 50.165
      vertex 0 0 45.085
      vertex 251.46 0 45.085
    endloop
  endfacet
  facet normal 0 -1 0
    outer loop
      vertex 40.64 31.75 50.165
      vertex 45.72 31.75 50.8
      vertex 40.64 31.75 50.8
    endloop
  endfacet
  facet normal 0 -1 -0
    outer loop
      vertex 45.72 31.75 50.8
      vertex 40.64 31.75 50.165
      vertex 45.72 31.75 50.165
    endloop
  endfacet
  facet normal -0 0 1
    outer loop
      vertex 40.64 19.05 45.085
      vertex 45.72 11.43 45.085
      vertex 45.72 19.05 45.085
    endloop
  endfacet
  facet normal 0 0 1
    outer loop
      vertex 45.72 11.43 45.085
      vertex 40.64 19.05 45.085
      vertex 40.64 11.43 45.085
    endloop
  endfacet
  facet normal -0 0 1
    outer loop
      vertex 40.64 31.75 45.085
      vertex 45.72 24.13 45.085
      vertex 45.72 31.75 45.085
    endloop
  endfacet
  facet normal 0 0 1
    outer loop
      vertex 45.72 24.13 45.085
      vertex 40.64 31.75 45.085
      vertex 40.64 24.13 45.085
    endloop
  endfacet
  facet normal 0 1 -0
    outer loop
      vertex 45.72 11.43 50.165
      vertex 40.64 11.43 50.8
      vertex 45.72 11.43 50.8
    endloop
  endfacet
  facet normal 0 1 0
    outer loop
      vertex 40.64 11.43 50.8
      vertex 45.72 11.43 50.165
      vertex 40.64 11.43 50.165
    endloop
  endfacet
  facet normal 0 -1 0
    outer loop
      vertex 45.72 19.05 40.005
      vertex 55.88 19.05 45.085
      vertex 45.72 19.05 45.085
    endloop
  endfacet
  facet normal 0 -1 -0
    outer loop
      vertex 55.88 19.05 45.085
      vertex 45.72 19.05 40.005
      vertex 55.88 19.05 40.005
    endloop
  endfacet
  facet normal 0 -1 0
    outer loop
      vertex 30.48 19.05 40.005
      vertex 40.64 19.05 45.085
      vertex 30.48 19.05 45.085
    endloop
  endfacet
  facet normal 0 -1 -0
    outer loop
      vertex 40.64 19.05 45.085
      vertex 30.48 19.05 40.005
      vertex 40.64 19.05 40.005
    endloop
  endfacet
  facet normal 0 1 -0
    outer loop
      vertex 55.88 24.13 40.005
      vertex 45.72 24.13 45.085
      vertex 55.88 24.13 45.085
    endloop
  endfacet
  facet normal 0 1 0
    outer loop
      vertex 45.72 24.13 45.085
      vertex 55.88 24.13 40.005
      vertex 45.72 24.13 40.005
    endloop
  endfacet
  facet normal 0 1 -0
    outer loop
      vertex 40.64 24.13 40.005
      vertex 30.48 24.13 45.085
      vertex 40.64 24.13 45.085
    endloop
  endfacet
  facet normal 0 1 0
    outer loop
      vertex 30.48 24.13 45.085
      vertex 40.64 24.13 40.005
      vertex 30.48 24.13 40.005
    endloop
  endfacet
  facet normal 0 0 -1
    outer loop
      vertex 40.64 3.81 0
      vertex 45.72 39.37 0
      vertex 45.72 3.81 0
    endloop
  endfacet
  facet normal -0 0 -1
    outer loop
      vertex 45.72 39.37 0
      vertex 40.64 3.81 0
      vertex 40.64 39.37 0
    endloop
  endfacet
  facet normal -0 0 1
    outer loop
      vertex 40.64 11.43 50.8
      vertex 45.72 3.81 50.8
      vertex 45.72 11.43 50.8
    endloop
  endfacet
  facet normal 0 0 1
    outer loop
      vertex 45.72 3.81 50.8
      vertex 40.64 11.43 50.8
      vertex 40.64 3.81 50.8
    endloop
  endfacet
  facet normal -0 0 1
    outer loop
      vertex 40.64 39.37 50.8
      vertex 45.72 31.75 50.8
      vertex 45.72 39.37 50.8
    endloop
  endfacet
  facet normal 0 0 1
    outer loop
      vertex 45.72 31.75 50.8
      vertex 40.64 39.37 50.8
      vertex 40.64 31.75 50.8
    endloop
  endfacet
  facet normal 0 1 -0
    outer loop
      vertex 45.72 39.37 50.165
      vertex 40.64 39.37 50.8
      vertex 45.72 39.37 50.8
    endloop
  endfacet
  facet normal 0 1 0
    outer loop
      vertex 45.72 39.37 50.165
      vertex 40.64 39.37 50.165
      vertex 40.64 39.37 50.8
    endloop
  endfacet
  facet normal 0 1 -0
    outer loop
      vertex 45.72 39.37 45.085
      vertex 40.64 39.37 50.165
      vertex 45.72 39.37 50.165
    endloop
  endfacet
  facet normal 0 1 0
    outer loop
      vertex 45.72 39.37 45.085
      vertex 40.64 39.37 45.085
      vertex 40.64 39.37 50.165
    endloop
  endfacet
  facet normal 0 1 -0
    outer loop
      vertex 45.72 39.37 0
      vertex 40.64 39.37 45.085
      vertex 45.72 39.37 45.085
    endloop
  endfacet
  facet normal 0 1 0
    outer loop
      vertex 40.64 39.37 45.085
      vertex 45.72 39.37 0
      vertex 40.64 39.37 0
    endloop
  endfacet
  facet normal 0 -1 0
    outer loop
      vertex 40.64 3.81 50.165
      vertex 45.72 3.81 50.8
      vertex 40.64 3.81 50.8
    endloop
  endfacet
  facet normal 0 -1 0
    outer loop
      vertex 40.64 3.81 50.165
      vertex 45.72 3.81 50.165
      vertex 45.72 3.81 50.8
    endloop
  endfacet
  facet normal 0 -1 0
    outer loop
      vertex 40.64 3.81 45.085
      vertex 45.72 3.81 50.165
      vertex 40.64 3.81 50.165
    endloop
  endfacet
  facet normal 0 -1 0
    outer loop
      vertex 40.64 3.81 45.085
      vertex 45.72 3.81 45.085
      vertex 45.72 3.81 50.165
    endloop
  endfacet
  facet normal 0 -1 0
    outer loop
      vertex 40.64 3.81 0
      vertex 45.72 3.81 45.085
      vertex 40.64 3.81 45.085
    endloop
  endfacet
  facet normal 0 -1 -0
    outer loop
      vertex 45.72 3.81 45.085
      vertex 40.64 3.81 0
      vertex 45.72 3.81 0
    endloop
  endfacet
  facet normal -1 0 0
    outer loop
      vertex 30.48 19.05 40.005
      vertex 30.48 24.13 45.085
      vertex 30.48 24.13 40.005
    endloop
  endfacet
  facet normal -1 -0 0
    outer loop
      vertex 30.48 24.13 45.085
      vertex 30.48 19.05 40.005
      vertex 30.48 19.05 45.085
    endloop
  endfacet
  facet normal -0 0 1
    outer loop
      vertex 45.72 24.13 45.085
      vertex 55.88 19.05 45.085
      vertex 55.88 24.13 45.085
    endloop
  endfacet
  facet normal 0 0 1
    outer loop
      vertex 45.72 24.13 45.085
      vertex 45.72 19.05 45.085
      vertex 55.88 19.05 45.085
    endloop
  endfacet
  facet normal -0 0 1
    outer loop
      vertex 40.64 24.13 45.085
      vertex 45.72 19.05 45.085
      vertex 45.72 24.13 45.085
    endloop
  endfacet
  facet normal 0 0 1
    outer loop
      vertex 40.64 24.13 45.085
      vertex 40.64 19.05 45.085
      vertex 45.72 19.05 45.085
    endloop
  endfacet
  facet normal -0 0 1
    outer loop
      vertex 30.48 24.13 45.085
      vertex 40.64 19.05 45.085
      vertex 40.64 24.13 45.085
    endloop
  endfacet
  facet normal 0 0 1
    outer loop
      vertex 40.64 19.05 45.085
      vertex 30.48 24.13 45.085
      vertex 30.48 19.05 45.085
    endloop
  endfacet
  facet normal 1 -0 0
    outer loop
      vertex 55.88 19.05 45.085
      vertex 55.88 24.13 40.005
      vertex 55.88 24.13 45.085
    endloop
  endfacet
  facet normal 1 0 0
    outer loop
      vertex 55.88 24.13 40.005
      vertex 55.88 19.05 45.085
      vertex 55.88 19.05 40.005
    endloop
  endfacet
  facet normal 0 0 -1
    outer loop
      vertex 30.48 19.05 40.005
      vertex 40.64 24.13 40.005
      vertex 40.64 19.05 40.005
    endloop
  endfacet
  facet normal -0 0 -1
    outer loop
      vertex 40.64 24.13 40.005
      vertex 30.48 19.05 40.005
      vertex 30.48 24.13 40.005
    endloop
  endfacet
  facet normal 0 0 -1
    outer loop
      vertex 45.72 19.05 40.005
      vertex 55.88 24.13 40.005
      vertex 55.88 19.05 40.005
    endloop
  endfacet
  facet normal -0 0 -1
    outer loop
      vertex 55.88 24.13 40.005
      vertex 45.72 19.05 40.005
      vertex 45.72 24.13 40.005
    endloop
  endfacet
  facet normal 0 -1 0
    outer loop
      vertex 205.74 31.75 50.165
      vertex 210.82 31.75 50.8
      vertex 205.74 31.75 50.8
    endloop
  endfacet
  facet normal 0 -1 -0
    outer loop
      vertex 210.82 31.75 50.8
      vertex 205.74 31.75 50.165
      vertex 210.82 31.75 50.165
    endloop
  endfacet
  facet normal -0 0 1
    outer loop
      vertex 205.74 19.05 45.085
      vertex 210.82 11.43 45.085
      vertex 210.82 19.05 45.085
    endloop
  endfacet
  facet normal 0 0 1
    outer loop
      vertex 210.82 11.43 45.085
      vertex 205.74 19.05 45.085
      vertex 205.74 11.43 45.085
    endloop
  endfacet
  facet normal -0 0 1
    outer loop
      vertex 205.74 31.75 45.085
      vertex 210.82 24.13 45.085
      vertex 210.82 31.75 45.085
    endloop
  endfacet
  facet normal 0 0 1
    outer loop
      vertex 210.82 24.13 45.085
      vertex 205.74 31.75 45.085
      vertex 205.74 24.13 45.085
    endloop
  endfacet
  facet normal 0 1 -0
    outer loop
      vertex 210.82 11.43 50.165
      vertex 205.74 11.43 50.8
      vertex 210.82 11.43 50.8
    endloop
  endfacet
  facet normal 0 1 0
    outer loop
      vertex 205.74 11.43 50.8
      vertex 210.82 11.43 50.165
      vertex 205.74 11.43 50.165
    endloop
  endfacet
  facet normal 0 -1 0
    outer loop
      vertex 210.82 19.05 40.005
      vertex 220.98 19.05 45.085
      vertex 210.82 19.05 45.085
    endloop
  endfacet
  facet normal 0 -1 -0
    outer loop
      vertex 220.98 19.05 45.085
      vertex 210.82 19.05 40.005
      vertex 220.98 19.05 40.005
    endloop
  endfacet
  facet normal 0 -1 0
    outer loop
      vertex 195.58 19.05 40.005
      vertex 205.74 19.05 45.085
      vertex 195.58 19.05 45.085
    endloop
  endfacet
  facet normal 0 -1 -0
    outer loop
      vertex 205.74 19.05 45.085
      vertex 195.58 19.05 40.005
      vertex 205.74 19.05 40.005
    endloop
  endfacet
  facet normal 0 1 -0
    outer loop
      vertex 220.98 24.13 40.005
      vertex 210.82 24.13 45.085
      vertex 220.98 24.13 45.085
    endloop
  endfacet
  facet normal 0 1 0
    outer loop
      vertex 210.82 24.13 45.085
      vertex 220.98 24.13 40.005
      vertex 210.82 24.13 40.005
    endloop
  endfacet
  facet normal 0 1 -0
    outer loop
      vertex 205.74 24.13 40.005
      vertex 195.58 24.13 45.085
      vertex 205.74 24.13 45.085
    endloop
  endfacet
  facet normal 0 1 0
    outer loop
      vertex 195.58 24.13 45.085
      vertex 205.74 24.13 40.005
      vertex 195.58 24.13 40.005
    endloop
  endfacet
  facet normal 0 0 -1
    outer loop
      vertex 205.74 3.81 0
      vertex 210.82 39.37 0
      vertex 210.82 3.81 0
    endloop
  endfacet
  facet normal -0 0 -1
    outer loop
      vertex 210.82 39.37 0
      vertex 205.74 3.81 0
      vertex 205.74 39.37 0
    endloop
  endfacet
  facet normal -0 0 1
    outer loop
      vertex 205.74 11.43 50.8
      vertex 210.82 3.81 50.8
      vertex 210.82 11.43 50.8
    endloop
  endfacet
  facet normal 0 0 1
    outer loop
      vertex 210.82 3.81 50.8
      vertex 205.74 11.43 50.8
      vertex 205.74 3.81 50.8
    endloop
  endfacet
  facet normal -0 0 1
    outer loop
      vertex 205.74 39.37 50.8
      vertex 210.82 31.75 50.8
      vertex 210.82 39.37 50.8
    endloop
  endfacet
  facet normal 0 0 1
    outer loop
      vertex 210.82 31.75 50.8
      vertex 205.74 39.37 50.8
      vertex 205.74 31.75 50.8
    endloop
  endfacet
  facet normal 0 1 -0
    outer loop
      vertex 210.82 39.37 50.165
      vertex 205.74 39.37 50.8
      vertex 210.82 39.37 50.8
    endloop
  endfacet
  facet normal 0 1 0
    outer loop
      vertex 210.82 39.37 50.165
      vertex 205.74 39.37 50.165
      vertex 205.74 39.37 50.8
    endloop
  endfacet
  facet normal 0 1 -0
    outer loop
      vertex 210.82 39.37 45.085
      vertex 205.74 39.37 50.165
      vertex 210.82 39.37 50.165
    endloop
  endfacet
  facet normal 0 1 0
    outer loop
      vertex 210.82 39.37 45.085
      vertex 205.74 39.37 45.085
      vertex 205.74 39.37 50.165
    endloop
  endfacet
  facet normal 0 1 -0
    outer loop
      vertex 210.82 39.37 0
      vertex 205.74 39.37 45.085
      vertex 210.82 39.37 45.085
    endloop
  endfacet
  facet normal 0 1 0
    outer loop
      vertex 205.74 39.37 45.085
      vertex 210.82 39.37 0
      vertex 205.74 39.37 0
    endloop
  endfacet
  facet normal 0 -1 0
    outer loop
      vertex 205.74 3.81 50.165
      vertex 210.82 3.81 50.8
      vertex 205.74 3.81 50.8
    endloop
  endfacet
  facet normal 0 -1 0
    outer loop
      vertex 205.74 3.81 50.165
      vertex 210.82 3.81 50.165
      vertex 210.82 3.81 50.8
    endloop
  endfacet
  facet normal 0 -1 0
    outer loop
      vertex 205.74 3.81 45.085
      vertex 210.82 3.81 50.165
      vertex 205.74 3.81 50.165
    endloop
  endfacet
  facet normal 0 -1 0
    outer loop
      vertex 205.74 3.81 45.085
      vertex 210.82 3.81 45.085
      vertex 210.82 3.81 50.165
    endloop
  endfacet
  facet normal 0 -1 0
    outer loop
      vertex 205.74 3.81 0
      vertex 210.82 3.81 45.085
      vertex 205.74 3.81 45.085
    endloop
  endfacet
  facet normal 0 -1 -0
    outer loop
      vertex 210.82 3.81 45.085
      vertex 205.74 3.81 0
      vertex 210.82 3.81 0
    endloop
  endfacet
  facet normal -1 0 0
    outer loop
      vertex 195.58 19.05 40.005
      vertex 195.58 24.13 45.085
      vertex 195.58 24.13 40.005
    endloop
  endfacet
  facet normal -1 -0 0
    outer loop
      vertex 195.58 24.13 45.085
      vertex 195.58 19.05 40.005
      vertex 195.58 19.05 45.085
    endloop
  endfacet
  facet normal -0 0 1
    outer loop
      vertex 210.82 24.13 45.085
      vertex 220.98 19.05 45.085
      vertex 220.98 24.13 45.085
    endloop
  endfacet
  facet normal 0 0 1
    outer loop
      vertex 210.82 24.13 45.085
      vertex 210.82 19.05 45.085
      vertex 220.98 19.05 45.085
    endloop
  endfacet
  facet normal -0 0 1
    outer loop
      vertex 205.74 24.13 45.085
      vertex 210.82 19.05 45.085
      vertex 210.82 24.13 45.085
    endloop
  endfacet
  facet normal 0 0 1
    outer loop
      vertex 205.74 24.13 45.085
      vertex 205.74 19.05 45.085
      vertex 210.82 19.05 45.085
    endloop
  endfacet
  facet normal -0 0 1
    outer loop
      vertex 195.58 24.13 45.085
      vertex 205.74 19.05 45.085
      vertex 205.74 24.13 45.085
    endloop
  endfacet
  facet normal 0 0 1
    outer loop
      vertex 205.74 19.05 45.085
      vertex 195.58 24.13 45.085
      vertex 195.58 19.05 45.085
    endloop
  endfacet
  facet normal 1 -0 0
    outer loop
      vertex 220.98 19.05 45.085
      vertex 220.98 24.13 40.005
      vertex 220.98 24.13 45.085
    endloop
  endfacet
  facet normal 1 0 0
    outer loop
      vertex 220.98 24.13 40.005
      vertex 220.98 19.05 45.085
      vertex 220.98 19.05 40.005
    endloop
  endfacet
  facet normal 0 0 -1
    outer loop
      vertex 195.58 19.05 40.005
      vertex 205.74 24.13 40.005
      vertex 205.74 19.05 40.005
    endloop
  endfacet
  facet normal -0 0 -1
    outer loop
      vertex 205.74 24.13 40.005
      vertex 195.58 19.05 40.005
      vertex 195.58 24.13 40.005
    endloop
  endfacet
  facet normal 0 0 -1
    outer loop
      vertex 210.82 19.05 40.005
      vertex 220.98 24.13 40.005
      vertex 220.98 19.05 40.005
    endloop
  endfacet
  facet normal -0 0 -1
    outer loop
      vertex 220.98 24.13 40.005
      vertex 210.82 19.05 40.005
      vertex 210.82 24.13 40.005
    endloop
  endfacet
endsolid OpenSCAD_Model
